<?xml version="1.0" encoding="UTF-8" standalone="no"?>
<svg width="127px" height="140px" viewBox="0 0 127 140" version="1.1" xmlns="http://www.w3.org/2000/svg" xmlns:xlink="http://www.w3.org/1999/xlink" xmlns:sketch="http://www.bohemiancoding.com/sketch/ns">
    <!-- Generator: Sketch 3.3.3 (12081) - http://www.bohemiancoding.com/sketch -->
    <title>unilever-logo-tight</title>
    <desc>Created with Sketch.</desc>
    <defs></defs>
    <g id="Page-1" stroke="none" stroke-width="1" fill="none" fill-rule="evenodd" sketch:type="MSPage">
        <g id="Uni_ml_ss_p_4cp" sketch:type="MSLayerGroup" fill="#FFFFFF">
            <path d="M50.8180351,136.196912 C51.8997193,136.196912 53.7609825,135.845684 55.2263158,133.500561 C54.3887719,131.639298 53.7919298,127.879439 53.7074386,126.511368 C53.2761404,119.509404 55.9739649,112.924 58.9262456,112.742737 C61.0905965,112.61207 62.8221754,114.660982 63.021614,117.979228 C63.553614,126.70393 60.6489825,130.345895 59.1944561,133.485825 C59.4400702,134.70407 61.505193,136.777544 63.454386,136.777544 C64.1755088,136.777544 65.0469474,136.417474 65.2635789,136.124702 C65.1186667,135.622175 64.9717895,134.971298 64.9717895,134.030105 C64.9717895,128.974877 68.2237193,124.712491 71.0389474,124.712491 C73.2784561,124.712491 74.5782456,127.674105 74.5782456,129.627719 C74.5782456,131.935509 72.6270877,133.816912 69.7406316,135.622175 C70.2480702,136.124702 71.1828772,136.489684 71.9806316,136.489684 C76.0990877,136.489684 78.2560702,131.505193 79.8515789,126.952982 C80.1394386,126.084982 80.6478596,124.858386 81.6563509,124.858386 C83.3908772,124.858386 84.1149474,136.269614 86.9964912,136.269614 C88.2275088,136.269614 89.2364912,133.739789 89.2364912,131.794526 C89.2364912,130.348842 88.7310175,130.204421 88.7310175,128.109333 C88.7310175,125.800561 89.9600702,123.852351 91.6243509,123.852351 C92.634807,123.852351 92.9983158,124.858386 92.9983158,126.084982 C92.9983158,130.706456 89.673193,139.302456 84.7677895,139.302456 C81.0786667,139.302456 81.3665263,132.946947 80.0682105,132.946947 C78.617614,132.946947 76.5952281,139.375158 69.4522807,139.375158 C68.2905263,139.375158 67.066386,138.798456 66.0578947,137.64014 C64.3263158,138.798456 62.877193,139.302456 61.2158596,139.302456 C58.5470175,139.302456 57.3901754,136.557965 56.308,136.557965 C55.0067368,136.557965 53.5659649,139.375158 49.2284211,139.375158 C45.7623158,139.375158 45.1836491,134.75614 43.9595088,134.75614 C42.8748772,134.75614 41.2140351,139.375158 39.4097544,139.375158 C36.3724912,139.375158 35.7270175,131.360281 33.0512982,131.360281 C30.957193,131.360281 24.3408421,139.500421 22.5444211,139.314737 C21.8213333,139.239088 21.5182456,138.699719 21.594386,137.978105 C21.6965614,136.979439 22.5557193,134.304211 22.9044912,133.039298 C23.4890526,130.842526 24.0249825,128.435018 24.3241404,127.667719 C24.6218246,126.893544 25.424,126.340912 26.0670175,126.400351 C26.3917193,126.431298 26.4889825,127.035509 26.5896842,127.534596 C26.9536842,129.320702 27.4635789,131.142175 28.0383158,131.142175 C29.0527018,131.142175 32.4033684,124.712491 34.3515789,124.712491 C36.7379649,124.712491 37.0253333,134.825895 40.2713684,134.825895 C41.3574737,134.825895 42.1542456,133.52807 42.8748772,131.935509 C42.9475789,129.258807 43.6687018,125.439018 45.8355088,125.439018 C47.3534035,125.439018 48.0769825,128.830456 46.9894035,131.794526 C46.9894035,135.330386 49.2986667,136.196912 50.8180351,136.196912 L50.8180351,136.196912 Z M108.591368,127.53214 C107.69586,131.245333 104.982807,136.706316 100.934105,136.706316 C99.9968421,136.706316 98.3350175,136.343789 98.3350175,135.403579 C98.3350175,134.391649 104.693965,134.251649 104.693965,129.409614 C104.693965,127.607298 103.034105,125.075509 100.576,125.075509 C97.3265263,125.075509 94.157614,128.617754 94.157614,133.52807 C94.157614,137.929965 96.8917895,139.375158 99.634807,139.375158 C104.40414,139.375158 107.29207,135.472351 108.807018,132.22386 C109.533544,134.391649 109.960421,139.375158 111.770596,139.375158 C112.492211,139.375158 112.999649,139.013123 113.869123,137.065895 C116.028561,132.22386 118.125123,126.664632 121.016982,126.664632 C122.097193,126.664632 121.449263,128.617754 124.048351,128.617754 C125.273965,128.617754 126.137053,127.607298 126.137053,126.445544 C126.137053,124.783719 124.623088,123.488842 122.313825,123.488842 C115.526035,123.488842 114.084772,133.671509 112.999649,133.671509 C111.192912,133.671509 111.770596,125.509754 110.469825,125.509754 C109.312491,125.509754 108.745614,126.88814 108.591368,127.53214 L108.591368,127.53214 Z M60.6833684,119.928421 C60.5585965,117.910456 60.0703158,116.998737 58.985193,117.07193 C57.5468772,117.15986 56.8812632,121.685053 57.176,126.440632 C57.3626667,129.543228 57.8249123,130.020702 58.2557193,129.991719 C59.0515088,129.944561 60.9594386,124.400561 60.6833684,119.928421 L60.6833684,119.928421 Z M48.9385965,115.686667 C48.8374035,114.529825 47.9301053,113.738947 46.7010526,113.738947 C45.3300351,113.738947 44.0395789,115.177263 44.1761404,116.984982 C44.2645614,118.175228 44.9670175,119.156211 46.3458947,119.156211 C47.9301053,119.156211 49.084,117.350947 48.9385965,115.686667 L48.9385965,115.686667 Z M71.4019649,130.418105 C71.4019649,129.193474 70.749614,128.182035 69.9602105,128.182035 C69.3039298,128.182035 67.7924211,128.900702 67.7924211,131.213404 C67.7924211,133.024561 68.4359298,133.884211 68.7306667,134.251649 C70.8213333,133.601263 71.4019649,131.863789 71.4019649,130.418105 L71.4019649,130.418105 Z M99.634807,127.970316 C101.153684,127.970316 101.589404,129.766246 101.227368,130.853333 C100.86386,131.935509 99.5670175,133.167018 97.5441404,133.52807 C97.1098947,132.442456 96.8917895,127.970316 99.634807,127.970316 L99.634807,127.970316 Z M16.4797193,122.841404 C16.2729123,122.185123 15.6721404,120.709474 15.5080702,119.619439 C15.1470175,117.207018 16.4075088,115.617895 17.566807,115.252912 C18.8661053,114.890386 19.3740351,115.542737 19.8760702,117.062105 C20.5274386,119.371368 20.5991579,122.401263 20.3810526,126.734877 C20.0961404,132.658105 17.1335439,139.809404 9.76905263,139.661053 C3.41108772,139.521544 0.597824561,135.403579 0.305052632,129.120772 C0.167508772,126.159649 0.378245614,123.200491 1.60582456,119.011789 C2.25621053,116.771789 2.83684211,115.973053 4.85480702,115.542737 C6.44294737,115.252912 6.30049123,116.911298 5.9394386,118.868842 C5.1485614,123.200491 4.78161404,125.29214 5.07438596,130.204421 C5.35733333,135.403579 7.74617544,137.426947 10.3452632,137.426947 C14.2451228,137.501614 15.9762105,134.251649 16.7017544,129.553053 C17.276,125.800561 16.8437193,123.994316 16.4797193,122.841404 L16.4797193,122.841404 Z" id="Fill-1" sketch:type="MSShapeGroup"></path>
            <path d="M101.657193,28.8866667 C102.157263,32.5256842 107.672281,37.4320702 109.166596,37.3166316 C110.165754,37.2316491 110.548421,32.5644912 110.548421,28.8866667 C110.548421,26.7792982 110.663368,25.1302456 109.551719,24.7461053 C107.786246,28.3119298 103.153965,29.0399298 101.657193,28.8866667 L101.657193,28.8866667 Z M101.963228,27.2759298 C105.945123,27.2759298 109.590035,24.0967018 109.590035,21.2991579 C109.590035,19.9949474 108.975018,18.9230877 107.403579,18.7305263 C107.672281,19.0763509 107.786246,19.3445614 107.786246,19.9566316 C107.786246,22.0654737 104.574105,24.4032281 101.082456,24.4032281 C99.8170526,24.4032281 99.4334035,25.2835088 99.4334035,25.7432982 C99.4334035,26.817614 100.469404,27.2759298 101.963228,27.2759298 L101.963228,27.2759298 Z M101.121263,22.9457544 C100.584842,22.9457544 99.8170526,22.9457544 99.3950877,22.1042807 C99.0487719,21.4141053 99.1647018,20.3014737 98.5133333,19.8038596 C99.1647018,19.9949474 99.854386,19.9949474 100.391789,19.9949474 C102.118947,19.9949474 103.768982,18.8076491 105.034386,18.8076491 C105.868982,18.8076491 106.137684,19.3445614 106.137684,19.8795088 C106.137684,21.5673684 102.732982,22.9457544 101.121263,22.9457544 L101.121263,22.9457544 Z" id="Fill-2" sketch:type="MSShapeGroup"></path>
            <path d="M15.4019649,52.9902456 C16.7032281,52.9902456 16.4350175,45.0181053 18.542386,45.0181053 C19.0409825,45.0181053 19.1947368,45.517193 19.1947368,46.1302456 C19.1947368,47.9310877 18.312,50.5758596 18.312,52.030386 C18.312,52.7593684 18.5040702,52.9902456 18.8489123,52.9902456 C19.7699649,52.9902456 21.3787368,44.2124912 22.9496842,44.2124912 C23.4482807,44.2124912 23.6776842,44.7115789 23.6776842,45.2101754 C23.6776842,47.0493333 21.3409123,52.3374035 21.3409123,53.8312281 C21.3409123,54.061614 21.4170526,54.253193 21.6091228,54.253193 C22.5670175,54.253193 24.482807,50.1155789 25.0953684,48.0460351 C25.4402105,46.9722105 25.9004912,46.3969825 26.3224561,46.3969825 C26.705614,46.3969825 27.0509474,46.8189474 27.0509474,47.7007018 C27.0509474,49.7697544 25.1336842,54.6373333 23.4482807,57.8951579 C22.1460351,60.424 20.1152982,64.0625263 20.1152982,66.0937544 C20.1152982,67.1287719 20.3049123,68.2006316 21.8002105,69.5048421 C19.348,69.3515789 18.350807,69.121193 17.4322105,67.2058947 C13.3319298,75.3691228 24.9818947,74.564 20.9945965,81.8042105 C20.2665965,80.5039298 14.5192281,79.1618947 14.5192281,71.5738947 C14.5192281,65.0218947 20.2665965,61.1893333 20.2665965,58.4684211 C20.2665965,57.9329825 20.0769825,57.473193 19.5778947,57.0512281 C18.312,55.9774035 18.273193,55.097614 17.2789474,55.097614 C16.5499649,55.097614 15.6677193,56.7830175 16.5882807,58.2768421 C16.8952982,58.7749474 17.1635088,59.0819649 17.1635088,59.5422456 C17.1635088,60.6141053 15.4761404,63.4872982 14.2903158,63.4872982 C13.1015439,63.4872982 12.1834386,60.5399298 12.1834386,55.7858246 C12.1834386,51.5701053 13.1398596,47.3175439 14.3281404,47.3175439 C14.6729825,47.3175439 14.7874386,47.5474386 14.7874386,47.8544561 C14.7874386,48.3530526 14.6351579,49.3482807 14.6351579,51.033193 C14.6351579,52.836 15.0561404,52.9902456 15.4019649,52.9902456" id="Fill-3" sketch:type="MSShapeGroup"></path>
            <path d="M25.1715088,64.2167719 C26.7827368,64.2167719 28.122807,63.0270175 28.122807,60.3861754 L28.122807,56.476 C28.122807,54.9821754 28.2377544,53.2972632 29.2349474,52.1075088 C29.1204912,52.6061053 29.1204912,53.1430175 29.1204912,53.6396491 C29.1204912,56.9357895 30.9591579,59.1974035 30.9591579,62.3771228 C30.9591579,63.5634386 30.6138246,64.2167719 29.6957193,64.2167719 C28.8134737,64.2167719 28.8901053,63.4111579 28.6980351,63.4111579 C28.5452632,63.4111579 28.3148772,63.9087719 28.3148772,64.4461754 C28.3148772,65.2512982 28.8901053,66.5147368 30.4988772,66.5147368 C31.8797193,66.5147368 32.9894035,65.2512982 32.9894035,63.8326316 C32.9894035,60.3861754 30.306807,56.5526316 30.306807,52.874807 C30.306807,51.2635789 30.7292632,50.1917193 31.0741053,49.3482807 C31.0741053,56.9745965 37.5499649,62.530386 37.5499649,65.7101053 C37.5499649,66.4385965 37.0145263,67.0138246 36.2098947,67.0138246 C35.3281404,67.0138246 34.905193,66.3231579 34.905193,65.7862456 C34.905193,65.5180351 34.8668772,65.4414035 34.7524211,65.4414035 C34.5244912,65.4414035 33.8333333,66.2082105 33.8333333,67.2058947 C33.8333333,68.4688421 34.8668772,70.0039298 36.7846316,70.0039298 C38.9671579,70.0039298 40.1549474,68.1623158 40.1549474,66.5147368 C40.1549474,62.4925614 32.2997193,56.3988772 32.2997193,49.885193 C32.2997193,48.7730526 32.490807,46.9722105 33.2964211,45.5938246 C28.2377544,48.849193 26.6677895,53.1818246 26.6677895,56.9745965 C26.6677895,60.2712281 26.5528421,61.9163509 24.8669474,61.9163509 C23.985193,61.9163509 23.754807,61.1127018 23.4482807,61.1127018 C23.2178947,61.1127018 23.1019649,61.8018947 23.1019649,61.9934737 C23.1019649,63.4111579 24.1379649,64.2167719 25.1715088,64.2167719" id="Fill-4" sketch:type="MSShapeGroup"></path>
            <path d="M91.5825965,25.9353684 C93.2699649,25.9353684 94.5353684,25.1685614 94.5353684,24.7077895 C94.5353684,24.5569825 94.3054737,24.4415439 93.806386,24.4415439 C93.3072982,24.4415439 92.3105965,24.4032281 90.4311579,24.0967018 C88.8194386,23.828 87.5933333,23.2144561 87.1325614,23.2144561 C86.9792982,23.2144561 86.9021754,23.2915789 86.9021754,23.4060351 C86.9021754,24.4032281 88.7432982,25.9353684 91.5825965,25.9353684 L91.5825965,25.9353684 Z M83.2287719,21.0687719 C83.7150877,20.7430877 85.8745263,21.2598596 88.6676491,19.8795088 C89.012,19.6898947 89.3573333,19.6127719 89.6633684,19.6127719 C91.0068772,19.6127719 90.6605614,21.1449123 91.8891228,21.1449123 C92.8470175,21.1449123 94.0750877,20.3397895 94.8050526,20.3397895 C95.9466667,20.3397895 97.5952281,23.9429474 97.5952281,25.6288421 C97.5952281,27.5829474 94.650807,28.7712281 91.1601404,28.7712281 C86.0675789,28.7712281 82.998386,24.3270877 82.998386,21.4519298 C82.998386,21.2220351 83.1143158,21.1449123 83.2287719,21.0687719 L83.2287719,21.0687719 Z" id="Fill-5" sketch:type="MSShapeGroup"></path>
            <path d="M25.9771228,78.662807 C24.7136842,78.970807 22.6809825,80.9607719 22.6809825,84.1065965 C22.6809825,87.8600702 26.705614,93.6482105 33.3347368,93.6482105 C38.9293333,93.6482105 40.3077193,89.7783158 40.3077193,87.1698947 C40.3077193,81.3832281 36.7463158,77.3207719 32.1101053,77.3207719 C29.5797895,77.3207719 27.3196491,79.1618947 27.3196491,81.8803509 C27.3196491,84.4121404 29.2349474,88.2049123 33.7955088,88.2049123 C35.941193,88.2049123 37.2051228,86.6712982 37.2051228,84.9117193 C37.2051228,83.1855439 35.6341754,80.8114386 33.3347368,80.8114386 C32.6450526,80.8114386 32.1484211,81.2677895 32.1484211,81.9967719 C32.1484211,82.9158596 33.4118596,83.8374035 34.9823158,83.8374035 C35.3659649,83.8374035 35.6724912,83.7607719 35.8262456,83.6836491 C35.902386,83.7995789 35.941193,83.9906667 35.941193,84.1439298 C35.941193,85.0266667 35.0972632,85.5635789 33.7955088,85.5635789 C31.8414035,85.5635789 29.9619649,84.1065965 29.9619649,81.8042105 C29.9619649,80.4277895 31.1512281,79.4305965 32.8749474,79.4305965 C36.2860351,79.4305965 38.3157895,82.4565614 38.3157895,85.4864561 C38.3157895,88.2049123 36.8234386,89.7783158 33.757193,89.7783158 C27.6242105,89.7783158 24.6370526,84.2593684 25.9771228,78.662807" id="Fill-6" sketch:type="MSShapeGroup"></path>
            <path d="M66.7490526,93.4566316 C66.7490526,94.3010526 67.4397193,94.9897544 68.281193,94.9897544 C69.1246316,94.9897544 69.814807,94.3010526 69.814807,93.4566316 C69.814807,92.6122105 69.1246316,91.9220351 68.281193,91.9220351 C67.4397193,91.9220351 66.7490526,92.6122105 66.7490526,93.4566316 L66.7490526,93.4566316 Z M69.7195088,101.115368 C71.5576842,101.115368 71.4628772,100.963088 72.0381053,100.963088 C72.6123509,100.963088 72.6516491,101.306947 72.6516491,101.537825 C72.6516491,102.381754 70.7717193,103.417754 67.4397193,103.417754 C65.4846316,103.417754 64.2963509,102.381754 63.9515088,101.231298 C62.0367018,102.457895 59.1242105,103.570035 56.2495439,103.570035 C48.3952982,103.570035 46.4018947,100.156982 43.9496842,99.0487719 C42.0707368,98.2048421 39.1975439,99.8538947 35.1738947,95.3699649 C35.710807,95.4849123 36.4397895,95.5232281 37.0145263,95.5232281 C40.537614,95.5232281 42.4155789,93.8009825 42.4155789,91.0392982 C42.4155789,90.6939649 42.3772632,90.3152281 42.3389474,89.9708772 C43.4127719,90.3923509 45.8649825,92.2290526 46.4407018,95.4849123 C46.5173333,95.8685614 48.0872982,96.2134035 49.0830175,96.2134035 C50.4633684,96.2134035 52.226386,95.637193 52.4941053,93.3795088 C57.0934737,92.9968421 60.1980351,90.2764211 60.8498947,86.8240702 C62.4955088,87.3619649 64.3729825,88.8572632 64.8332632,89.6240702 C65.4846316,89.3946667 66.2499649,89.2797193 67.1322105,89.2797193 C68.3578246,89.2797193 69.7381754,89.5091228 71.3852632,90.0087018 C71.4628772,89.5091228 71.5390175,88.8955789 72.3063158,88.8955789 C73.4552982,88.8955789 73.1482807,90.1614737 73.5314386,90.8860351 C73.7235088,91.269193 74.6838596,91.5000702 74.6838596,92.266386 C74.6838596,92.9968421 74.0668772,93.2645614 73.685193,93.2645614 C73.5314386,93.2645614 73.3398596,93.2262456 73.2239298,93.1884211 C72.4595789,93.4566316 72.4207719,98.9731228 69.2012632,98.9731228 C66.8256842,98.9731228 64.6416842,97.0185263 63.682807,94.5682807 C63.4141053,93.8402807 62.8408421,93.3795088 62.3034386,93.3795088 C61.6913684,93.3795088 61.3465263,93.4944561 60.62,94.3010526 C58.5504561,96.5582456 55.1010526,98.5118596 50.8475088,98.5118596 C49.5437895,98.5118596 48.5097544,98.3974035 48.2415439,98.3974035 C48.0872982,98.3974035 48.0872982,98.4352281 48.0872982,98.4730526 C48.0872982,98.7417544 49.3895439,99.7777544 52.226386,99.7777544 C58.9699649,99.7777544 60.62,95.9835088 61.6913684,95.9835088 C61.8451228,95.9835088 62.3034386,95.9835088 62.5716491,96.5970526 C64.1425965,100.27193 67.5733333,101.115368 69.7195088,101.115368 L69.7195088,101.115368 Z" id="Fill-7" sketch:type="MSShapeGroup"></path>
            <path d="M92.9629474,76.7072281 C92.1578246,76.7072281 87.7072982,82.6476491 84.8395088,82.6476491 C84.1498246,82.6476491 83.5750877,81.3444211 83.5750877,80.3516491 C83.5750877,79.8142456 83.9184561,79.4305965 85.1475088,79.1618947 C91.7358596,77.6665965 90.278386,72.7218947 95.9073684,72.7218947 C99.0114386,72.7218947 102.463298,74.8317193 102.463298,79.5833684 C102.463298,84.6435088 95.2638596,90.9253333 94.1900351,90.9253333 C93.3072982,90.9253333 92.3489123,89.6618947 92.3489123,88.8189474 C92.3489123,88.5517193 92.4643509,88.2049123 93.2316491,87.8998596 C96.9045614,86.4409123 99.0114386,83.069614 99.0114386,81.3444211 C99.0114386,80.9607719 98.8203509,80.5815439 98.3212632,80.5815439 C97.6718596,80.5815439 94.8807018,86.94 91.7741754,86.94 C89.6250526,86.94 87.4395789,84.9888421 87.4395789,84.0677895 C87.4395789,82.5336842 93.6526316,79.698807 93.6526316,77.5506667 C93.6526316,76.7445614 93.2699649,76.7072281 92.9629474,76.7072281 L92.9629474,76.7072281 Z M97.0961404,74.3326316 C96.5597193,74.3326316 95.9849825,74.7555789 95.9849825,75.7910877 C95.9849825,76.937614 96.8667368,77.6665965 97.3648421,77.896 C97.6335439,78.0497544 98.0555088,78.2035088 98.4740351,78.2035088 C99.5871579,78.2035088 100.469404,77.896 100.469404,76.9749474 C100.469404,75.7910877 98.7437193,74.3326316 97.0961404,74.3326316 L97.0961404,74.3326316 Z" id="Fill-8" sketch:type="MSShapeGroup"></path>
            <path d="M25.5168421,29.9585263 C25.5168421,30.8024561 26.2075088,31.4931228 27.0509474,31.4931228 C27.8929123,31.4931228 28.5835789,30.8024561 28.5835789,29.9585263 C28.5835789,29.1170526 27.8929123,28.426386 27.0509474,28.426386 C26.2075088,28.426386 25.5168421,29.1170526 25.5168421,29.9585263 L25.5168421,29.9585263 Z M23.5249123,26.5105965 C23.5249123,27.3525614 24.2145965,28.0427368 25.0565614,28.0427368 C25.9004912,28.0427368 26.5901754,27.3525614 26.5901754,26.5105965 C26.5901754,25.6671579 25.9004912,24.9764912 25.0565614,24.9764912 C24.2145965,24.9764912 23.5249123,25.6671579 23.5249123,26.5105965 L23.5249123,26.5105965 Z M22.1460351,37.009614 C21.2632982,37.2395088 19.4251228,38.3123509 19.4251228,40.2281404 C19.4251228,41.6065263 20.4964912,42.4892632 21.8395088,42.4892632 C22.5296842,42.4892632 23.0263158,42.3355088 23.3323509,42.105614 C22.2604912,41.0715789 21.8778246,39.9211228 21.8778246,38.7731228 C21.8778246,37.9670175 21.9922807,37.4698947 22.1460351,37.009614 L22.1460351,37.009614 Z M12.7586667,37.5465263 C12.7208421,37.7385965 12.7208421,37.929193 12.7208421,38.1202807 C12.7208421,39.9211228 13.6767719,40.9183158 14.9416842,40.9183158 C15.897614,40.9183158 17.0107368,40.3430877 18.0054737,39.0776842 C17.5854737,39.1538246 17.0873684,39.1921404 16.6270877,39.1921404 C15.2098947,39.1921404 13.6767719,38.8109474 12.7586667,37.5465263 L12.7586667,37.5465263 Z M11.4166316,40.9566316 C11.4166316,43.8681404 12.2978947,45.2484912 13.8688421,45.2484912 C15.0944561,45.2484912 16.7425263,44.3662456 18.6961404,42.6808421 C17.2018246,43.0261754 16.0513684,43.2555789 15.0178246,43.2555789 C13.6389474,43.2555789 12.5665965,42.7191579 11.4166316,40.9566316 L11.4166316,40.9566316 Z M21.3409123,25.6288421 C21.532,25.0143158 21.6857544,24.2504561 21.6857544,23.4060351 C21.6857544,21.5673684 20.8418246,18.7693333 18.2358596,18.7693333 C16.7425263,18.7693333 15.6677193,19.9566316 15.6677193,21.3752982 C15.6677193,24.4032281 18.6961404,25.6288421 21.3409123,25.6288421 L21.3409123,25.6288421 Z M18.0821053,35.2858947 C16.8186667,35.2858947 15.4397895,33.7154386 15.4397895,32.2967719 C15.4397895,31.5314386 16.0135439,30.5720702 16.4350175,30.5720702 C16.5882807,30.5720702 16.6649123,30.6875088 16.7032281,30.9562105 C16.933614,32.833193 18.1592281,33.9070175 19.3096842,34.4424561 C19.4251228,34.5185965 19.5012632,34.5574035 19.5012632,34.6335439 C19.5012632,34.9017544 18.7722807,35.2858947 18.0821053,35.2858947 L18.0821053,35.2858947 Z M21.6091228,30.610386 C21.8738947,30.9714386 22.6058246,31.416 22.6058246,31.6847018 C22.6058246,32.2191579 22.298807,32.9103158 21.6857544,32.9103158 C20.3437193,32.9103158 19.2713684,30.8790877 19.2713684,29.7286316 C19.2713684,29.001614 19.6933333,28.9249825 20.2665965,28.9249825 C20.5352982,28.9249825 20.6497544,28.9632982 20.8418246,29.0787368 C21.1866667,29.2698246 21.1866667,30.0356491 21.6091228,30.610386 L21.6091228,30.610386 Z M12.6049123,35.3625263 C12.5336842,35.4804211 12.4904561,35.6307368 12.4904561,35.7849825 C12.4904561,36.1298246 12.8741053,36.5129825 13.2164912,36.5129825 C13.524,36.5129825 13.7150877,36.4363509 13.8688421,36.4363509 C14.7874386,36.4363509 15.8214737,37.0867368 17.3172632,37.0867368 C18.1970526,37.0867368 19.2330526,36.8175439 20.5352982,36.1681404 C23.2940351,34.7872982 24.3683509,31.3776842 24.3683509,30.8024561 C24.3683509,30.0734737 23.782807,30.1687719 23.2940351,29.4982456 C22.8052632,28.8306667 22.9924211,28.2392281 22.6809825,27.9272982 C22.5036491,27.748 21.9539649,27.7362105 21.2632982,27.6590877 C21.0319298,27.6340351 20.726386,27.6212632 20.4198596,27.6212632 C19.1564211,27.6212632 17.6576842,27.776 15.9752281,28.8483509 C12.6505965,30.9689825 13.1398596,34.4802807 12.6049123,35.3625263 L12.6049123,35.3625263 Z M25.3257544,33.830386 C24.482807,34.825614 23.6010526,36.5129825 23.6010526,38.2357193 C23.6010526,40.3047719 24.8669474,42.0284912 26.8210526,42.0284912 C28.6980351,42.0284912 29.5797895,40.4197193 29.5797895,38.7731228 C29.5797895,36.2064561 27.2430175,34.4031579 25.3257544,33.830386 L25.3257544,33.830386 Z M17.1256842,26.4727719 C17.1256842,26.4727719 16.0135439,27.3142456 14.6351579,27.3142456 C12.9890526,27.3142456 11.6848421,26.0886316 11.6848421,24.3649123 C11.6848421,23.1766316 12.2978947,21.9510175 13.7150877,21.3374737 C13.6767719,21.5673684 13.6767719,21.7584561 13.6767719,21.9888421 C13.6767719,24.1728421 14.9028772,25.8204211 17.1256842,26.4727719 L17.1256842,26.4727719 Z" id="Fill-9" sketch:type="MSShapeGroup"></path>
            <path d="M84.6862456,39.1921404 C84.6862456,40.0753684 85.4162105,40.8033684 86.2881404,40.8033684 C87.1708772,40.8033684 87.9003509,40.0753684 87.9003509,39.1921404 C87.9003509,38.3123509 87.1708772,37.5848421 86.2881404,37.5848421 C85.4162105,37.5848421 84.6862456,38.3123509 84.6862456,39.1921404 L84.6862456,39.1921404 Z M84.801193,44.0204211 C84.801193,45.0181053 85.6072982,45.8237193 86.5961404,45.8237193 C87.5933333,45.8237193 88.3989474,45.0181053 88.3989474,44.0204211 C88.3989474,43.0261754 87.5933333,42.2210526 86.5961404,42.2210526 C85.6072982,42.2210526 84.801193,43.0261754 84.801193,44.0204211 L84.801193,44.0204211 Z M79.2797895,47.2787368 C79.2797895,48.7342456 80.4675789,49.9230175 81.9255439,49.9230175 C83.3820351,49.9230175 84.5717895,48.7342456 84.5717895,47.2787368 C84.5717895,45.8237193 83.3820351,44.6349474 81.9255439,44.6349474 C80.4675789,44.6349474 79.2797895,45.8237193 79.2797895,47.2787368 L79.2797895,47.2787368 Z M80.6974737,41.8757193 C80.6974737,42.7191579 81.3876491,43.4093333 82.2315789,43.4093333 C83.0750175,43.4093333 83.765193,42.7191579 83.765193,41.8757193 C83.765193,41.0332632 83.0750175,40.3430877 82.2315789,40.3430877 C81.3876491,40.3430877 80.6974737,41.0332632 80.6974737,41.8757193 L80.6974737,41.8757193 Z M75.6810526,44.9414737 C75.6810526,45.7854035 76.3717193,46.4731228 77.2063158,46.4731228 C78.0507368,46.4731228 78.7414035,45.7854035 78.7414035,44.9414737 C78.7414035,44.0985263 78.0507368,43.4093333 77.2063158,43.4093333 C76.3717193,43.4093333 75.6810526,44.0985263 75.6810526,44.9414737 L75.6810526,44.9414737 Z M79.6241404,35.9760702 C79.6241404,37.3166316 80.7362807,38.4272982 82.0783158,38.4272982 C83.4203509,38.4272982 84.5324912,37.3166316 84.5324912,35.9760702 C84.5324912,34.6335439 83.4203509,33.5238596 82.0783158,33.5238596 C80.7362807,33.5238596 79.6241404,34.6335439 79.6241404,35.9760702 L79.6241404,35.9760702 Z M82.5002807,31.2627368 C82.5002807,32.0658947 83.1516491,32.7177544 83.9577544,32.7177544 C84.7628772,32.7177544 85.4162105,32.0658947 85.4162105,31.2627368 C85.4162105,30.4571228 84.7628772,29.8047719 83.9577544,29.8047719 C83.1516491,29.8047719 82.5002807,30.4571228 82.5002807,31.2627368 L82.5002807,31.2627368 Z M75.5665965,34.9400702 C75.5665965,35.7461754 76.2179649,36.3985263 77.0152281,36.3985263 C77.8213333,36.3985263 78.4727018,35.7461754 78.4727018,34.9400702 C78.4727018,34.1369123 77.8213333,33.4850526 77.0152281,33.4850526 C76.2179649,33.4850526 75.5665965,34.1369123 75.5665965,34.9400702 L75.5665965,34.9400702 Z M75.3740351,39.9211228 C75.3740351,41.2253333 76.4100351,42.258386 77.7049123,42.258386 C79.0091228,42.258386 80.0461053,41.2253333 80.0461053,39.9211228 C80.0461053,38.6193684 79.0091228,37.5848421 77.7049123,37.5848421 C76.4100351,37.5848421 75.3740351,38.6193684 75.3740351,39.9211228 L75.3740351,39.9211228 Z M70.5442807,42.3733333 C70.5442807,43.5630877 71.5390175,44.5573333 72.7282807,44.5573333 C73.9155789,44.5573333 74.9132632,43.5630877 74.9132632,42.3733333 C74.9132632,41.1870175 73.9155789,40.1898246 72.7282807,40.1898246 C71.5390175,40.1898246 70.5442807,41.1870175 70.5442807,42.3733333 L70.5442807,42.3733333 Z M71.8460351,36.9717895 C71.8460351,37.8137544 72.5367018,38.5044211 73.3781754,38.5044211 C74.2235789,38.5044211 74.9132632,37.8137544 74.9132632,36.9717895 C74.9132632,36.1298246 74.2235789,35.4391579 73.3781754,35.4391579 C72.5367018,35.4391579 71.8460351,36.1298246 71.8460351,36.9717895 L71.8460351,36.9717895 Z M85.3002807,48.7730526 C85.3002807,48.0072281 85.9909474,47.3558596 86.7489123,47.3558596 C87.5933333,47.3558596 88.2456842,48.0072281 88.2456842,48.7730526 C88.2456842,49.6543158 87.5933333,50.2688421 86.7489123,50.2688421 C85.9909474,50.2688421 85.3002807,49.6543158 85.3002807,48.7730526 L85.3002807,48.7730526 Z" id="Fill-10" sketch:type="MSShapeGroup"></path>
            <path d="M86.2881404,92.8425965 C86.481193,92.8425965 86.7105965,92.9565614 86.7105965,93.6482105 C86.7105965,94.4911579 86.3274386,95.6003509 84.9554386,96.481614 C83.9950877,97.1334737 82.6923509,97.6708772 80.7745965,97.7052632 C81.0806316,96.7886316 81.3105263,95.8297544 81.3105263,94.9141053 C81.3105263,94.6065965 81.273193,94.3762105 81.2348772,94.0318596 L81.7339649,94.0318596 C84.7628772,94.0318596 86.0675789,92.8425965 86.2881404,92.8425965 L86.2881404,92.8425965 Z M86.5961404,89.0488421 C86.9070877,88.7860351 86.9792982,88.3596491 86.9792982,87.937193 L86.9792982,87.0549474 C86.9792982,85.9432982 85.3002807,85.2948772 82.998386,85.2948772 C80.1988772,85.2948772 78.7030877,86.5558596 78.7030877,87.0937544 L78.7030877,88.8572632 C78.7030877,89.5862456 80.3914386,90.3152281 82.4619649,90.3152281 C84.1115088,90.3152281 85.6072982,89.8932632 86.5961404,89.0488421 L86.5961404,89.0488421 Z M88.5900351,89.4717895 C87.5933333,90.2390877 85.2614737,91.9598596 81.3876491,91.9598596 C79.3171228,91.9598596 78.3960702,91.3084912 78.0890526,91.3084912 C77.7049123,91.3084912 77.2829474,91.6916491 76.8619649,92.1907368 C75.9502456,93.2645614 74.7614737,95.2584561 74.7614737,97.44 C74.7614737,98.9731228 75.9502456,100.502316 78.1656842,100.502316 C85.3385965,100.502316 90.6998596,96.0208421 90.6998596,92.382807 C90.6998596,90.3152281 89.4737544,89.4717895 88.5900351,89.4717895 L88.5900351,89.4717895 Z" id="Fill-11" sketch:type="MSShapeGroup"></path>
            <path d="M89.9320702,57.2432982 C89.9320702,58.1997193 90.2400702,59.3118596 91.1984561,59.3118596 C92.0035789,59.3118596 92.6942456,58.0877193 92.6942456,56.745193 C92.6942456,55.2120702 92.4255439,54.0237895 92.4255439,53.4097544 C92.4255439,53.1430175 92.5409825,53.0280702 92.6942456,53.0280702 C93.2699649,53.066386 93.806386,54.6373333 94.4204211,54.6373333 C95.1110877,54.6373333 96.1387368,53.3709474 96.5597193,53.3709474 C96.6751579,53.3709474 96.7124912,53.5247018 96.7124912,53.5625263 C96.7124912,54.1382456 95.8307368,55.4046316 95.8307368,55.9012632 C95.8307368,56.3222456 98.0555088,56.3988772 98.0555088,56.7830175 C98.0555088,57.3582456 95.7241404,57.3582456 94.6124912,57.8568421 C93.5386667,58.3151579 92.8853333,58.890386 92.8853333,59.6576842 C92.8853333,60.424 93.6526316,60.5757895 94.7274386,60.5757895 C97.289193,60.5757895 99.0890526,59.1974035 99.6637895,59.1974035 C99.7787368,59.1974035 99.854386,59.2740351 99.854386,59.3889825 C99.854386,59.7721404 98.5516491,61.0365614 98.5516491,61.6112982 C98.5516491,62.2621754 100.930175,63.0270175 100.89186,63.4111579 C100.853544,63.525614 100.698807,63.5634386 100.431088,63.5634386 C100.00814,63.5634386 99.3577544,63.4494737 98.8576842,63.4494737 C98.5516491,63.4494737 98.2829474,63.4872982 98.1670175,63.6400702 C97.9022456,63.9480702 98.2446316,65.9783158 97.7101754,65.9783158 C97.2110877,65.9783158 95.9073684,61.4575439 92.9629474,61.4575439 C92.5409825,61.4575439 92.2349474,61.8018947 92.2349474,62.3771228 C92.2349474,63.9087719 93.7307368,65.6712982 95.1494035,66.5147368 C95.7924211,66.937193 96.8667368,67.3591579 96.8667368,67.5895439 C96.8667368,68.0473684 94.4204211,67.6273684 94.4204211,68.3927018 C94.4204211,69.0833684 94.7274386,70.1193684 94.7274386,70.7304561 C94.7274386,70.9225263 94.6891228,71.1514386 94.4587368,71.1514386 C93.9994386,71.1514386 92.8853333,69.0455439 92.3489123,69.0455439 C91.8891228,69.0455439 90.8924211,70.308 90.4684912,70.308 C90.3555088,70.308 90.278386,70.1935439 90.278386,70.0805614 C90.278386,69.1983158 91.6975439,67.2058947 91.6975439,65.2512982 C91.6975439,64.3312281 91.5825965,62.338807 90.4684912,62.338807 C89.5494035,62.338807 88.5129123,63.7943158 88.0526316,65.2512982 C87.7849123,66.0937544 87.9769825,69.3515789 87.3629474,69.3515789 C86.7872281,69.3515789 86.9404912,67.1670877 86.173193,67.1670877 C85.6072982,67.1670877 84.3797193,68.2006316 83.9577544,68.2006316 C83.8811228,68.2006316 83.8044912,68.1623158 83.8044912,68.0861754 C83.8044912,67.6273684 84.9161404,66.1315789 84.9161404,65.8255439 C84.9161404,65.2512982 82.3853333,65.1751579 82.3853333,64.7148772 C82.3853333,64.4461754 83.3820351,64.2550877 84.3021053,64.1008421 C86.250807,63.756 89.1274386,62.338807 89.1274386,60.3478596 C89.1274386,58.1255439 86.9792982,57.1661754 85.5684912,56.245614 C84.8395088,55.7858246 84.034386,55.4046316 84.034386,55.097614 C84.034386,54.7901053 84.9554386,54.7901053 85.3385965,54.7901053 C85.9133333,54.7901053 86.481193,54.7517895 86.481193,54.292 C86.481193,53.9461754 86.4035789,53.2584561 86.4035789,52.7215439 C86.4035789,52.3374035 86.4418947,52.030386 86.5961404,52.030386 C87.1708772,52.030386 87.9769825,53.9083509 88.3606316,53.9083509 C88.9736842,53.9083509 89.8171228,52.3762105 90.3938246,52.3762105 C90.5834386,52.3762105 90.6605614,52.4911579 90.6605614,52.836 C90.6605614,54.253193 89.9320702,55.8619649 89.9320702,57.2432982 L89.9320702,57.2432982 Z M71.6539649,46.0157895 C72.0764211,49.2716491 76.4483509,47.6245614 76.4483509,51.5701053 C76.4483509,52.1458246 76.2950877,52.9902456 76.2950877,53.7162807 C76.2950877,54.5607018 76.3717193,55.2887018 77.0152281,55.2887018 C77.6665965,55.2887018 77.8213333,54.8294035 77.8213333,54.2148772 C77.8213333,53.6013333 77.6665965,52.836 77.6665965,52.4150175 C77.6665965,51.072 78.6259649,50.7669474 79.2016842,50.7669474 C80.6591579,50.7669474 81.7712982,52.2612632 83.9577544,52.2612632 C83.4586667,54.7134737 78.3960702,54.061614 78.3960702,56.745193 C78.3960702,58.0877193 79.7381053,58.3917895 80.6208421,58.3917895 C81.4269474,58.3917895 81.6956491,58.2768421 81.6956491,57.5886316 C81.6956491,57.2044912 81.6175439,56.7830175 81.6175439,56.5143158 C81.6175439,56.3605614 81.7339649,56.2072982 81.9255439,56.2072982 C82.7699649,56.2072982 86.9021754,59.3501754 86.9021754,60.3095439 C86.9021754,61.1893333 82.5385965,62.0705965 81.273193,62.0705965 C80.8895439,62.0705965 80.8129123,61.8018947 80.8129123,61.649614 C80.8129123,61.3814035 81.4642807,60.5757895 81.4642807,60.1169825 C81.4642807,59.7721404 80.8895439,59.5422456 79.3544561,59.5422456 C78.6259649,59.5422456 78.0890526,59.6188772 78.0890526,60.1950877 C78.0890526,61.2276491 79.7774035,62.4925614 79.7774035,63.4494737 C79.7774035,64.2167719 79.3171228,64.6765614 78.0890526,64.6765614 C77.0535439,64.6765614 75.4889825,63.8704561 75.4889825,62.530386 C75.4889825,61.4575439 76.5942456,60.3861754 76.5942456,59.7343158 C76.5942456,59.5422456 76.4483509,59.2357193 75.9880702,59.2357193 C74.5689123,59.2357193 74.1847719,62.989193 69.1629474,63.4111579 C69.9680702,62.6841404 70.6572632,61.8785263 70.6572632,60.2329123 C70.6572632,59.4277895 70.4671579,58.7749474 70.4671579,57.8951579 C70.4671579,56.745193 71.0025965,56.1689825 71.7689123,56.1689825 C73.1861053,56.1689825 73.8762807,58.1614035 74.7992982,58.1614035 C75.2988772,58.1614035 75.8343158,57.7030877 75.8343158,57.0134035 C75.8343158,54.1004211 70.2367719,54.5218947 70.2367719,50.4221053 C70.2367719,49.3099649 70.6184561,47.9310877 71.6539649,46.0157895 L71.6539649,46.0157895 Z" id="Fill-12" sketch:type="MSShapeGroup"></path>
            <path d="M78.9334737,70.9225263 C78.9334737,71.4589474 79.3171228,71.8809123 79.8545263,71.8809123 C80.4675789,71.8809123 80.8522105,71.344 80.8522105,70.7304561 C80.8522105,69.9272982 80.1227368,68.8146667 79.4320702,68.8146667 C79.1240702,68.8146667 79.2404912,69.2749474 79.162386,69.7735439 C79.1240702,70.1552281 78.9334737,70.6150175 78.9334737,70.9225263 L78.9334737,70.9225263 Z M76.9395789,65.8255439 C80.9661754,66.5918596 83.1516491,69.6202807 83.1516491,72.4556491 C83.1516491,74.4112281 81.9255439,76.2086316 79.7774035,76.2086316 C77.8213333,76.2086316 76.4100351,74.8700351 76.4100351,72.7218947 C76.4100351,71.113614 77.6665965,69.4277193 77.6665965,67.7786667 C77.6665965,67.1287719 77.476,66.4769123 76.9395789,65.8255439 L76.9395789,65.8255439 Z M71.8460351,72.3416842 C72.2287018,72.7218947 72.3446316,73.1060351 72.3446316,73.4901754 C72.3446316,74.0649123 72.0764211,74.6784561 72.0764211,75.330807 C72.0764211,76.2469474 72.765614,77.0525614 73.7613333,77.0525614 C74.837614,77.0525614 75.5665965,76.2086316 75.5665965,75.2158596 C75.5665965,73.758386 74.0668772,72.3416842 71.8460351,72.3416842 L71.8460351,72.3416842 Z M84.5324912,69.8889825 C84.801193,70.308 84.9161404,70.7304561 84.9161404,71.113614 C84.9161404,72.1874386 84.1881404,73.1826667 84.1881404,74.294807 C84.1881404,75.5602105 85.1475088,76.5922807 86.5961404,76.5922807 C88.1685614,76.5922807 89.2433684,75.330807 89.2433684,73.8345263 C89.2433684,71.8042807 87.4022456,70.0805614 84.5324912,69.8889825 L84.5324912,69.8889825 Z M72.765614,67.8552982 C74.5305965,68.0861754 74.9535439,68.6992281 74.9535439,69.1983158 C74.9535439,70.0417544 74.1847719,70.308 73.4552982,70.308 C72.9193684,70.308 72.3063158,70.1935439 71.6539649,70.1935439 C70.8100351,70.1935439 69.9680702,70.385614 69.2778947,71.1907368 C69.776,71.2668772 70.5049825,71.6122105 70.5049825,72.3795088 C70.5049825,74.6018246 64.3341754,72.7607018 64.3341754,78.4722105 C64.3341754,81.4981754 67.4775439,84.7957895 72.2287018,84.7957895 C74.6838596,84.7957895 76.2562807,83.9906667 76.2562807,83.069614 C76.2562807,82.3421053 74.9535439,82.8402105 74.9535439,82.2266667 C74.9535439,81.9584561 75.4123509,81.458386 75.4123509,81.0364211 C75.4123509,80.8502456 75.2595789,80.5039298 74.9535439,80.5039298 C74.2618947,80.5039298 72.9581754,81.6126316 70.3129123,81.6126316 C68.2428772,81.6126316 66.2121404,80.4277895 66.2121404,78.8165614 C66.2121404,78.4722105 66.3658947,78.2796491 66.594807,78.2796491 C66.8256842,78.2796491 67.1322105,78.4338947 67.4004211,78.4338947 C67.630807,78.4338947 67.6691228,78.2796491 67.6691228,77.8581754 C67.6691228,77.4362105 67.6691228,76.2469474 68.3956491,76.2469474 C69.1246316,76.2469474 70.5049825,78.9315088 75.7969825,78.9315088 C77.5526316,78.9315088 80.9661754,78.5866667 82.2315789,77.4362105 C82.1932632,81.6514386 78.8946667,87.2072281 71.9992982,87.2072281 C64.8332632,87.2072281 61.001193,81.458386 61.001193,76.1703158 C61.001193,70.308 65.7896842,64.9835789 72.3446316,64.9835789 C74.0300351,64.9835789 75.4506667,65.5568421 75.4506667,66.2848421 C75.4506667,67.2830175 72.9581754,66.6689825 72.765614,67.8552982 L72.765614,67.8552982 Z" id="Fill-13" sketch:type="MSShapeGroup"></path>
            <path d="M47.9728421,24.0967018 C50.5016842,24.0967018 51.6506667,26.2807018 51.6506667,28.7334035 C51.6506667,29.8047719 51.3461053,31.3776842 50.8475088,31.3776842 C50.3489123,31.3776842 50.4255439,30.4959298 50.3489123,29.6898246 C50.2727719,28.6562807 50.0807018,28.426386 49.7353684,28.426386 C49.0830175,28.426386 48.6635088,29.9585263 48.6635088,31.3776842 C48.6635088,32.2574737 48.8167719,33.2546667 49.5049825,33.2546667 C49.8881404,33.2546667 50.2334737,33.0625965 50.4633684,32.833193 C50.3105965,34.5952281 49.006386,36.1298246 47.1677193,36.1298246 C43.7959298,36.1298246 42.5310175,32.1813333 42.1473684,29.882386 C40.1166316,32.0280702 38.2406316,33.6 34.8668772,33.6 C31.7259649,33.6 30.306807,31.3010526 30.306807,29.1170526 C30.306807,28.4642105 30.5376842,26.7792982 31.342807,26.7792982 C32.2997193,26.7792982 31.4577544,29.9202105 33.3347368,29.9202105 C33.7955088,29.9202105 34.6369825,29.5360702 35.0972632,28.273614 C35.3659649,27.5063158 35.5192281,26.7026667 35.5192281,26.012 C35.5192281,24.9764912 35.2893333,24.3270877 34.5244912,24.3270877 C33.8716491,24.3270877 33.0660351,24.8232281 32.7978246,25.0919298 C33.7188772,22.3322105 35.941193,20.9150175 38.3919298,20.9150175 C41.4208421,20.9150175 43.0291228,23.5981053 43.0291228,26.5872281 C43.0291228,27.0077193 42.9903158,27.468 42.9141754,27.8894737 C44.2164211,25.7432982 46.0192281,24.0967018 47.9728421,24.0967018 L47.9728421,24.0967018 Z M45.0215439,28.6184561 C45.0215439,27.9661053 44.8677895,27.8128421 44.7145263,27.8128421 C44.3313684,27.8128421 43.9113684,28.273614 43.2978246,29.3086316 C43.3744561,30.6875088 43.6053333,31.3010526 43.9875088,31.3010526 C44.408,31.3010526 45.0215439,29.9585263 45.0215439,28.6184561 L45.0215439,28.6184561 Z M39.7703158,30.1889123 C40.1927719,30.1889123 40.7301754,29.7286316 41.7273684,28.6184561 C41.804,28.1198596 41.804,27.6590877 41.804,27.0838596 C41.804,26.3190175 41.4969825,25.4755789 41.037193,25.4755789 C39.8862456,25.4755789 39.3129825,28.5418246 39.3129825,29.3474386 C39.3129825,29.8047719 39.5414035,30.1889123 39.7703158,30.1889123 L39.7703158,30.1889123 Z M46.0192281,33.6 C46.9756491,33.6 48.0494737,29.9202105 48.0494737,27.6212632 C48.0494737,27.1216842 47.9728421,26.5872281 47.7424561,26.5872281 C46.9373333,26.5872281 45.5967719,30.3804912 45.5967719,32.4495439 C45.5967719,33.2546667 45.7888421,33.6 46.0192281,33.6 L46.0192281,33.6 Z M36.6318596,31.4931228 C37.933614,31.4931228 39.4259649,24.4415439 39.4259649,23.2527719 C39.4259649,22.9457544 39.3129825,22.7158596 39.0447719,22.7158596 C37.8569825,22.7158596 36.2098947,29.4221053 36.2098947,30.9174035 C36.2098947,31.185614 36.2860351,31.4931228 36.6318596,31.4931228 L36.6318596,31.4931228 Z" id="Fill-14" sketch:type="MSShapeGroup"></path>
            <path d="M40.8063158,34.4031579 C39.1592281,34.4031579 39.0830877,36.3985263 39.0830877,40.4197193 C37.8569825,37.7764211 35.8262456,34.9400702 33.4501754,34.9400702 C31.8414035,34.9400702 31.2278596,36.014386 31.2278596,37.8898947 C31.2278596,38.2740351 31.2661754,38.8497544 31.342807,39.1921404 C31.534386,38.5427368 32.1484211,38.2740351 32.9132632,38.2740351 C34.5623158,38.2740351 36.5547368,39.5374737 37.8569825,41.2636491 C36.3626667,40.9954386 34.905193,40.7267368 33.6810526,40.7267368 C32.9132632,40.7267368 32.2235789,40.8033684 31.6493333,41.0715789 C30.5376842,41.5682105 29.0428772,43.2172632 29.0428772,45.7087719 C29.0428772,46.0924211 29.0821754,46.5119298 29.1583158,46.9722105 C30.4988772,43.9825965 34.0632281,42.6420351 36.3626667,42.6420351 C36.8234386,42.6420351 37.166807,42.6808421 37.4350175,42.7191579 C36.2477193,43.7905263 35.9795088,45.6699649 35.902386,46.9338947 C35.8645614,47.5474386 35.6341754,47.5862456 35.2122105,47.5862456 C35.2122105,48.849193 36.2098947,50.7286316 36.2098947,51.6855439 C36.2098947,52.030386 36.0178246,52.3374035 35.8262456,52.4150175 C35.8262456,54.1004211 37.5116491,55.3270175 37.5116491,56.3988772 C37.5116491,56.6670877 37.4350175,56.8974737 37.3200702,57.0134035 C37.4350175,57.7030877 39.2894035,58.8638596 39.5291228,59.4444912 C39.8233684,60.1518596 40.1549474,60.2712281 40.3470175,60.2712281 C40.998386,60.2712281 42.0319298,59.5034386 42.0319298,58.8132632 C42.0319298,58.5833684 41.8403509,58.3151579 41.6890526,58.1997193 C40.9600702,57.6652632 40.5764211,56.5143158 40.2698947,55.7489825 C40.0007018,55.7489825 39.6538947,55.636 39.5330526,55.1845614 C39.322807,54.3912281 39.3129825,52.9126316 39.0059649,52.030386 C38.5078596,51.9164211 38.2769825,51.7243509 38.2769825,50.690807 C38.2769825,50.1917193 38.5844912,48.237614 38.5844912,47.5474386 C38.3541053,47.5474386 38.0490526,47.3941754 38.0490526,46.9338947 C38.0490526,45.7087719 39.2751579,44.7498947 39.6180351,43.1794386 C41.804,44.7877193 42.3389474,46.434807 42.3389474,47.8932632 C42.3389474,48.657614 42.224,49.3865965 42.0707368,50.0772632 C43.6809825,49.2716491 46.0953684,48.0843509 46.0953684,45.6699649 C46.0953684,44.250807 45.444,42.6808421 41.1133333,42.066807 C42.4534035,41.5682105 44.1412632,41.3019649 45.5584561,41.3019649 C48.0106667,41.3019649 49.4283509,42.066807 49.7353684,43.7905263 C50.2334737,43.0261754 50.617614,42.1434386 50.617614,41.3397895 C50.617614,39.4608421 49.0447018,38.2357193 47.0527719,38.2357193 C44.7145263,38.2357193 42.6459649,39.4608421 40.4236491,40.9566316 C41.4208421,38.8875789 42.1085614,37.6619649 43.3366316,37.6619649 C43.5277193,37.6619649 43.7197895,37.7007719 43.9113684,37.7385965 C43.4510877,36.053193 41.7273684,34.4031579 40.8063158,34.4031579" id="Fill-15" sketch:type="MSShapeGroup"></path>
            <path d="M105.371368,62.0312982 C107.28814,62.0312982 108.822246,64.522807 108.822246,67.4357895 C108.822246,70.5378947 107.365263,73.9111579 104.765684,76.2086316 C104.727368,71.0369825 98.3974035,72.6845614 98.3974035,68.929614 C98.3974035,67.3208421 99.5483509,66.2465263 100.930175,66.2465263 C102.157263,66.2465263 103.115649,66.5918596 103.806316,67.2830175 C103.115649,66.6306667 102.770316,65.7101053 102.770316,64.8298246 C102.770316,63.3718596 103.691368,62.0312982 105.371368,62.0312982" id="Fill-16" sketch:type="MSShapeGroup"></path>
            <path d="M76.9395789,22.830807 C76.6325614,22.3322105 75.4889825,22.0654737 74.9535439,22.0654737 C73.2632281,22.0654737 72.1147368,23.2527719 71.8838596,24.3270877 C71.7310877,23.9429474 71.6151579,23.4831579 71.6151579,23.022386 C71.6151579,21.3374737 72.765614,19.2684211 75.5665965,19.2684211 C78.0134035,19.2684211 78.970807,20.5701754 79.3171228,20.5701754 C79.6997895,20.5701754 80.0834386,20.1865263 80.3914386,20.1865263 C80.8129123,20.1865263 80.8129123,20.838386 80.8129123,21.2991579 C80.8129123,22.830807 80.1227368,25.4755789 78.3960702,26.4344561 C78.0890526,25.781614 77.476,25.053614 76.4856842,24.594807 C76.2179649,24.4803509 76.1030175,24.2504561 76.1030175,24.0200702 C76.1030175,23.5981053 76.4856842,23.0607018 76.9395789,22.830807 L76.9395789,22.830807 Z M71.1548772,25.6288421 C72.1525614,26.5872281 73.0318596,27.0077193 74.1066667,27.0077193 C74.5305965,27.0077193 75.029193,26.8937544 75.2988772,26.8937544 C75.6422456,26.8937544 75.8726316,27.0460351 75.8726316,27.3142456 C75.8726316,27.7362105 75.4889825,28.426386 75.029193,28.8100351 C75.4889825,29.001614 75.9880702,29.0787368 76.5249825,29.0787368 C78.7030877,29.0787368 81.1955789,27.6974035 81.1955789,24.2504561 C81.6563509,24.8615439 81.9255439,26.1274386 81.9255439,26.7026667 C81.9255439,30.8790877 78.8563509,32.4878596 76.0268772,32.4878596 C74.1847719,32.4878596 73.2632281,31.8743158 73.0318596,31.8743158 C72.3063158,31.8743158 72.3446316,33.3312982 71.8460351,33.2934737 C70.9632982,33.1402105 70.1606316,31.185614 70.1606316,29.1170526 C70.1606316,27.8894737 70.4671579,26.5872281 71.1548772,25.6288421 L71.1548772,25.6288421 Z" id="Fill-17" sketch:type="MSShapeGroup"></path>
            <path d="M38.3541053,1.25754386 C38.3541053,1.02715789 37.2051228,0.79677193 35.6341754,0.79677193 C33.1436491,0.79677193 33.4884912,2.8682807 31.573193,2.8682807 C29.5797895,2.8682807 30.0769123,0.720140351 27.5480702,0.720140351 C26.0154386,0.720140351 24.5987368,0.988842105 24.5987368,1.33368421 C24.5987368,1.79396491 26.3990877,1.60189474 26.3990877,2.8682807 C26.3990877,4.20835088 22.5296842,4.592 22.5296842,5.39663158 C22.5296842,5.66336842 22.8337544,5.77929825 23.2178947,5.77929825 C24.0613333,5.77929825 25.4018947,5.39663158 26.3607719,5.39663158 C26.897193,5.39663158 27.3962807,5.51010526 27.3962807,6.00919298 C27.3962807,6.96757895 25.3257544,8.69178947 25.3257544,9.45810526 C25.3257544,9.68898246 25.5168421,9.76610526 25.7084211,9.76610526 C26.4757193,9.76610526 27.7779649,7.81101754 29.0045614,7.81101754 C31.0357895,7.81101754 29.6957193,12.141193 30.8054035,12.141193 C31.9563509,12.141193 31.4577544,7.88617544 33.1048421,7.88617544 C34.4478596,7.88617544 35.4425965,10.8374737 36.3626667,10.8374737 C36.5935439,10.8374737 36.7846316,10.6458947 36.7846316,10.377193 C36.7846316,9.57403509 35.6341754,7.92498246 35.6341754,6.85263158 C35.6341754,6.20077193 36.0949474,5.89375439 36.708,5.89375439 C37.5882807,5.89375439 38.7765614,6.43017544 39.4259649,6.43017544 C39.6563509,6.43017544 39.8862456,6.35403509 39.8862456,6.08582456 C39.8862456,5.16673684 36.4781053,4.17052632 36.4781053,2.98273684 C36.4781053,1.79396491 38.3541053,1.79396491 38.3541053,1.25754386 L38.3541053,1.25754386 Z M47.3592982,5.16673684 C47.3592982,5.8554386 49.7736842,7.35122807 50.8858246,7.35122807 C51.5357193,7.35122807 51.7277895,6.46898246 51.7277895,5.54842105 C51.7277895,4.40042105 51.2311579,4.36161404 50.2334737,4.36161404 C48.9700351,4.36161404 47.3592982,4.70694737 47.3592982,5.16673684 L47.3592982,5.16673684 Z M51.3461053,12.7532632 C51.3461053,10.4538246 45.1281404,6.27740351 45.0603509,4.47705263 C45.0534737,4.31249123 45.1428772,4.14842105 45.282386,4.00154386 C46.3473684,2.87908772 50.770386,2.06021053 50.770386,1.10329825 C50.770386,0.606175439 49.8503158,0.606175439 49.3890526,0.606175439 C45.8271579,0.606175439 40.6152281,1.90891228 40.6152281,3.17235088 C40.6152281,4.47705263 45.2902456,7.65824561 45.2902456,9.22870175 C45.2902456,9.65066667 45.0215439,9.80392982 44.5990877,9.80392982 C43.2978246,9.80392982 40.4614737,8.23150877 39.1214035,8.23150877 C38.5078596,8.23150877 38.2769825,8.65298246 38.2769825,9.26750877 C38.2769825,11.1061754 40.4614737,14.5934035 40.4614737,15.6259649 C40.4614737,15.7409123 40.4236491,15.8946667 40.2698947,15.8946667 C39.5792281,15.8946667 36.3248421,12.0645614 35.1738947,12.0645614 C34.7524211,12.0645614 34.7141053,12.6383158 34.7141053,13.4817544 L34.7141053,14.7844912 C34.7141053,15.6652632 34.674807,16.2016842 34.2557895,16.2016842 C33.2585965,16.2016842 32.7978246,13.4051228 31.8414035,13.4051228 C30.8442105,13.4051228 30.6521404,18.3861754 29.6957193,18.3861754 C28.5835789,18.3861754 29.5419649,12.9060351 28.4681404,12.9060351 C27.2813333,12.9060351 25.938807,16.5470175 25.0953684,16.5470175 C24.7903158,16.5470175 24.7136842,16.24 24.7136842,15.9717895 C24.7136842,14.8611228 25.3635789,13.0597895 25.3635789,11.9884211 C25.3635789,11.4510175 25.2098246,11.1444912 24.7515088,11.1444912 C23.5627368,11.1444912 20.9567719,13.0597895 19.9615439,13.0597895 C19.8082807,13.0597895 19.6167018,12.9836491 19.6167018,12.8298947 C19.6167018,11.9117895 23.7931228,8.99880702 23.7931228,7.69705263 C23.7931228,6.43017544 18.0432982,7.27508772 18.0432982,5.81712281 C18.0432982,4.592 22.1460351,3.32659649 22.1460351,2.06266667 C22.1460351,0.950526316 17.2789474,0.453894737 15.4019649,0.453894737 C13.1398596,0.453894737 11.9147368,0.720140351 11.9147368,1.372 C11.9147368,2.36919298 17.0495439,2.67621053 17.0495439,3.556 C17.0495439,4.40042105 11.7231579,6.6605614 11.7231579,7.96280702 C11.7231579,9.11326316 19.2330526,8.0394386 19.2330526,9.22870175 C19.2330526,10.5304561 12.6815439,16.1628772 12.6815439,18.0403509 C12.6815439,18.4623158 12.9890526,18.654386 13.4085614,18.654386 C15.4019649,18.654386 20.5731228,14.8611228 21.9922807,14.8611228 C22.4908772,14.8611228 22.5296842,15.4727018 22.5296842,16.0101053 C22.5296842,17.0077895 22.1848421,18.5389474 22.1848421,19.6510877 C22.1848421,20.5313684 22.4142456,21.1449123 23.1795789,21.1449123 C24.5987368,21.1449123 25.9004912,18.7305263 26.8593684,18.7305263 C28.0844912,18.7305263 27.3574737,25.8204211 29.1971228,25.8204211 C30.7670877,25.8204211 31.4189474,18.1557895 32.4146667,18.1557895 C33.4118596,18.1557895 34.2179649,20.3781053 35.1355789,20.3781053 C36.2860351,20.3781053 35.7491228,16.5087018 36.9767018,16.5087018 C38.3157895,16.5087018 42.1473684,21.1070877 43.8730526,21.1070877 C44.408,21.1070877 44.5990877,20.6846316 44.5990877,20.1477193 C44.5990877,18.1169825 41.7656842,13.5205614 41.7656842,12.0645614 C41.7656842,11.6814035 41.8781754,11.5659649 42.3001404,11.5659649 C43.7959298,11.5659649 48.1649123,13.6350175 50.2334737,13.6350175 C50.9241404,13.6350175 51.3461053,13.2518596 51.3461053,12.7532632 L51.3461053,12.7532632 Z M16.3578947,10.5304561 C16.3578947,11.2977544 13.4468772,13.8639298 12.4133333,13.8639298 C12.0301754,13.8639298 11.9147368,13.4051228 11.9147368,12.9836491 C11.9147368,12.218807 12.2600702,11.1444912 12.6815439,10.7986667 C13.1781754,10.3388772 14.3281404,10.1109474 15.2098947,10.1109474 C15.7443509,10.1109474 16.3578947,10.2244211 16.3578947,10.5304561 L16.3578947,10.5304561 Z M44.5234386,14.4779649 C44.5234386,15.8180351 49.3129123,22.3715088 50.2334737,22.3715088 C51.0007719,22.3715088 51.5735439,21.0304561 51.5735439,19.8795088 C51.5735439,19.5749474 51.4974035,19.2684211 51.3461053,19.0375439 C50.6554386,18.0791579 45.7888421,14.2470877 44.7145263,14.2470877 C44.5990877,14.2470877 44.5234386,14.3630175 44.5234386,14.4779649 L44.5234386,14.4779649 Z" id="Fill-18" sketch:type="MSShapeGroup"></path>
            <path d="M106.061053,2.8682807 C106.061053,3.40273684 106.482526,3.82421053 107.019439,3.82421053 C107.556842,3.82421053 107.979298,3.40273684 107.979298,2.8682807 C107.979298,2.33087719 107.556842,1.90891228 107.019439,1.90891228 C106.482526,1.90891228 106.061053,2.33087719 106.061053,2.8682807 L106.061053,2.8682807 Z M99.8170526,11.3355789 C99.8170526,8.61515789 93.3072982,7.92498246 93.3072982,7.31242105 C93.3072982,6.81480702 96.9438596,5.97038596 98.8203509,5.93207018 C95.9466667,2.25424561 91.850807,2.63789474 91.850807,1.98652632 C91.850807,1.60189474 94.9185263,0.835087719 97.7494737,0.835087719 C100.12407,0.835087719 102.348351,1.372 102.348351,3.17235088 C102.348351,4.17052632 101.543228,5.20603509 101.543228,6.73719298 C101.543228,7.58112281 101.963228,8.30814035 103.077333,8.30814035 C104.267088,8.30814035 104.534807,7.04421053 104.534807,5.70168421 C104.534807,4.592 104.342737,3.74757895 104.342737,3.21115789 C104.342737,1.60189474 105.447018,0.530526316 107.019439,0.530526316 C108.323649,0.530526316 108.630667,1.10329825 110.548421,1.10329825 C109.512421,1.71782456 109.129263,2.82996491 109.129263,3.36491228 C109.129263,4.97564912 110.165754,6.08582456 110.165754,9.38245614 C110.165754,15.434386 104.496491,17.5805614 97.5569123,17.5805614 C95.6484912,17.5805614 93.6143158,17.4272982 91.6199298,17.1222456 C91.3138947,17.0839298 91.2367719,17.0077895 91.2367719,16.8157193 C91.2367719,16.3166316 93.9606316,16.0479298 93.9606316,13.597193 C93.9606316,12.6383158 93.6526316,11.7197193 93.6526316,11.3748772 C93.6526316,11.1832982 93.806386,11.0673684 93.9606316,11.0673684 C94.5353684,11.0673684 95.686807,13.2901754 97.8265965,13.2901754 C98.3974035,13.2901754 99.8170526,13.0985965 99.8170526,11.3355789 L99.8170526,11.3355789 Z M106.290456,7.46666667 C106.290456,10.8762807 103.806316,13.4817544 99.3174737,14.2092632 C99.8170526,14.2470877 100.277825,14.2470877 100.738105,14.2470877 C105.983439,14.2470877 107.902175,11.8724912 107.902175,9.88105263 C107.902175,8.76891228 107.28814,7.77319298 106.290456,7.46666667 L106.290456,7.46666667 Z" id="Fill-19" sketch:type="MSShapeGroup"></path>
            <path d="M103.653053,56.8591579 C104.267088,54.9438596 105.034386,53.6013333 106.290456,51.5322807 C105.034386,50.882386 101.696491,49.5015439 101.696491,47.2409123 C101.696491,44.5961404 104.994105,42.5275789 105.677404,42.5275789 C105.983439,42.5275789 106.061053,42.7957895 106.061053,43.294386 C106.061053,44.6732632 105.408702,46.8955789 105.408702,48.0843509 C105.408702,49.1562105 106.099368,50.1917193 106.712421,50.1917193 C107.365263,50.1917193 109.166596,47.8932632 109.166596,45.6316491 C109.166596,41.5682105 105.600772,40.3430877 104.496491,40.3430877 C103.460982,40.3430877 101.581544,42.0284912 97.1727719,42.0284912 C88.9363509,42.0284912 87.0569123,33.8687018 87.0569123,30.3038596 C87.0569123,30.1505965 87.0942456,30.1117895 87.1325614,30.1117895 C87.3246316,30.1117895 88.1302456,31.1094737 90.7381754,31.1094737 C92.0802105,31.1094737 93.3072982,30.7641404 95.2638596,30.7641404 C99.854386,30.7641404 101.888561,33.9458246 104.727368,38.0058246 C106.444211,39.0776842 110.548421,40.8033684 110.548421,45.6699649 C110.548421,49.9613333 105.983439,52.3374035 104.88014,56.9357895 C106.635789,56.745193 107.672281,53.6013333 109.473614,53.6013333 C110.394667,53.6013333 110.817123,54.3303158 110.817123,55.4807719 C110.817123,57.1661754 109.857754,59.696 108.016632,61.2664561 C108.054947,61.1127018 108.054947,60.9211228 108.054947,60.6907368 C108.054947,59.6188772 107.633474,58.0877193 106.405404,58.0877193 C104.496491,58.0877193 103.882456,60.1557895 102.808632,61.8785263 C101.696491,57.9717895 100.201193,54.4452632 97.5190877,52.2990877 C94.8050526,50.1155789 90.1241404,51.3018947 90.1241404,47.3175439 C90.1241404,46.2437193 90.814807,44.7115789 90.814807,43.4854737 C90.814807,43.0644912 90.7381754,42.6808421 90.506807,42.3733333 C94.1900351,43.7546667 92.8853333,46.2049123 95.1494035,48.7342456 C96.5597193,50.3454737 100.469404,51.877614 102.732982,58.5067368 C102.770316,58.3151579 102.808632,57.8185263 102.808632,57.473193 C102.808632,51.8009825 95.3021754,46.2437193 94.650807,43.9437895 C99.0114386,44.4428772 99.7787368,45.517193 101.850246,51.2635789 C102.271228,52.4533333 103.653053,55.4046316 103.653053,56.8591579 L103.653053,56.8591579 Z M102.656351,38.2740351 C102.656351,37.4698947 100.622175,37.3937544 100.431088,35.1321404 C100.391789,34.7872982 100.277825,34.1757193 99.854386,34.1757193 C99.1647018,34.1757193 99.7011228,36.2825965 98.9343158,36.2825965 C97.1727719,36.2825965 96.5980351,32.833193 95.9466667,32.833193 C95.7924211,32.833193 95.609193,32.9481404 95.609193,33.4084211 C95.609193,33.830386 95.686807,34.0985965 95.686807,34.5952281 C95.686807,35.0938246 95.5708772,35.4391579 95.1110877,35.4391579 C94.0750877,35.4391579 93.1550175,33.0247719 92.2722807,33.0247719 C92.0802105,33.0247719 91.8891228,33.1402105 91.8891228,33.3312982 C91.8891228,33.7920702 92.6559298,34.6335439 92.6559298,35.056 C92.6559298,35.9760702 90.1634386,35.4774737 90.1634386,36.2442807 C90.1634386,36.5891228 90.506807,36.7030877 90.9675789,36.7030877 C91.7741754,36.7030877 93.0395789,36.3602105 93.6914386,36.3602105 C94.0750877,36.3602105 94.650807,36.4363509 94.650807,36.9329825 C94.650807,37.4698947 93.2699649,38.1585965 93.2699649,38.657193 C93.2699649,38.8875789 93.5003509,39.0010526 93.6914386,39.0010526 C94.7274386,39.0010526 96.5597193,37.2016842 97.8639298,37.2016842 C98.0933333,37.2016842 98.6665965,37.3166316 98.6665965,37.6619649 C98.6665965,38.1585965 97.3648421,39.0388772 97.3648421,39.7673684 C97.3648421,39.9594386 97.4807719,40.1898246 97.7101754,40.1898246 C98.3974035,40.1898246 99.3174737,38.3889825 100.622175,38.3889825 C101.121263,38.3889825 101.850246,38.5810526 102.233895,38.5810526 C102.540912,38.5810526 102.656351,38.3889825 102.656351,38.2740351 L102.656351,38.2740351 Z" id="Fill-20" sketch:type="MSShapeGroup"></path>
            <path d="M74.1066667,15.3189474 C74.7221754,15.3189474 74.837614,16.8157193 74.9535439,17.6955088 C75.029193,18.1557895 75.1058246,18.1941053 75.2988772,18.1941053 C75.7596491,18.1941053 76.4856842,16.4315789 76.9778947,16.4315789 C77.7049123,16.4315789 79.6624561,18.4623158 82.9217544,18.4623158 C87.5555088,18.4623158 91.9279298,15.2044912 91.9279298,9.45810526 C91.9279298,3.90182456 88.0143158,0.644491228 82.6147368,0.644491228 C80.0461053,0.644491228 78.1656842,1.90891228 77.168,1.90891228 C76.5632982,1.94673684 75.6422456,0.415578947 75.1819649,0.415578947 C74.9908772,0.415578947 74.7992982,0.79677193 74.7992982,1.44912281 C74.7992982,1.87108772 74.7992982,3.21115789 74.3385263,3.21115789 C73.416,3.21115789 69.853614,0.568842105 69.853614,1.52575439 C69.853614,2.40750877 72.2287018,5.09059649 72.2287018,5.77929825 C72.2287018,6.46898246 69.8914386,7.12133333 69.8914386,7.58112281 C69.8914386,8.42308772 72.3824561,8.57635088 72.3824561,9.65066667 C72.3824561,10.7220351 69.776,11.5659649 69.776,12.3715789 C69.776,13.0214737 72.3824561,12.5631579 72.3824561,13.366807 C72.3824561,14.1709474 70.4671579,16.8535439 70.4671579,17.618386 C70.4671579,17.8109474 70.5049825,17.8109474 70.6572632,17.8109474 C71.3852632,17.8109474 73.5692632,15.3189474 74.1066667,15.3189474 L74.1066667,15.3189474 Z M75.2212632,9.03663158 C75.2212632,8.61515789 73.7235088,7.81101754 73.7235088,7.35122807 C73.7235088,7.27508772 73.7996491,7.2362807 73.9155789,7.2362807 C74.3385263,7.2362807 75.0670175,7.39003509 75.6422456,7.39003509 C76.1423158,7.39003509 76.2179649,5.24385965 76.5942456,5.24385965 C76.8619649,5.24385965 77.3212632,7.27508772 77.7456842,7.27508772 C78.2432982,7.27508772 79.162386,6.69936842 79.5470175,6.69936842 C79.6241404,6.69936842 79.6997895,6.73719298 79.6997895,6.81480702 C79.6997895,7.08301754 78.7414035,8.11607018 78.7414035,8.42308772 C78.7414035,8.76891228 80.8895439,9.18989474 80.8895439,9.49740351 C80.8895439,9.88105263 78.7030877,9.84273684 78.7030877,10.1870877 C78.7030877,10.4538246 79.5087018,11.5276491 79.5087018,11.8724912 C79.5087018,11.949614 79.4694035,11.9884211 79.3937544,11.9884211 C79.0867368,11.9884211 77.8979649,11.4510175 77.5526316,11.4510175 C77.1306667,11.4510175 76.4483509,13.0214737 76.1030175,13.0214737 C75.9880702,13.0214737 75.9119298,12.8682105 75.9119298,12.6761404 L75.8343158,11.1444912 C75.8343158,10.9912281 75.7596491,10.8374737 75.5665965,10.8374737 C75.1058246,10.8374737 74.2235789,10.7986667 73.9534035,10.7986667 C73.7613333,10.7986667 73.685193,10.7608421 73.685193,10.6842105 C73.685193,10.377193 75.2212632,9.30533333 75.2212632,9.03663158 L75.2212632,9.03663158 Z M82.6923509,16.3166316 C80.006807,16.3166316 78.2432982,14.9765614 78.2432982,14.2854035 C78.2432982,13.9405614 78.4727018,13.7121404 78.7807018,13.7121404 C79.6241404,13.7121404 81.4642807,15.0129123 82.0783158,15.0129123 C82.2315789,15.0129123 82.3470175,14.9382456 82.3470175,14.7078596 C82.3470175,14.017193 81.6956491,12.8682105 81.6956491,12.2949474 C81.6956491,12.141193 81.8105965,12.0267368 82.0409825,12.0267368 C83.0750175,12.0267368 84.6101053,12.4487018 85.4162105,12.4487018 C85.6839298,12.4487018 85.7595789,12.2949474 85.7595789,12.141193 C85.7595789,11.2977544 83.2670877,9.65066667 83.2670877,9.15157895 C83.2670877,8.69178947 86.3657544,8.00112281 86.3657544,7.27508772 C86.3657544,6.50729825 82.1539649,7.04421053 82.1539649,6.3157193 C82.1539649,5.77929825 82.9600702,4.86021053 82.9600702,4.43873684 C82.9600702,4.24666667 82.8063158,4.17052632 82.5385965,4.17052632 C82.1932632,4.17052632 80.3521404,4.89852632 79.5858246,4.89852632 C79.2016842,4.89852632 78.7414035,4.82189474 78.7414035,4.28498246 C78.7414035,3.40273684 80.237193,2.44582456 82.5774035,2.44582456 C86.3657544,2.44582456 88.6293333,5.0522807 88.6293333,9.4202807 C88.6293333,14.9382456 84.7628772,16.3166316 82.6923509,16.3166316 L82.6923509,16.3166316 Z" id="Fill-21" sketch:type="MSShapeGroup"></path>
            <path d="M56.7481404,82.6098246 C56.7481404,82.9551579 56.6327018,83.3392982 56.3256842,83.7224561 C55.9061754,82.9551579 54.7169123,82.5710175 54.1795088,82.572 C50.2334737,82.572 51.7277895,88.2825263 47.5120702,88.2825263 C45.7505263,88.2825263 45.5967719,88.0521404 44.9454035,88.0521404 C44.6762105,88.0521404 44.5234386,88.1675789 44.5234386,88.3974737 C44.5234386,89.3946667 45.941614,91.8454035 49.8881404,91.8454035 C53.8351579,91.8454035 57.630386,89.4334737 57.630386,86.4409123 C57.630386,85.9432982 57.5149474,85.4098246 57.2850526,84.8729123 C57.4383158,84.6435088 57.8224561,84.4887719 58.1672982,84.4887719 C58.778386,84.4887719 59.1242105,85.1809123 59.6989474,85.1809123 C60.3129825,85.1809123 60.7732632,84.7201404 60.7732632,84.1065965 C60.7732632,83.6075088 60.5045614,83.2626667 60.0442807,83.0312982 C60.3512982,82.8018947 60.581193,82.4177544 60.581193,81.9967719 C60.581193,81.3444211 60.1209123,80.734807 59.3541053,80.734807 C59.0082807,80.734807 58.778386,80.8502456 58.5116491,81.1140351 C58.4355088,80.4277895 58.0518596,79.7754386 57.3233684,79.7754386 C56.7481404,79.7754386 56.3256842,80.1974035 56.3256842,80.8502456 C56.3256842,81.458386 56.7481404,81.9584561 56.7481404,82.6098246" id="Fill-22" sketch:type="MSShapeGroup"></path>
            <path d="M46.4407018,84.0677895 C45.2902456,84.0677895 43.5665263,82.8402105 43.5665263,82.1490526 C43.5665263,81.5743158 44.1034386,81.2677895 44.5234386,81.2677895 C45.4823158,81.2677895 47.2055439,82.4565614 47.2055439,83.4532632 C47.2055439,83.7224561 47.0134737,84.0677895 46.4407018,84.0677895 L46.4407018,84.0677895 Z M35.7491228,75.4850526 C38.8148772,76.2474386 40.3470175,77.896 40.6535439,79.8525614 C40.9600702,81.7275789 41.3432281,83.2626667 42.0707368,84.0289825 C43.0291228,85.1032982 44.9065965,86.0577544 46.5556491,86.0577544 C47.9350175,86.0577544 49.0447018,85.6018947 49.0447018,84.3364912 C49.0447018,82.9551579 47.1677193,79.8525614 44.408,79.8525614 C44.1412632,79.8525614 43.7959298,79.8918596 43.4127719,79.8918596 C43.0674386,79.8918596 42.5693333,79.8142456 42.2623158,79.5465263 C41.6502456,79.0086316 41.4586667,76.1339649 40.3077193,74.4112281 C39.0447719,72.4949474 37.6654035,71.9570526 35.7879298,71.9570526 C34.4478596,71.9570526 32.9515789,72.6845614 32.9515789,73.758386 C32.9515789,74.4112281 33.2964211,74.8700351 35.7491228,75.4850526 L35.7491228,75.4850526 Z" id="Fill-23" sketch:type="MSShapeGroup"></path>
            <path d="M54.985614,70.8065965 C54.985614,69.0833684 51.4207719,69.0455439 51.4207719,66.4385965 C51.4207719,65.7862456 51.8422456,64.6765614 52.6866667,63.4872982 C53.032,65.4792281 53.8351579,66.5147368 55.5608421,67.1670877 C58.9699649,68.4310175 59.4307368,70.3463158 59.4307368,72.3795088 C59.4307368,75.8294035 57.0168421,80.1207719 50.8096842,80.1207719 C45.8271579,80.1207719 42.2623158,75.6756491 42.2623158,71.9192281 C42.2623158,70.8832281 42.5310175,69.7352281 43.182386,69.7352281 C43.7581053,69.7352281 43.9496842,70.1935439 44.408,70.6538246 C46.1341754,72.3795088 48.0106667,72.8378246 50.7320702,72.8378246 C53.1847719,72.8378246 54.985614,71.8421053 54.985614,70.8065965 L54.985614,70.8065965 Z M55.1393684,73.5663158 C53.8243509,74.1680702 53.3002105,74.0649123 53.3002105,75.4079298 C53.3002105,75.9055439 53.1847719,76.5539649 53.1847719,76.8992982 C53.1847719,77.3590877 53.2618947,77.6282807 53.7973333,77.6282807 C55.1776842,77.6282807 57.361193,75.292 57.361193,73.2981053 C57.361193,72.7607018 57.0546667,72.5337544 56.7093333,72.5337544 C56.4023158,72.5337544 56.0599298,73.1448421 55.1393684,73.5663158 L55.1393684,73.5663158 Z M42.9141754,54.2153684 C42.9141754,51.7626667 48.7401404,50.4604211 48.7401404,47.4324912 C48.7401404,46.9338947 48.5480702,46.0541053 48.2027368,45.4012632 C50.2334737,46.5119298 51.7277895,48.3918596 51.7277895,49.9230175 C51.7277895,52.5677895 48.9700351,53.7934035 48.9700351,55.4424561 C48.9700351,57.3582456 51.9193684,57.6652632 51.9193684,60.0408421 C51.9193684,61.9934737 49.1218246,64.2550877 49.1218246,66.7839298 C49.1218246,68.7375439 50.5016842,70.3463158 52.6095439,70.6150175 C51.9193684,70.7687719 51.3072982,70.8832281 50.6554386,70.8832281 C46.7840702,70.8832281 42.7992281,67.7049825 42.7992281,63.9087719 C42.7992281,62.0312982 43.6053333,60.3861754 44.8294737,59.1974035 C45.9032982,60.1174737 46.9756491,60.7295439 47.6663158,60.7295439 C48.2798596,60.7295439 48.5480702,60.424 48.5480702,59.9647018 C48.5480702,58.5445614 42.9141754,57.2432982 42.9141754,54.2153684 L42.9141754,54.2153684 Z" id="Fill-24" sketch:type="MSShapeGroup"></path>
            <path d="M20.6875789,73.1448421 C20.8487018,74.4534737 22.0689123,75.4457544 23.4482807,75.292 C23.9449123,75.2379649 24.4066667,75.1009123 24.7136842,74.9088421 C25.0202105,76.1339649 26.0488421,76.9228772 27.4385263,76.7411228 C28.8503158,76.5578947 29.8101754,75.4457544 29.6574035,74.0265965 C29.6166316,73.6454035 29.5419649,73.4130526 29.4275088,73.1448421 C29.4275088,73.1448421 29.6141754,73.1256842 29.7551579,73.0991579 C31.1379649,72.8378246 32.0717895,71.7281404 31.9563509,70.385614 C31.8030877,69.0062456 30.5661754,67.9820351 29.2767018,68.1407018 C28.7771228,68.2021053 28.3148772,68.3927018 28.0078596,68.6609123 C27.6625263,67.5129123 26.5823158,66.5142456 25.1061754,66.758386 C23.7739649,66.9794386 22.8927018,68.1097544 23.0263158,69.5426667 C23.0479298,69.7755088 23.1019649,70.0417544 23.2178947,70.308 C23.2178947,70.308 22.9914386,70.3418947 22.8367018,70.3644912 C21.7181754,70.5310175 20.5053333,71.6574035 20.6875789,73.1448421 L20.6875789,73.1448421 Z M27.8487018,71.6382456 C27.9420351,72.4384561 27.3702456,73.1600702 26.5705263,73.2538947 C25.7698246,73.3472281 25.0447719,72.7739649 24.9534035,71.9747368 C24.8605614,71.1740351 25.4318596,70.4489825 26.2330526,70.3556491 C27.0332632,70.2623158 27.7563509,70.8360702 27.8487018,71.6382456 L27.8487018,71.6382456 Z" id="Fill-25" sketch:type="MSShapeGroup"></path>
        </g>
    </g>
</svg>