<?xml version="1.0" encoding="UTF-8" standalone="no"?>
<svg width="257px" height="285px" viewBox="0 0 257 285" version="1.1" xmlns="http://www.w3.org/2000/svg" xmlns:xlink="http://www.w3.org/1999/xlink" xmlns:sketch="http://www.bohemiancoding.com/sketch/ns">
    <!-- Generator: Sketch 3.3.3 (12081) - http://www.bohemiancoding.com/sketch -->
    <title>Slice 1</title>
    <desc>Created with Sketch.</desc>
    <defs></defs>
    <g id="Page-1" stroke="none" stroke-width="1" fill="none" fill-rule="evenodd" sketch:type="MSPage">
        <g id="Uni_ml_ss_p_4cp" sketch:type="MSLayerGroup" fill="#FFFFFF">
            <path d="M103.451,277.258 C105.653,277.258 109.442,276.543 112.425,271.769 C110.72,267.98 109.505,260.326 109.333,257.541 C108.455,243.287 113.947,229.881 119.957,229.512 C124.363,229.246 127.888,233.417 128.294,240.172 C129.377,257.933 123.464,265.347 120.503,271.739 C121.003,274.219 125.207,278.44 129.175,278.44 C130.643,278.44 132.417,277.707 132.858,277.111 C132.563,276.088 132.264,274.763 132.264,272.847 C132.264,262.556 138.884,253.879 144.615,253.879 C149.174,253.879 151.82,259.908 151.82,263.885 C151.82,268.583 147.848,272.413 141.972,276.088 C143.005,277.111 144.908,277.854 146.532,277.854 C154.916,277.854 159.307,267.707 162.555,258.44 C163.141,256.673 164.176,254.176 166.229,254.176 C169.76,254.176 171.234,277.406 177.1,277.406 C179.606,277.406 181.66,272.256 181.66,268.296 C181.66,265.353 180.631,265.059 180.631,260.794 C180.631,256.094 183.133,252.128 186.521,252.128 C188.578,252.128 189.318,254.176 189.318,256.673 C189.318,266.081 182.549,283.58 172.563,283.58 C165.053,283.58 165.639,270.642 162.996,270.642 C160.043,270.642 155.926,283.728 141.385,283.728 C139.02,283.728 136.528,282.554 134.475,280.196 C130.95,282.554 128,283.58 124.618,283.58 C119.185,283.58 116.83,277.993 114.627,277.993 C111.978,277.993 109.045,283.728 100.215,283.728 C93.159,283.728 91.981,274.325 89.489,274.325 C87.281,274.325 83.9,283.728 80.227,283.728 C74.044,283.728 72.73,267.412 67.283,267.412 C63.02,267.412 49.551,283.983 45.894,283.605 C44.422,283.451 43.805,282.353 43.96,280.884 C44.168,278.851 45.917,273.405 46.627,270.83 C47.817,266.358 48.908,261.457 49.517,259.895 C50.123,258.319 51.756,257.194 53.065,257.315 C53.726,257.378 53.924,258.608 54.129,259.624 C54.87,263.26 55.908,266.968 57.078,266.968 C59.143,266.968 65.964,253.879 69.93,253.879 C74.788,253.879 75.373,274.467 81.981,274.467 C84.192,274.467 85.814,271.825 87.281,268.583 C87.429,263.134 88.897,255.358 93.308,255.358 C96.398,255.358 97.871,262.262 95.657,268.296 C95.657,275.494 100.358,277.258 103.451,277.258 L103.451,277.258 Z M221.061,259.619 C219.238,267.178 213.715,278.295 205.473,278.295 C203.565,278.295 200.182,277.557 200.182,275.643 C200.182,273.583 213.127,273.298 213.127,263.441 C213.127,259.772 209.748,254.618 204.744,254.618 C198.129,254.618 191.678,261.829 191.678,271.825 C191.678,280.786 197.244,283.728 202.828,283.728 C212.537,283.728 218.416,275.783 221.5,269.17 C222.979,273.583 223.848,283.728 227.533,283.728 C229.002,283.728 230.035,282.991 231.805,279.027 C236.201,269.17 240.469,257.853 246.356,257.853 C248.555,257.853 247.236,261.829 252.527,261.829 C255.022,261.829 256.779,259.772 256.779,257.407 C256.779,254.024 253.697,251.388 248.996,251.388 C235.178,251.388 232.244,272.117 230.035,272.117 C226.357,272.117 227.533,255.502 224.885,255.502 C222.529,255.502 221.375,258.308 221.061,259.619 L221.061,259.619 Z M123.534,244.14 C123.28,240.032 122.286,238.176 120.077,238.325 C117.149,238.504 115.794,247.716 116.394,257.397 C116.774,263.713 117.715,264.685 118.592,264.626 C120.212,264.53 124.096,253.244 123.534,244.14 L123.534,244.14 Z M99.625,235.505 C99.419,233.15 97.572,231.54 95.07,231.54 C92.279,231.54 89.652,234.468 89.93,238.148 C90.11,240.571 91.54,242.568 94.347,242.568 C97.572,242.568 99.921,238.893 99.625,235.505 L99.625,235.505 Z M145.354,265.494 C145.354,263.001 144.026,260.942 142.419,260.942 C141.083,260.942 138.006,262.405 138.006,267.113 C138.006,270.8 139.316,272.55 139.916,273.298 C144.172,271.974 145.354,268.437 145.354,265.494 L145.354,265.494 Z M202.828,260.511 C205.92,260.511 206.807,264.167 206.07,266.38 C205.33,268.583 202.69,271.09 198.572,271.825 C197.688,269.615 197.244,260.511 202.828,260.511 L202.828,260.511 Z M33.548,250.07 C33.127,248.734 31.904,245.73 31.57,243.511 C30.835,238.6 33.401,235.365 35.761,234.622 C38.406,233.884 39.44,235.212 40.462,238.305 C41.788,243.006 41.934,249.174 41.49,257.996 C40.91,270.054 34.879,284.612 19.887,284.31 C6.944,284.026 1.217,275.643 0.621,262.853 C0.341,256.825 0.77,250.801 3.269,242.274 C4.593,237.714 5.775,236.088 9.883,235.212 C13.116,234.622 12.826,237.998 12.091,241.983 C10.481,250.801 9.734,255.059 10.33,265.059 C10.906,275.643 15.769,279.762 21.06,279.762 C28.999,279.914 32.523,273.298 34,263.733 C35.169,256.094 34.289,252.417 33.548,250.07 L33.548,250.07 Z" id="Fill-1" sketch:type="MSShapeGroup"></path>
            <path d="M206.945,58.805 C207.963,66.213 219.19,76.201 222.232,75.966 C224.266,75.793 225.045,66.292 225.045,58.805 C225.045,54.515 225.279,51.158 223.016,50.376 C219.422,57.635 209.992,59.117 206.945,58.805 L206.945,58.805 Z M207.568,55.526 C215.674,55.526 223.094,49.054 223.094,43.359 C223.094,40.704 221.842,38.522 218.643,38.13 C219.19,38.834 219.422,39.38 219.422,40.626 C219.422,44.919 212.883,49.678 205.775,49.678 C203.199,49.678 202.418,51.47 202.418,52.406 C202.418,54.593 204.527,55.526 207.568,55.526 L207.568,55.526 Z M205.854,46.711 C204.762,46.711 203.199,46.711 202.34,44.998 C201.635,43.593 201.871,41.328 200.545,40.315 C201.871,40.704 203.275,40.704 204.369,40.704 C207.885,40.704 211.244,38.287 213.82,38.287 C215.519,38.287 216.066,39.38 216.066,40.469 C216.066,43.905 209.135,46.711 205.854,46.711 L205.854,46.711 Z" id="Fill-2" sketch:type="MSShapeGroup"></path>
            <path d="M31.354,107.873 C34.003,107.873 33.457,91.644 37.747,91.644 C38.762,91.644 39.075,92.66 39.075,93.908 C39.075,97.574 37.278,102.958 37.278,105.919 C37.278,107.403 37.669,107.873 38.371,107.873 C40.246,107.873 43.521,90.004 46.719,90.004 C47.734,90.004 48.201,91.02 48.201,92.035 C48.201,95.779 43.444,106.544 43.444,109.585 C43.444,110.054 43.599,110.444 43.99,110.444 C45.94,110.444 49.84,102.021 51.087,97.808 C51.789,95.622 52.726,94.451 53.585,94.451 C54.365,94.451 55.068,95.31 55.068,97.105 C55.068,101.317 51.165,111.226 47.734,117.858 C45.083,123.006 40.949,130.413 40.949,134.548 C40.949,136.655 41.335,138.837 44.379,141.492 C39.387,141.18 37.357,140.711 35.487,136.812 C27.14,153.43 50.856,151.791 42.739,166.53 C41.257,163.883 29.557,161.151 29.557,145.704 C29.557,132.366 41.257,124.564 41.257,119.025 C41.257,117.935 40.871,116.999 39.855,116.14 C37.278,113.954 37.199,112.163 35.175,112.163 C33.691,112.163 31.895,115.594 33.769,118.635 C34.394,119.649 34.94,120.274 34.94,121.211 C34.94,123.393 31.505,129.242 29.091,129.242 C26.671,129.242 24.802,123.242 24.802,113.564 C24.802,104.982 26.749,96.325 29.168,96.325 C29.87,96.325 30.103,96.793 30.103,97.418 C30.103,98.433 29.793,100.459 29.793,103.889 C29.793,107.559 30.65,107.873 31.354,107.873" id="Fill-3" sketch:type="MSShapeGroup"></path>
            <path d="M51.242,130.727 C54.522,130.727 57.25,128.305 57.25,122.929 L57.25,114.969 C57.25,111.928 57.484,108.498 59.514,106.076 C59.281,107.091 59.281,108.184 59.281,109.195 C59.281,115.905 63.024,120.509 63.024,126.982 C63.024,129.397 62.321,130.727 60.452,130.727 C58.656,130.727 58.812,129.087 58.421,129.087 C58.11,129.087 57.641,130.1 57.641,131.194 C57.641,132.833 58.812,135.405 62.087,135.405 C64.898,135.405 67.157,132.833 67.157,129.945 C67.157,122.929 61.696,115.125 61.696,107.638 C61.696,104.358 62.556,102.176 63.258,100.459 C63.258,115.984 76.441,127.294 76.441,133.767 C76.441,135.25 75.351,136.421 73.713,136.421 C71.918,136.421 71.057,135.015 71.057,133.922 C71.057,133.376 70.979,133.22 70.746,133.22 C70.282,133.22 68.875,134.781 68.875,136.812 C68.875,139.383 70.979,142.508 74.883,142.508 C79.326,142.508 81.744,138.759 81.744,135.405 C81.744,127.217 65.753,114.812 65.753,101.552 C65.753,99.288 66.142,95.622 67.782,92.816 C57.484,99.443 54.288,108.263 54.288,115.984 C54.288,122.695 54.054,126.044 50.622,126.044 C48.827,126.044 48.358,124.408 47.734,124.408 C47.265,124.408 47.029,125.811 47.029,126.201 C47.029,129.087 49.138,130.727 51.242,130.727" id="Fill-4" sketch:type="MSShapeGroup"></path>
            <path d="M186.436,52.797 C189.871,52.797 192.447,51.236 192.447,50.298 C192.447,49.991 191.979,49.756 190.963,49.756 C189.947,49.756 187.918,49.678 184.092,49.054 C180.811,48.507 178.315,47.258 177.377,47.258 C177.065,47.258 176.908,47.415 176.908,47.648 C176.908,49.678 180.656,52.797 186.436,52.797 L186.436,52.797 Z M169.43,42.89 C170.42,42.227 174.816,43.279 180.502,40.469 C181.203,40.083 181.906,39.926 182.529,39.926 C185.264,39.926 184.559,43.045 187.06,43.045 C189.01,43.045 191.51,41.406 192.996,41.406 C195.32,41.406 198.676,48.741 198.676,52.173 C198.676,56.151 192.682,58.57 185.576,58.57 C175.209,58.57 168.961,49.523 168.961,43.67 C168.961,43.202 169.197,43.045 169.43,42.89 L169.43,42.89 Z" id="Fill-5" sketch:type="MSShapeGroup"></path>
            <path d="M52.882,160.135 C50.31,160.762 46.172,164.813 46.172,171.217 C46.172,178.858 54.365,190.641 67.86,190.641 C79.249,190.641 82.055,182.763 82.055,177.453 C82.055,165.673 74.805,157.403 65.367,157.403 C60.216,157.403 55.615,161.151 55.615,166.685 C55.615,171.839 59.514,179.56 68.798,179.56 C73.166,179.56 75.739,176.438 75.739,172.856 C75.739,169.342 72.541,164.509 67.86,164.509 C66.456,164.509 65.445,165.438 65.445,166.922 C65.445,168.793 68.017,170.669 71.214,170.669 C71.995,170.669 72.619,170.513 72.932,170.356 C73.087,170.592 73.166,170.981 73.166,171.293 C73.166,173.09 71.448,174.183 68.798,174.183 C64.82,174.183 60.994,171.217 60.994,166.53 C60.994,163.728 63.415,161.698 66.924,161.698 C73.868,161.698 78,167.858 78,174.026 C78,179.56 74.962,182.763 68.72,182.763 C56.235,182.763 50.154,171.528 52.882,160.135" id="Fill-6" sketch:type="MSShapeGroup"></path>
            <path d="M135.882,190.251 C135.882,191.97 137.288,193.372 139.001,193.372 C140.718,193.372 142.123,191.97 142.123,190.251 C142.123,188.532 140.718,187.127 139.001,187.127 C137.288,187.127 135.882,188.532 135.882,190.251 L135.882,190.251 Z M141.929,205.842 C145.671,205.842 145.478,205.532 146.649,205.532 C147.818,205.532 147.898,206.232 147.898,206.702 C147.898,208.42 144.071,210.529 137.288,210.529 C133.308,210.529 130.889,208.42 130.187,206.078 C126.289,208.575 120.36,210.839 114.508,210.839 C98.519,210.839 94.461,203.891 89.469,201.635 C85.644,199.917 79.795,203.274 71.604,194.146 C72.697,194.38 74.181,194.458 75.351,194.458 C82.523,194.458 86.346,190.952 86.346,185.33 C86.346,184.627 86.268,183.856 86.19,183.155 C88.376,184.013 93.368,187.752 94.54,194.38 C94.696,195.161 97.892,195.863 99.919,195.863 C102.729,195.863 106.318,194.69 106.863,190.094 C116.226,189.315 122.546,183.777 123.873,176.749 C127.223,177.844 131.045,180.888 131.982,182.449 C133.308,181.982 134.866,181.748 136.662,181.748 C139.157,181.748 141.967,182.215 145.32,183.232 C145.478,182.215 145.633,180.966 147.195,180.966 C149.534,180.966 148.909,183.543 149.689,185.018 C150.08,185.798 152.035,186.268 152.035,187.828 C152.035,189.315 150.779,189.86 150.002,189.86 C149.689,189.86 149.299,189.782 149.063,189.705 C147.507,190.251 147.428,201.481 140.874,201.481 C136.038,201.481 131.592,197.502 129.64,192.514 C129.093,191.032 127.926,190.094 126.832,190.094 C125.586,190.094 124.884,190.328 123.405,191.97 C119.192,196.565 112.17,200.542 103.511,200.542 C100.857,200.542 98.752,200.309 98.206,200.309 C97.892,200.309 97.892,200.386 97.892,200.463 C97.892,201.01 100.543,203.119 106.318,203.119 C120.046,203.119 123.405,195.395 125.586,195.395 C125.899,195.395 126.832,195.395 127.378,196.644 C130.576,204.125 137.56,205.842 141.929,205.842 L141.929,205.842 Z" id="Fill-7" sketch:type="MSShapeGroup"></path>
            <path d="M189.246,156.154 C187.607,156.154 178.547,168.247 172.709,168.247 C171.305,168.247 170.135,165.594 170.135,163.573 C170.135,162.479 170.834,161.698 173.336,161.151 C186.748,158.107 183.781,148.041 195.24,148.041 C201.559,148.041 208.586,152.336 208.586,162.009 C208.586,172.31 193.93,185.098 191.744,185.098 C189.947,185.098 187.996,182.526 187.996,180.81 C187.996,180.266 188.231,179.56 189.793,178.939 C197.27,175.969 201.559,169.106 201.559,165.594 C201.559,164.813 201.17,164.041 200.154,164.041 C198.832,164.041 193.15,176.985 186.826,176.985 C182.451,176.985 178.002,173.013 178.002,171.138 C178.002,168.015 190.65,162.244 190.65,157.871 C190.65,156.23 189.871,156.154 189.246,156.154 L189.246,156.154 Z M197.66,151.32 C196.568,151.32 195.398,152.181 195.398,154.289 C195.398,156.623 197.193,158.107 198.207,158.574 C198.754,158.887 199.613,159.2 200.465,159.2 C202.731,159.2 204.527,158.574 204.527,156.699 C204.527,154.289 201.014,151.32 197.66,151.32 L197.66,151.32 Z" id="Fill-8" sketch:type="MSShapeGroup"></path>
            <path d="M51.945,60.987 C51.945,62.705 53.351,64.111 55.068,64.111 C56.782,64.111 58.188,62.705 58.188,60.987 C58.188,59.274 56.782,57.868 55.068,57.868 C53.351,57.868 51.945,59.274 51.945,60.987 L51.945,60.987 Z M47.89,53.968 C47.89,55.682 49.294,57.087 51.008,57.087 C52.726,57.087 54.13,55.682 54.13,53.968 C54.13,52.251 52.726,50.845 51.008,50.845 C49.294,50.845 47.89,52.251 47.89,53.968 L47.89,53.968 Z M45.083,75.341 C43.286,75.809 39.544,77.993 39.544,81.893 C39.544,84.699 41.725,86.496 44.459,86.496 C45.864,86.496 46.875,86.183 47.498,85.715 C45.316,83.61 44.537,81.268 44.537,78.931 C44.537,77.29 44.77,76.278 45.083,75.341 L45.083,75.341 Z M25.973,76.434 C25.896,76.825 25.896,77.213 25.896,77.602 C25.896,81.268 27.842,83.298 30.417,83.298 C32.363,83.298 34.629,82.127 36.654,79.551 C35.799,79.706 34.785,79.784 33.848,79.784 C30.963,79.784 27.842,79.008 25.973,76.434 L25.973,76.434 Z M23.241,83.376 C23.241,89.303 25.035,92.113 28.233,92.113 C30.728,92.113 34.083,90.317 38.06,86.886 C35.018,87.589 32.676,88.056 30.572,88.056 C27.765,88.056 25.582,86.964 23.241,83.376 L23.241,83.376 Z M43.444,52.173 C43.833,50.922 44.146,49.367 44.146,47.648 C44.146,43.905 42.428,38.209 37.123,38.209 C34.083,38.209 31.895,40.626 31.895,43.514 C31.895,49.678 38.06,52.173 43.444,52.173 L43.444,52.173 Z M36.81,71.832 C34.238,71.832 31.431,68.635 31.431,65.747 C31.431,64.189 32.599,62.236 33.457,62.236 C33.769,62.236 33.925,62.471 34.003,63.018 C34.472,66.839 36.967,69.025 39.309,70.115 C39.544,70.27 39.699,70.349 39.699,70.504 C39.699,71.05 38.215,71.832 36.81,71.832 L36.81,71.832 Z M43.99,62.314 C44.529,63.049 46.019,63.954 46.019,64.501 C46.019,65.589 45.394,66.996 44.146,66.996 C41.414,66.996 39.231,62.861 39.231,60.519 C39.231,59.039 40.09,58.883 41.257,58.883 C41.804,58.883 42.037,58.961 42.428,59.196 C43.13,59.585 43.13,61.144 43.99,62.314 L43.99,62.314 Z M25.66,71.988 C25.515,72.228 25.427,72.534 25.427,72.848 C25.427,73.55 26.208,74.33 26.905,74.33 C27.531,74.33 27.92,74.174 28.233,74.174 C30.103,74.174 32.208,75.498 35.253,75.498 C37.044,75.498 39.153,74.95 41.804,73.628 C47.42,70.817 49.607,63.876 49.607,62.705 C49.607,61.221 48.415,61.415 47.42,60.05 C46.425,58.691 46.806,57.487 46.172,56.852 C45.811,56.487 44.692,56.463 43.286,56.306 C42.815,56.255 42.193,56.229 41.569,56.229 C38.997,56.229 35.946,56.544 32.521,58.727 C25.753,63.044 26.749,70.192 25.66,71.988 L25.66,71.988 Z M51.556,68.869 C49.84,70.895 48.045,74.33 48.045,77.837 C48.045,82.049 50.622,85.558 54.6,85.558 C58.421,85.558 60.216,82.283 60.216,78.931 C60.216,73.706 55.459,70.035 51.556,68.869 L51.556,68.869 Z M34.863,53.891 C34.863,53.891 32.599,55.604 29.793,55.604 C26.442,55.604 23.787,53.109 23.787,49.6 C23.787,47.181 25.035,44.686 27.92,43.437 C27.842,43.905 27.842,44.294 27.842,44.763 C27.842,49.209 30.338,52.563 34.863,53.891 L34.863,53.891 Z" id="Fill-9" sketch:type="MSShapeGroup"></path>
            <path d="M172.397,79.784 C172.397,81.582 173.883,83.064 175.658,83.064 C177.455,83.064 178.94,81.582 178.94,79.784 C178.94,77.993 177.455,76.512 175.658,76.512 C173.883,76.512 172.397,77.993 172.397,79.784 L172.397,79.784 Z M172.631,89.613 C172.631,91.644 174.272,93.284 176.285,93.284 C178.315,93.284 179.955,91.644 179.955,89.613 C179.955,87.589 178.315,85.95 176.285,85.95 C174.272,85.95 172.631,87.589 172.631,89.613 L172.631,89.613 Z M161.391,96.246 C161.391,99.209 163.809,101.629 166.777,101.629 C169.742,101.629 172.164,99.209 172.164,96.246 C172.164,93.284 169.742,90.864 166.777,90.864 C163.809,90.864 161.391,93.284 161.391,96.246 L161.391,96.246 Z M164.277,85.247 C164.277,86.964 165.682,88.369 167.4,88.369 C169.117,88.369 170.522,86.964 170.522,85.247 C170.522,83.532 169.117,82.127 167.4,82.127 C165.682,82.127 164.277,83.532 164.277,85.247 L164.277,85.247 Z M154.065,91.488 C154.065,93.206 155.471,94.606 157.17,94.606 C158.889,94.606 160.295,93.206 160.295,91.488 C160.295,89.772 158.889,88.369 157.17,88.369 C155.471,88.369 154.065,89.772 154.065,91.488 L154.065,91.488 Z M162.092,73.237 C162.092,75.966 164.356,78.227 167.088,78.227 C169.82,78.227 172.084,75.966 172.084,73.237 C172.084,70.504 169.82,68.245 167.088,68.245 C164.356,68.245 162.092,70.504 162.092,73.237 L162.092,73.237 Z M167.947,63.642 C167.947,65.277 169.273,66.604 170.914,66.604 C172.553,66.604 173.883,65.277 173.883,63.642 C173.883,62.002 172.553,60.674 170.914,60.674 C169.273,60.674 167.947,62.002 167.947,63.642 L167.947,63.642 Z M153.832,71.128 C153.832,72.769 155.158,74.097 156.781,74.097 C158.422,74.097 159.748,72.769 159.748,71.128 C159.748,69.493 158.422,68.166 156.781,68.166 C155.158,68.166 153.832,69.493 153.832,71.128 L153.832,71.128 Z M153.44,81.268 C153.44,83.923 155.549,86.026 158.185,86.026 C160.84,86.026 162.951,83.923 162.951,81.268 C162.951,78.618 160.84,76.512 158.185,76.512 C155.549,76.512 153.44,78.618 153.44,81.268 L153.44,81.268 Z M143.608,86.26 C143.608,88.682 145.633,90.706 148.054,90.706 C150.471,90.706 152.502,88.682 152.502,86.26 C152.502,83.845 150.471,81.815 148.054,81.815 C145.633,81.815 143.608,83.845 143.608,86.26 L143.608,86.26 Z M146.258,75.264 C146.258,76.978 147.664,78.384 149.377,78.384 C151.098,78.384 152.502,76.978 152.502,75.264 C152.502,73.55 151.098,72.144 149.377,72.144 C147.664,72.144 146.258,73.55 146.258,75.264 L146.258,75.264 Z M173.647,99.288 C173.647,97.729 175.053,96.403 176.596,96.403 C178.315,96.403 179.643,97.729 179.643,99.288 C179.643,101.082 178.315,102.333 176.596,102.333 C175.053,102.333 173.647,101.082 173.647,99.288 L173.647,99.288 Z" id="Fill-10" sketch:type="MSShapeGroup"></path>
            <path d="M175.658,189.001 C176.051,189.001 176.518,189.233 176.518,190.641 C176.518,192.357 175.738,194.615 172.945,196.409 C170.99,197.736 168.338,198.83 164.434,198.9 C165.057,197.034 165.525,195.082 165.525,193.218 C165.525,192.592 165.449,192.123 165.371,191.422 L166.387,191.422 C172.553,191.422 175.209,189.001 175.658,189.001 L175.658,189.001 Z M176.285,181.278 C176.918,180.743 177.065,179.875 177.065,179.015 L177.065,177.219 C177.065,174.956 173.647,173.636 168.961,173.636 C163.262,173.636 160.217,176.203 160.217,177.298 L160.217,180.888 C160.217,182.372 163.654,183.856 167.869,183.856 C171.227,183.856 174.272,182.997 176.285,181.278 L176.285,181.278 Z M180.344,182.139 C178.315,183.701 173.568,187.204 165.682,187.204 C161.467,187.204 159.592,185.878 158.967,185.878 C158.185,185.878 157.326,186.658 156.469,187.674 C154.613,189.86 152.193,193.919 152.193,198.36 C152.193,201.481 154.613,204.594 159.123,204.594 C173.725,204.594 184.639,195.471 184.639,188.065 C184.639,183.856 182.143,182.139 180.344,182.139 L180.344,182.139 Z" id="Fill-11" sketch:type="MSShapeGroup"></path>
            <path d="M183.076,116.531 C183.076,118.478 183.703,120.742 185.654,120.742 C187.293,120.742 188.699,118.25 188.699,115.517 C188.699,112.396 188.152,109.977 188.152,108.727 C188.152,108.184 188.387,107.95 188.699,107.95 C189.871,108.028 190.963,111.226 192.213,111.226 C193.619,111.226 195.711,108.648 196.568,108.648 C196.803,108.648 196.879,108.961 196.879,109.038 C196.879,110.21 195.084,112.788 195.084,113.799 C195.084,114.656 199.613,114.812 199.613,115.594 C199.613,116.765 194.867,116.765 192.604,117.78 C190.418,118.713 189.088,119.884 189.088,121.446 C189.088,123.006 190.65,123.315 192.838,123.315 C198.053,123.315 201.717,120.509 202.887,120.509 C203.121,120.509 203.275,120.665 203.275,120.899 C203.275,121.679 200.623,124.253 200.623,125.423 C200.623,126.748 205.465,128.305 205.387,129.087 C205.309,129.32 204.994,129.397 204.449,129.397 C203.588,129.397 202.264,129.165 201.246,129.165 C200.623,129.165 200.076,129.242 199.84,129.553 C199.301,130.18 199.998,134.313 198.91,134.313 C197.894,134.313 195.24,125.11 189.246,125.11 C188.387,125.11 187.764,125.811 187.764,126.982 C187.764,130.1 190.809,133.688 193.697,135.405 C195.006,136.265 197.193,137.124 197.193,137.593 C197.193,138.525 192.213,137.67 192.213,139.228 C192.213,140.634 192.838,142.743 192.838,143.987 C192.838,144.378 192.76,144.844 192.291,144.844 C191.356,144.844 189.088,140.557 187.996,140.557 C187.06,140.557 185.031,143.127 184.168,143.127 C183.938,143.127 183.781,142.894 183.781,142.664 C183.781,140.868 186.67,136.812 186.67,132.833 C186.67,130.96 186.436,126.904 184.168,126.904 C182.297,126.904 180.187,129.867 179.25,132.833 C178.705,134.548 179.096,141.18 177.846,141.18 C176.674,141.18 176.986,136.733 175.424,136.733 C174.272,136.733 171.773,138.837 170.914,138.837 C170.758,138.837 170.602,138.759 170.602,138.604 C170.602,137.67 172.865,134.625 172.865,134.002 C172.865,132.833 167.713,132.678 167.713,131.741 C167.713,131.194 169.742,130.805 171.615,130.491 C175.582,129.789 181.438,126.904 181.438,122.851 C181.438,118.327 177.065,116.374 174.193,114.5 C172.709,113.564 171.07,112.788 171.07,112.163 C171.07,111.537 172.945,111.537 173.725,111.537 C174.895,111.537 176.051,111.459 176.051,110.523 C176.051,109.819 175.893,108.419 175.893,107.326 C175.893,106.544 175.971,105.919 176.285,105.919 C177.455,105.919 179.096,109.742 179.877,109.742 C181.125,109.742 182.842,106.623 184.016,106.623 C184.402,106.623 184.559,106.857 184.559,107.559 C184.559,110.444 183.076,113.719 183.076,116.531 L183.076,116.531 Z M145.867,93.675 C146.727,100.303 155.627,96.95 155.627,104.982 C155.627,106.154 155.315,107.873 155.315,109.351 C155.315,111.07 155.471,112.552 156.781,112.552 C158.107,112.552 158.422,111.617 158.422,110.366 C158.422,109.117 158.107,107.559 158.107,106.702 C158.107,103.968 160.06,103.347 161.232,103.347 C164.199,103.347 166.463,106.389 170.914,106.389 C169.898,111.381 159.592,110.054 159.592,115.517 C159.592,118.25 162.324,118.869 164.121,118.869 C165.762,118.869 166.309,118.635 166.309,117.234 C166.309,116.452 166.15,115.594 166.15,115.047 C166.15,114.734 166.387,114.422 166.777,114.422 C168.496,114.422 176.908,120.82 176.908,122.773 C176.908,124.564 168.025,126.358 165.449,126.358 C164.668,126.358 164.512,125.811 164.512,125.501 C164.512,124.955 165.838,123.315 165.838,122.381 C165.838,121.679 164.668,121.211 161.543,121.211 C160.06,121.211 158.967,121.367 158.967,122.54 C158.967,124.642 162.404,127.217 162.404,129.165 C162.404,130.727 161.467,131.663 158.967,131.663 C156.859,131.663 153.674,130.022 153.674,127.294 C153.674,125.11 155.924,122.929 155.924,121.602 C155.924,121.211 155.627,120.587 154.69,120.587 C151.801,120.587 151.019,128.228 140.796,129.087 C142.435,127.607 143.838,125.967 143.838,122.617 C143.838,120.978 143.451,119.649 143.451,117.858 C143.451,115.517 144.541,114.344 146.101,114.344 C148.986,114.344 150.391,118.4 152.27,118.4 C153.287,118.4 154.377,117.467 154.377,116.063 C154.377,110.133 142.982,110.991 142.982,102.645 C142.982,100.381 143.759,97.574 145.867,93.675 L145.867,93.675 Z" id="Fill-12" sketch:type="MSShapeGroup"></path>
            <path d="M160.686,144.378 C160.686,145.47 161.467,146.329 162.561,146.329 C163.809,146.329 164.592,145.236 164.592,143.987 C164.592,142.352 163.107,140.087 161.701,140.087 C161.074,140.087 161.311,141.024 161.152,142.039 C161.074,142.816 160.686,143.752 160.686,144.378 L160.686,144.378 Z M156.627,134.002 C164.824,135.562 169.273,141.727 169.273,147.499 C169.273,151.48 166.777,155.139 162.404,155.139 C158.422,155.139 155.549,152.414 155.549,148.041 C155.549,144.767 158.107,141.335 158.107,137.978 C158.107,136.655 157.719,135.328 156.627,134.002 L156.627,134.002 Z M146.258,147.267 C147.037,148.041 147.273,148.823 147.273,149.605 C147.273,150.775 146.727,152.024 146.727,153.352 C146.727,155.217 148.13,156.857 150.157,156.857 C152.348,156.857 153.832,155.139 153.832,153.118 C153.832,150.151 150.779,147.267 146.258,147.267 L146.258,147.267 Z M172.084,142.274 C172.631,143.127 172.865,143.987 172.865,144.767 C172.865,146.953 171.383,148.979 171.383,151.243 C171.383,153.819 173.336,155.92 176.285,155.92 C179.486,155.92 181.674,153.352 181.674,150.306 C181.674,146.173 177.926,142.664 172.084,142.274 L172.084,142.274 Z M148.13,138.134 C151.723,138.604 152.584,139.852 152.584,140.868 C152.584,142.585 151.019,143.127 149.534,143.127 C148.443,143.127 147.195,142.894 145.867,142.894 C144.149,142.894 142.435,143.285 141.03,144.924 C142.044,145.079 143.528,145.782 143.528,147.344 C143.528,151.868 130.966,148.12 130.966,159.747 C130.966,165.907 137.365,172.62 147.037,172.62 C152.035,172.62 155.236,170.981 155.236,169.106 C155.236,167.625 152.584,168.639 152.584,167.39 C152.584,166.844 153.518,165.826 153.518,164.967 C153.518,164.588 153.207,163.883 152.584,163.883 C151.176,163.883 148.522,166.14 143.137,166.14 C138.923,166.14 134.789,163.728 134.789,160.448 C134.789,159.747 135.102,159.355 135.568,159.355 C136.038,159.355 136.662,159.669 137.208,159.669 C137.677,159.669 137.755,159.355 137.755,158.497 C137.755,157.638 137.755,155.217 139.234,155.217 C140.718,155.217 143.528,160.682 154.301,160.682 C157.875,160.682 164.824,159.98 167.4,157.638 C167.322,166.219 160.607,177.529 146.57,177.529 C131.982,177.529 124.181,165.826 124.181,155.061 C124.181,143.127 133.929,132.288 147.273,132.288 C150.704,132.288 153.596,133.455 153.596,134.937 C153.596,136.969 148.522,135.719 148.13,138.134 L148.13,138.134 Z" id="Fill-13" sketch:type="MSShapeGroup"></path>
            <path d="M97.659,49.054 C102.807,49.054 105.146,53.5 105.146,58.493 C105.146,60.674 104.526,63.876 103.511,63.876 C102.496,63.876 102.652,62.081 102.496,60.44 C102.341,58.336 101.95,57.868 101.247,57.868 C99.919,57.868 99.065,60.987 99.065,63.876 C99.065,65.667 99.377,67.697 100.778,67.697 C101.558,67.697 102.261,67.306 102.729,66.839 C102.418,70.426 99.763,73.55 96.02,73.55 C89.156,73.55 86.581,65.512 85.8,60.832 C81.666,65.2 77.847,68.4 70.979,68.4 C64.585,68.4 61.696,63.72 61.696,59.274 C61.696,57.945 62.166,54.515 63.805,54.515 C65.753,54.515 64.039,60.909 67.86,60.909 C68.798,60.909 70.511,60.127 71.448,57.557 C71.995,55.995 72.307,54.359 72.307,52.953 C72.307,50.845 71.839,49.523 70.282,49.523 C68.953,49.523 67.313,50.533 66.767,51.08 C68.642,45.462 73.166,42.577 78.155,42.577 C84.321,42.577 87.595,48.039 87.595,54.124 C87.595,54.98 87.516,55.917 87.361,56.775 C90.012,52.406 93.682,49.054 97.659,49.054 L97.659,49.054 Z M91.651,58.259 C91.651,56.931 91.338,56.619 91.026,56.619 C90.246,56.619 89.391,57.557 88.142,59.664 C88.298,62.471 88.768,63.72 89.546,63.72 C90.402,63.72 91.651,60.987 91.651,58.259 L91.651,58.259 Z M80.961,61.456 C81.821,61.456 82.915,60.519 84.945,58.259 C85.101,57.244 85.101,56.306 85.101,55.135 C85.101,53.578 84.476,51.861 83.54,51.861 C81.197,51.861 80.03,58.103 80.03,59.743 C80.03,60.674 80.495,61.456 80.961,61.456 L80.961,61.456 Z M93.682,68.4 C95.629,68.4 97.815,60.909 97.815,56.229 C97.815,55.212 97.659,54.124 97.19,54.124 C95.551,54.124 92.822,61.846 92.822,66.058 C92.822,67.697 93.213,68.4 93.682,68.4 L93.682,68.4 Z M74.572,64.111 C77.222,64.111 80.26,49.756 80.26,47.336 C80.26,46.711 80.03,46.243 79.484,46.243 C77.066,46.243 73.713,59.895 73.713,62.939 C73.713,63.485 73.868,64.111 74.572,64.111 L74.572,64.111 Z" id="Fill-14" sketch:type="MSShapeGroup"></path>
            <path d="M83.07,70.035 C79.717,70.035 79.562,74.097 79.562,82.283 C77.066,76.902 72.932,71.128 68.095,71.128 C64.82,71.128 63.571,73.315 63.571,77.133 C63.571,77.915 63.649,79.087 63.805,79.784 C64.195,78.462 65.445,77.915 67.002,77.915 C70.359,77.915 74.415,80.487 77.066,84.001 C74.024,83.455 71.057,82.908 68.565,82.908 C67.002,82.908 65.598,83.064 64.429,83.61 C62.166,84.621 59.123,87.978 59.123,93.05 C59.123,93.831 59.203,94.685 59.358,95.622 C62.087,89.536 69.343,86.807 74.024,86.807 C74.962,86.807 75.661,86.886 76.207,86.964 C73.79,89.145 73.244,92.971 73.087,95.544 C73.01,96.793 72.541,96.872 71.682,96.872 C71.682,99.443 73.713,103.269 73.713,105.217 C73.713,105.919 73.322,106.544 72.932,106.702 C72.932,110.133 76.363,112.63 76.363,114.812 C76.363,115.358 76.207,115.827 75.973,116.063 C76.207,117.467 79.982,119.83 80.47,121.012 C81.069,122.452 81.744,122.695 82.135,122.695 C83.461,122.695 85.565,121.132 85.565,119.727 C85.565,119.259 85.175,118.713 84.867,118.478 C83.383,117.39 82.602,115.047 81.978,113.489 C81.43,113.489 80.724,113.259 80.478,112.34 C80.05,110.725 80.03,107.715 79.405,105.919 C78.391,105.687 77.921,105.296 77.921,103.192 C77.921,102.176 78.547,98.198 78.547,96.793 C78.078,96.793 77.457,96.481 77.457,95.544 C77.457,93.05 79.953,91.098 80.651,87.901 C85.101,91.175 86.19,94.528 86.19,97.497 C86.19,99.053 85.956,100.537 85.644,101.943 C88.922,100.303 93.837,97.886 93.837,92.971 C93.837,90.082 92.511,86.886 83.695,85.636 C86.423,84.621 89.859,84.079 92.744,84.079 C97.736,84.079 100.622,85.636 101.247,89.145 C102.261,87.589 103.043,85.792 103.043,84.156 C103.043,80.331 99.841,77.837 95.786,77.837 C91.026,77.837 86.815,80.331 82.291,83.376 C84.321,79.164 85.721,76.669 88.221,76.669 C88.61,76.669 89.001,76.748 89.391,76.825 C88.454,73.394 84.945,70.035 83.07,70.035" id="Fill-15" sketch:type="MSShapeGroup"></path>
            <path d="M214.506,126.278 C218.408,126.278 221.531,131.35 221.531,137.28 C221.531,143.595 218.565,150.462 213.273,155.139 C213.195,144.611 200.309,147.965 200.309,140.321 C200.309,137.046 202.652,134.859 205.465,134.859 C207.963,134.859 209.914,135.562 211.32,136.969 C209.914,135.641 209.211,133.767 209.211,131.975 C209.211,129.007 211.086,126.278 214.506,126.278" id="Fill-16" sketch:type="MSShapeGroup"></path>
            <path d="M156.627,46.477 C156.002,45.462 153.674,44.919 152.584,44.919 C149.143,44.919 146.805,47.336 146.335,49.523 C146.024,48.741 145.788,47.805 145.788,46.867 C145.788,43.437 148.13,39.225 153.832,39.225 C158.813,39.225 160.762,41.875 161.467,41.875 C162.246,41.875 163.027,41.094 163.654,41.094 C164.512,41.094 164.512,42.421 164.512,43.359 C164.512,46.477 163.107,51.861 159.592,53.813 C158.967,52.484 157.719,51.002 155.703,50.068 C155.158,49.835 154.924,49.367 154.924,48.898 C154.924,48.039 155.703,46.945 156.627,46.477 L156.627,46.477 Z M144.851,52.173 C146.882,54.124 148.672,54.98 150.86,54.98 C151.723,54.98 152.738,54.748 153.287,54.748 C153.986,54.748 154.455,55.058 154.455,55.604 C154.455,56.463 153.674,57.868 152.738,58.649 C153.674,59.039 154.69,59.196 155.783,59.196 C160.217,59.196 165.291,56.384 165.291,49.367 C166.229,50.611 166.777,53.188 166.777,54.359 C166.777,62.861 160.529,66.136 154.769,66.136 C151.019,66.136 149.143,64.887 148.672,64.887 C147.195,64.887 147.273,67.853 146.258,67.776 C144.461,67.464 142.827,63.485 142.827,59.274 C142.827,56.775 143.451,54.124 144.851,52.173 L144.851,52.173 Z" id="Fill-17" sketch:type="MSShapeGroup"></path>
            <path d="M78.078,2.56 C78.078,2.091 75.739,1.622 72.541,1.622 C67.471,1.622 68.173,5.839 64.274,5.839 C60.216,5.839 61.228,1.466 56.08,1.466 C52.96,1.466 50.076,2.013 50.076,2.715 C50.076,3.652 53.741,3.261 53.741,5.839 C53.741,8.567 45.864,9.348 45.864,10.986 C45.864,11.529 46.483,11.765 47.265,11.765 C48.982,11.765 51.711,10.986 53.663,10.986 C54.755,10.986 55.771,11.217 55.771,12.233 C55.771,14.184 51.556,17.694 51.556,19.254 C51.556,19.724 51.945,19.881 52.335,19.881 C53.897,19.881 56.548,15.901 59.045,15.901 C63.18,15.901 60.452,24.716 62.711,24.716 C65.054,24.716 64.039,16.054 67.392,16.054 C70.126,16.054 72.151,22.062 74.024,22.062 C74.494,22.062 74.883,21.672 74.883,21.125 C74.883,19.49 72.541,16.133 72.541,13.95 C72.541,12.623 73.479,11.998 74.727,11.998 C76.519,11.998 78.938,13.09 80.26,13.09 C80.729,13.09 81.197,12.935 81.197,12.389 C81.197,10.518 74.259,8.49 74.259,6.072 C74.259,3.652 78.078,3.652 78.078,2.56 L78.078,2.56 Z M96.41,10.518 C96.41,11.92 101.325,14.965 103.589,14.965 C104.912,14.965 105.303,13.169 105.303,11.295 C105.303,8.958 104.292,8.879 102.261,8.879 C99.689,8.879 96.41,9.582 96.41,10.518 L96.41,10.518 Z M104.526,25.962 C104.526,21.281 91.868,12.779 91.73,9.114 C91.716,8.779 91.898,8.445 92.182,8.146 C94.35,5.861 103.354,4.194 103.354,2.246 C103.354,1.234 101.481,1.234 100.542,1.234 C93.291,1.234 82.681,3.886 82.681,6.458 C82.681,9.114 92.198,15.59 92.198,18.787 C92.198,19.646 91.651,19.958 90.791,19.958 C88.142,19.958 82.368,16.757 79.64,16.757 C78.391,16.757 77.921,17.615 77.921,18.866 C77.921,22.609 82.368,29.708 82.368,31.81 C82.368,32.044 82.291,32.357 81.978,32.357 C80.572,32.357 73.947,24.56 71.604,24.56 C70.746,24.56 70.668,25.728 70.668,27.445 L70.668,30.097 C70.668,31.89 70.588,32.982 69.735,32.982 C67.705,32.982 66.767,27.289 64.82,27.289 C62.79,27.289 62.399,37.429 60.452,37.429 C58.188,37.429 60.139,26.273 57.953,26.273 C55.537,26.273 52.804,33.685 51.087,33.685 C50.466,33.685 50.31,33.06 50.31,32.514 C50.31,30.253 51.633,26.586 51.633,24.405 C51.633,23.311 51.32,22.687 50.387,22.687 C47.967,22.687 42.662,26.586 40.636,26.586 C40.324,26.586 39.934,26.431 39.934,26.118 C39.934,24.249 48.436,18.319 48.436,15.669 C48.436,13.09 36.731,14.81 36.731,11.842 C36.731,9.348 45.083,6.772 45.083,4.199 C45.083,1.935 35.175,0.924 31.354,0.924 C26.749,0.924 24.255,1.466 24.255,2.793 C24.255,4.823 34.708,5.448 34.708,7.239 C34.708,8.958 23.865,13.559 23.865,16.21 C23.865,18.552 39.153,16.366 39.153,18.787 C39.153,21.437 25.816,32.903 25.816,36.725 C25.816,37.584 26.442,37.975 27.296,37.975 C31.354,37.975 41.881,30.253 44.77,30.253 C45.785,30.253 45.864,31.498 45.864,32.592 C45.864,34.623 45.162,37.74 45.162,40.004 C45.162,41.796 45.629,43.045 47.187,43.045 C50.076,43.045 52.726,38.13 54.678,38.13 C57.172,38.13 55.692,52.563 59.437,52.563 C62.633,52.563 63.96,36.96 65.987,36.96 C68.017,36.96 69.658,41.484 71.526,41.484 C73.868,41.484 72.775,33.607 75.274,33.607 C78,33.607 85.8,42.968 89.313,42.968 C90.402,42.968 90.791,42.108 90.791,41.015 C90.791,36.881 85.023,27.524 85.023,24.56 C85.023,23.78 85.252,23.545 86.111,23.545 C89.156,23.545 98.05,27.757 102.261,27.757 C103.667,27.757 104.526,26.977 104.526,25.962 L104.526,25.962 Z M33.3,21.437 C33.3,22.999 27.374,28.223 25.27,28.223 C24.49,28.223 24.255,27.289 24.255,26.431 C24.255,24.874 24.958,22.687 25.816,21.983 C26.827,21.047 29.168,20.583 30.963,20.583 C32.051,20.583 33.3,20.814 33.3,21.437 L33.3,21.437 Z M90.637,29.473 C90.637,32.201 100.387,45.542 102.261,45.542 C103.823,45.542 104.989,42.812 104.989,40.469 C104.989,39.849 104.834,39.225 104.526,38.755 C103.12,36.804 93.213,29.003 91.026,29.003 C90.791,29.003 90.637,29.239 90.637,29.473 L90.637,29.473 Z" id="Fill-18" sketch:type="MSShapeGroup"></path>
            <path d="M215.91,5.839 C215.91,6.927 216.768,7.785 217.861,7.785 C218.955,7.785 219.815,6.927 219.815,5.839 C219.815,4.745 218.955,3.886 217.861,3.886 C216.768,3.886 215.91,4.745 215.91,5.839 L215.91,5.839 Z M203.199,23.076 C203.199,17.538 189.947,16.133 189.947,14.886 C189.947,13.873 197.35,12.154 201.17,12.076 C195.32,4.589 186.982,5.37 186.982,4.044 C186.982,3.261 193.227,1.7 198.99,1.7 C203.824,1.7 208.352,2.793 208.352,6.458 C208.352,8.49 206.713,10.598 206.713,13.715 C206.713,15.433 207.568,16.913 209.836,16.913 C212.258,16.913 212.803,14.34 212.803,11.607 C212.803,9.348 212.412,7.629 212.412,6.537 C212.412,3.261 214.66,1.08 217.861,1.08 C220.516,1.08 221.141,2.246 225.045,2.246 C222.936,3.497 222.156,5.761 222.156,6.85 C222.156,10.129 224.266,12.389 224.266,19.1 C224.266,31.42 212.725,35.789 198.598,35.789 C194.713,35.789 190.572,35.477 186.512,34.856 C185.889,34.778 185.732,34.623 185.732,34.232 C185.732,33.216 191.277,32.669 191.277,27.68 C191.277,25.728 190.65,23.858 190.65,23.156 C190.65,22.766 190.963,22.53 191.277,22.53 C192.447,22.53 194.791,27.055 199.147,27.055 C200.309,27.055 203.199,26.665 203.199,23.076 L203.199,23.076 Z M216.377,15.2 C216.377,22.141 211.32,27.445 202.182,28.926 C203.199,29.003 204.137,29.003 205.074,29.003 C215.752,29.003 219.658,24.169 219.658,20.115 C219.658,17.851 218.408,15.824 216.377,15.2 L216.377,15.2 Z" id="Fill-19" sketch:type="MSShapeGroup"></path>
            <path d="M211.008,115.749 C212.258,111.85 213.82,109.117 216.377,104.905 C213.82,103.582 207.025,100.771 207.025,96.169 C207.025,90.785 213.738,86.574 215.129,86.574 C215.752,86.574 215.91,87.12 215.91,88.135 C215.91,90.942 214.582,95.466 214.582,97.886 C214.582,100.068 215.988,102.176 217.236,102.176 C218.565,102.176 222.232,97.497 222.232,92.893 C222.232,84.621 214.973,82.127 212.725,82.127 C210.617,82.127 206.791,85.558 197.816,85.558 C181.049,85.558 177.223,68.947 177.223,61.69 C177.223,61.378 177.299,61.299 177.377,61.299 C177.768,61.299 179.408,63.33 184.717,63.33 C187.449,63.33 189.947,62.627 193.93,62.627 C203.275,62.627 207.416,69.104 213.195,77.369 C216.69,79.551 225.045,83.064 225.045,92.971 C225.045,101.707 215.752,106.544 213.506,115.905 C217.08,115.517 219.19,109.117 222.857,109.117 C224.732,109.117 225.592,110.601 225.592,112.943 C225.592,116.374 223.639,121.524 219.891,124.721 C219.969,124.408 219.969,124.018 219.969,123.549 C219.969,121.367 219.111,118.25 216.611,118.25 C212.725,118.25 211.475,122.46 209.289,125.967 C207.025,118.014 203.981,110.835 198.521,106.466 C192.996,102.021 183.467,104.436 183.467,96.325 C183.467,94.139 184.873,91.02 184.873,88.524 C184.873,87.667 184.717,86.886 184.246,86.26 C191.744,89.072 189.088,94.06 193.697,99.209 C196.568,102.489 204.527,105.608 209.135,119.103 C209.211,118.713 209.289,117.702 209.289,116.999 C209.289,105.452 194.008,94.139 192.682,89.457 C201.559,90.473 203.121,92.66 207.338,104.358 C208.195,106.78 211.008,112.788 211.008,115.749 L211.008,115.749 Z M208.979,77.915 C208.979,76.278 204.838,76.123 204.449,71.519 C204.369,70.817 204.137,69.572 203.275,69.572 C201.871,69.572 202.963,73.861 201.402,73.861 C197.816,73.861 196.646,66.839 195.32,66.839 C195.006,66.839 194.633,67.073 194.633,68.01 C194.633,68.869 194.791,69.415 194.791,70.426 C194.791,71.441 194.555,72.144 193.619,72.144 C191.51,72.144 189.637,67.229 187.84,67.229 C187.449,67.229 187.06,67.464 187.06,67.853 C187.06,68.791 188.621,70.504 188.621,71.364 C188.621,73.237 183.547,72.222 183.547,73.783 C183.547,74.485 184.246,74.717 185.184,74.717 C186.826,74.717 189.402,74.019 190.729,74.019 C191.51,74.019 192.682,74.174 192.682,75.185 C192.682,76.278 189.871,77.68 189.871,78.695 C189.871,79.164 190.34,79.395 190.729,79.395 C192.838,79.395 196.568,75.732 199.223,75.732 C199.69,75.732 200.857,75.966 200.857,76.669 C200.857,77.68 198.207,79.472 198.207,80.955 C198.207,81.346 198.443,81.815 198.91,81.815 C200.309,81.815 202.182,78.149 204.838,78.149 C205.854,78.149 207.338,78.54 208.119,78.54 C208.744,78.54 208.979,78.149 208.979,77.915 L208.979,77.915 Z" id="Fill-20" sketch:type="MSShapeGroup"></path>
            <path d="M150.86,31.185 C152.113,31.185 152.348,34.232 152.584,36.023 C152.738,36.96 152.894,37.038 153.287,37.038 C154.225,37.038 155.703,33.45 156.705,33.45 C158.185,33.45 162.17,37.584 168.805,37.584 C178.238,37.584 187.139,30.952 187.139,19.254 C187.139,7.943 179.172,1.312 168.18,1.312 C162.951,1.312 159.123,3.886 157.092,3.886 C155.861,3.963 153.986,0.846 153.049,0.846 C152.66,0.846 152.27,1.622 152.27,2.95 C152.27,3.809 152.27,6.537 151.332,6.537 C149.454,6.537 142.202,1.158 142.202,3.106 C142.202,4.901 147.037,10.363 147.037,11.765 C147.037,13.169 142.279,14.497 142.279,15.433 C142.279,17.147 147.35,17.459 147.35,19.646 C147.35,21.827 142.044,23.545 142.044,25.185 C142.044,26.508 147.35,25.575 147.35,27.211 C147.35,28.848 143.451,34.309 143.451,35.866 C143.451,36.258 143.528,36.258 143.838,36.258 C145.32,36.258 149.766,31.185 150.86,31.185 L150.86,31.185 Z M153.129,18.396 C153.129,17.538 150.08,15.901 150.08,14.965 C150.08,14.81 150.235,14.731 150.471,14.731 C151.332,14.731 152.815,15.044 153.986,15.044 C155.004,15.044 155.158,10.675 155.924,10.675 C156.469,10.675 157.404,14.81 158.268,14.81 C159.281,14.81 161.152,13.638 161.935,13.638 C162.092,13.638 162.246,13.715 162.246,13.873 C162.246,14.419 160.295,16.522 160.295,17.147 C160.295,17.851 164.668,18.708 164.668,19.334 C164.668,20.115 160.217,20.037 160.217,20.738 C160.217,21.281 161.857,23.467 161.857,24.169 C161.857,24.326 161.777,24.405 161.623,24.405 C160.998,24.405 158.578,23.311 157.875,23.311 C157.016,23.311 155.627,26.508 154.924,26.508 C154.69,26.508 154.535,26.196 154.535,25.805 L154.377,22.687 C154.377,22.375 154.225,22.062 153.832,22.062 C152.894,22.062 151.098,21.983 150.548,21.983 C150.157,21.983 150.002,21.906 150.002,21.75 C150.002,21.125 153.129,18.943 153.129,18.396 L153.129,18.396 Z M168.338,33.216 C162.871,33.216 159.281,30.488 159.281,29.081 C159.281,28.379 159.748,27.914 160.375,27.914 C162.092,27.914 165.838,30.562 167.088,30.562 C167.4,30.562 167.635,30.41 167.635,29.941 C167.635,28.535 166.309,26.196 166.309,25.029 C166.309,24.716 166.543,24.483 167.012,24.483 C169.117,24.483 172.242,25.342 173.883,25.342 C174.428,25.342 174.582,25.029 174.582,24.716 C174.582,22.999 169.508,19.646 169.508,18.63 C169.508,17.694 175.816,16.288 175.816,14.81 C175.816,13.247 167.242,14.34 167.242,12.857 C167.242,11.765 168.883,9.894 168.883,9.036 C168.883,8.645 168.57,8.49 168.025,8.49 C167.322,8.49 163.574,9.972 162.014,9.972 C161.232,9.972 160.295,9.816 160.295,8.723 C160.295,6.927 163.34,4.979 168.104,4.979 C175.816,4.979 180.424,10.285 180.424,19.177 C180.424,30.41 172.553,33.216 168.338,33.216 L168.338,33.216 Z" id="Fill-21" sketch:type="MSShapeGroup"></path>
            <path d="M115.523,168.17 C115.523,168.873 115.288,169.655 114.663,170.435 C113.809,168.873 111.388,168.091 110.294,168.093 C102.261,168.093 105.303,179.718 96.721,179.718 C93.135,179.718 92.822,179.249 91.496,179.249 C90.948,179.249 90.637,179.484 90.637,179.952 C90.637,181.982 93.524,186.971 101.558,186.971 C109.593,186.971 117.319,182.061 117.319,175.969 C117.319,174.956 117.084,173.87 116.616,172.777 C116.928,172.31 117.71,171.995 118.412,171.995 C119.656,171.995 120.36,173.404 121.53,173.404 C122.78,173.404 123.717,172.466 123.717,171.217 C123.717,170.201 123.17,169.499 122.233,169.028 C122.858,168.561 123.326,167.779 123.326,166.922 C123.326,165.594 122.389,164.353 120.828,164.353 C120.124,164.353 119.656,164.588 119.113,165.125 C118.958,163.728 118.177,162.4 116.694,162.4 C115.523,162.4 114.663,163.259 114.663,164.588 C114.663,165.826 115.523,166.844 115.523,168.17" id="Fill-22" sketch:type="MSShapeGroup"></path>
            <path d="M94.54,171.138 C92.198,171.138 88.689,168.639 88.689,167.232 C88.689,166.062 89.782,165.438 90.637,165.438 C92.589,165.438 96.097,167.858 96.097,169.887 C96.097,170.435 95.706,171.138 94.54,171.138 L94.54,171.138 Z M72.775,153.666 C79.016,155.218 82.135,158.574 82.759,162.557 C83.383,166.374 84.163,169.499 85.644,171.059 C87.595,173.246 91.417,175.189 94.774,175.189 C97.582,175.189 99.841,174.261 99.841,171.685 C99.841,168.873 96.02,162.557 90.402,162.557 C89.859,162.557 89.156,162.637 88.376,162.637 C87.673,162.637 86.659,162.479 86.034,161.934 C84.788,160.839 84.398,154.987 82.055,151.48 C79.484,147.579 76.676,146.484 72.854,146.484 C70.126,146.484 67.08,147.965 67.08,150.151 C67.08,151.48 67.782,152.414 72.775,153.666 L72.775,153.666 Z" id="Fill-23" sketch:type="MSShapeGroup"></path>
            <path d="M111.935,144.142 C111.935,140.634 104.678,140.557 104.678,135.25 C104.678,133.922 105.536,131.663 107.255,129.242 C107.958,133.297 109.593,135.405 113.106,136.733 C120.046,139.306 120.984,143.205 120.984,147.344 C120.984,154.367 116.07,163.103 103.434,163.103 C93.291,163.103 86.034,154.054 86.034,146.407 C86.034,144.298 86.581,141.961 87.907,141.961 C89.079,141.961 89.469,142.894 90.402,143.831 C93.916,147.344 97.736,148.277 103.276,148.277 C108.269,148.277 111.935,146.25 111.935,144.142 L111.935,144.142 Z M112.248,149.76 C109.571,150.985 108.504,150.775 108.504,153.509 C108.504,154.522 108.269,155.842 108.269,156.545 C108.269,157.481 108.426,158.029 109.516,158.029 C112.326,158.029 116.771,153.273 116.771,149.214 C116.771,148.12 116.147,147.658 115.444,147.658 C114.819,147.658 114.122,148.902 112.248,149.76 L112.248,149.76 Z M87.361,110.367 C87.361,105.374 99.221,102.723 99.221,96.559 C99.221,95.544 98.83,93.753 98.127,92.424 C102.261,94.685 105.303,98.512 105.303,101.629 C105.303,107.013 99.689,109.508 99.689,112.865 C99.689,116.765 105.693,117.39 105.693,122.226 C105.693,126.201 99.998,130.805 99.998,135.953 C99.998,139.93 102.807,143.205 107.098,143.752 C105.693,144.065 104.447,144.298 103.12,144.298 C95.239,144.298 87.127,137.828 87.127,130.1 C87.127,126.278 88.768,122.929 91.26,120.509 C93.446,122.382 95.629,123.628 97.035,123.628 C98.284,123.628 98.83,123.006 98.83,122.071 C98.83,119.18 87.361,116.531 87.361,110.367 L87.361,110.367 Z" id="Fill-24" sketch:type="MSShapeGroup"></path>
            <path d="M42.114,148.902 C42.442,151.566 44.926,153.586 47.734,153.273 C48.745,153.163 49.685,152.884 50.31,152.493 C50.934,154.987 53.028,156.593 55.857,156.223 C58.731,155.85 60.685,153.586 60.374,150.697 C60.291,149.921 60.139,149.448 59.906,148.902 C59.906,148.902 60.286,148.863 60.573,148.809 C63.388,148.277 65.289,146.018 65.054,143.285 C64.742,140.477 62.224,138.392 59.599,138.715 C58.582,138.84 57.641,139.228 57.016,139.774 C56.313,137.437 54.114,135.404 51.109,135.901 C48.397,136.351 46.603,138.652 46.875,141.569 C46.919,142.043 47.029,142.585 47.265,143.127 C47.265,143.127 46.804,143.196 46.489,143.242 C44.212,143.581 41.743,145.874 42.114,148.902 L42.114,148.902 Z M56.692,145.835 C56.882,147.464 55.718,148.933 54.09,149.124 C52.46,149.314 50.984,148.147 50.798,146.52 C50.609,144.89 51.772,143.414 53.403,143.224 C55.032,143.034 56.504,144.202 56.692,145.835 L56.692,145.835 Z" id="Fill-25" sketch:type="MSShapeGroup"></path>
        </g>
    </g>
</svg>