<svg xmlns="http://www.w3.org/2000/svg" width="250" height="140"><g fill="#FFF" fill-rule="evenodd"><path d="M116.82 136.2c1.08 0 2.94-.35 4.4-2.7-.83-1.86-1.43-5.62-1.5-7-.44-7 2.25-13.58 5.2-13.76 2.17-.13 3.9 1.92 4.1 5.24.53 8.72-2.37 12.37-3.83 15.5.2 1.22 2.3 3.3 4.2 3.3.7 0 1.6-.36 1.8-.66-.2-.5-.3-1.15-.3-2.1 0-5.05 3.2-9.3 6-9.3 2.2 0 3.5 2.95 3.5 4.9 0 2.32-2 4.2-4.9 6 .5.5 1.4.87 2.2.87 4.1 0 6.2-5 7.8-9.6.3-.9.8-2.1 1.8-2.1 1.7 0 2.4 11.4 5.3 11.4 1.2 0 2.2-2.6 2.2-4.5 0-1.5-.5-1.6-.5-3.7 0-2.3 1.2-4.3 2.9-4.3 1 0 1.4 1 1.4 2.2 0 4.6-3.4 13.2-8.3 13.2-3.7 0-3.4-6.4-4.7-6.4-1.5 0-3.5 6.4-10.6 6.4-1.2 0-2.4-.6-3.4-1.8-1.7 1.2-3.2 1.7-4.9 1.7-2.7 0-3.8-2.8-4.9-2.8-1.3 0-2.8 2.8-7.1 2.8-3.5 0-4-4.6-5.3-4.6-1.1 0-2.8 4.6-4.6 4.6-3 0-3.7-8-6.3-8-2.1 0-8.7 8.1-10.5 7.9-.8-.1-1.1-.6-1-1.4.1-1 .9-3.7 1.3-4.9.6-2.2 1.1-4.6 1.4-5.4.3-.8 1.1-1.4 1.7-1.3.4 0 .5.6.6 1.1.3 1.8.8 3.6 1.4 3.6 1 0 4.4-6.4 6.3-6.4 2.4 0 2.7 10.1 6 10.1 1.1 0 1.9-1.3 2.6-2.9.1-2.7.8-6.5 3-6.5 1.5 0 2.3 3.4 1.2 6.4 0 3.5 2.3 4.4 3.8 4.4zm57.77-8.67c-.9 3.72-3.7 9.18-7.7 9.18-1 0-2.6-.3-2.6-1.3s6.3-1.1 6.3-6c0-1.8-1.7-4.3-4.1-4.3-3.3 0-6.4 3.6-6.4 8.5 0 4.4 2.7 5.9 5.4 5.9 4.7 0 7.6-3.9 9.2-7.1.7 2.2 1.1 7.2 2.9 7.2.7 0 1.2-.4 2.1-2.3 2.1-4.9 4.2-10.4 7.1-10.4 1.1 0 .4 2 3 2 1.2 0 2.1-1 2.1-2.1 0-1.7-1.5-3-3.8-3-6.8 0-8.2 10.2-9.3 10.2-1.8 0-1.2-8.2-2.5-8.2-1.2 0-1.8 1.4-1.9 2.1zm-48-7.6c-.1-2.02-.6-2.93-1.7-2.86-1.5.1-2.1 4.62-1.8 9.37.2 3.1.6 3.58 1.1 3.55.8-.1 2.7-5.6 2.4-10.1zm-11.8-4.24c-.1-1.2-1-2-2.3-2-1.4 0-2.7 1.4-2.6 3.2.1 1.2.8 2.2 2.1 2.2 1.6 0 2.7-1.8 2.6-3.5zm22.4 14.7c0-1.3-.7-2.3-1.5-2.3-.7 0-2.2.7-2.2 3 0 1.8.6 2.6.9 3 2.1-.7 2.6-2.4 2.6-3.9zm28.2-2.5c1.5 0 1.9 1.8 1.6 2.9-.4 1.1-1.7 2.3-3.7 2.7-.5-1.1-.7-5.6 2.1-5.6zm-83.2-5.1c-.2-.7-.8-2.2-1-3.2-.4-2.4.9-4 2-4.4 1.3-.4 1.8.3 2.3 1.8.7 2.3.7 5.3.5 9.7-.3 5.9-3.2 13.1-10.6 12.9-6.3-.2-9.2-4.3-9.4-10.6-.2-2.9.1-5.9 1.3-10.1.6-2.2 1.2-3 3.2-3.5 1.6-.3 1.4 1.3 1.1 3.3-.8 4.3-1.2 6.4-.9 11.3.3 5.2 2.7 7.2 5.3 7.2 3.9 0 5.6-3.2 6.3-7.9.6-3.8.1-5.6-.2-6.7zm85.2-94c.5 3.6 6 8.5 7.5 8.4 1-.1 1.4-4.8 1.4-8.4 0-2.2.1-3.8-1-4.2-1.8 3.5-6.4 4.3-7.9 4.1zm.3-1.7c4 0 7.6-3.2 7.6-6 0-1.3-.7-2.4-2.2-2.6.2.3.4.6.4 1.2 0 2.1-3.3 4.4-6.8 4.4-1.3 0-1.7.8-1.7 1.3 0 1 1 1.5 2.5 1.5zm-.9-4.4c-.6 0-1.3 0-1.8-.9-.4-.7-.3-1.8-.9-2.3.6.2 1.3.2 1.9.2 1.7 0 3.3-1.2 4.6-1.2.8 0 1.1.5 1.1 1 0 1.7-3.4 3.1-5 3.1zM81.4 53c1.3 0 1.04-7.98 3.14-7.98.5 0 .65.5.65 1.1 0 1.8-.9 4.46-.9 5.9 0 .74.2.97.5.97.9 0 2.5-8.8 4.1-8.8.5 0 .7.5.7 1 0 1.8-2.4 7.1-2.4 8.6 0 .2.1.4.2.4.9 0 2.8-4.2 3.5-6.2.3-1.1.8-1.7 1.2-1.7.4 0 .7.4.7 1.3 0 2-1.9 6.9-3.6 10.2-1.3 2.5-3.3 6.1-3.3 8.2 0 1 .2 2.1 1.7 3.4-2.5-.2-3.5-.4-4.4-2.3-4.1 8.1 7.5 7.3 3.5 14.6-.8-1.3-6.5-2.7-6.5-10.3 0-6.6 5.8-10.4 5.8-13.1 0-.6-.2-1-.7-1.4-1.3-1.1-1.3-2-2.3-2-.8 0-1.6 1.6-.7 3.1.3.5.5.8.5 1.2 0 1-1.7 3.9-2.9 3.9s-2.1-3-2.1-7.7c0-4.2 1-8.5 2.2-8.5.3 0 .4.2.4.5 0 .5-.2 1.5-.2 3.1 0 1.8.5 1.9.8 1.9m10.1 11.7c1.6 0 2.9-1.2 2.9-3.9v-4c0-1.5.1-3.2 1.1-4.4-.1.5-.1 1-.1 1.5 0 3.3 1.8 5.5 1.8 8.7 0 1.1-.4 1.8-1.3 1.8s-.8-.8-1-.8c-.2 0-.4.5-.4 1 0 .8.6 2 2.2 2 1.3 0 2.5-1.3 2.5-2.7 0-3.5-2.7-7.3-2.7-11 0-1.6.4-2.7.7-3.5 0 7.6 6.4 13.1 6.4 16.3 0 .7-.6 1.3-1.4 1.3s-1.3-.7-1.3-1.2c0-.3 0-.4-.1-.4-.2 0-.9.7-.9 1.7 0 1.3 1.1 2.8 3 2.8 2.2 0 3.4-1.8 3.4-3.5 0-4-7.8-10.1-7.8-16.6 0-1.1.2-2.9 1-4.3-5 3.2-6.6 7.6-6.6 11.4 0 3.3-.1 4.9-1.8 4.9-.9 0-1.1-.8-1.4-.8-.2 0-.3.7-.3.8 0 1.4 1.1 2.2 2.1 2.2m66.4-38.3c1.7 0 3-.8 3-1.2 0-.1-.2-.3-.7-.3s-1.5 0-3.4-.3c-1.6-.2-2.8-.9-3.3-.9-.1 0-.2.1-.2.2 0 1 1.9 2.6 4.7 2.6zm-8.6-4.6c.5-.4 2.7.2 5.5-1.2.3-.2.7-.3 1-.3 1.3 0 1 1.6 2.2 1.6.9 0 2.1-.8 2.9-.8 1.1 0 2.8 3.6 2.8 5.3 0 1.9-3 3.1-6.5 3.1-5.1 0-8.2-4.5-8.2-7.4 0-.2.1-.3.2-.4zM92 78.6c-1.26.3-3.3 2.3-3.3 5.5 0 3.8 4.04 9.6 10.66 9.6 5.6 0 6.98-3.8 6.98-6.5 0-5.8-3.54-9.8-8.2-9.8-2.5 0-4.77 1.9-4.77 4.6 0 2.6 1.9 6.3 6.48 6.3 2.15 0 3.4-1.5 3.4-3.3 0-1.7-1.56-4.1-3.86-4.1-.7 0-1.2.5-1.2 1.2 0 1 1.2 1.9 2.8 1.9.4 0 .7-.1.8-.1 0 .1.1.3.1.5 0 .9-.9 1.4-2.2 1.4-2 0-3.9-1.4-3.9-3.7 0-1.3 1.2-2.3 2.9-2.3 3.4 0 5.4 3.1 5.4 6.1 0 2.7-1.5 4.3-4.6 4.3-6.1 0-9.1-5.5-7.8-11.1m40.7 14.8c0 .9.7 1.5 1.5 1.5s1.5-.7 1.5-1.5-.7-1.5-1.5-1.5-1.6.7-1.6 1.5zm2.9 7.7c1.8 0 1.7-.1 2.3-.1.6 0 .6.36.6.6 0 .84-1.9 1.9-5.2 1.9-2 0-3.2-1.04-3.5-2.2-1.9 1.24-4.8 2.35-7.7 2.35-7.9 0-9.9-3.4-12.3-4.5-1.9-.8-4.8.8-8.8-3.6.5.1 1.2.1 1.8.1 3.5 0 5.4-1.7 5.4-4.4 0-.3 0-.7-.1-1 1 .4 3.5 2.26 4.1 5.5 0 .4 1.6.74 2.6.74 1.3 0 3.1-.5 3.4-2.8 4.6-.4 7.7-3.1 8.3-6.5 1.6.5 3.5 2 4 2.8.6-.3 1.4-.4 2.3-.4 1.2 0 2.6.2 4.2.7 0-.5.1-1.1.9-1.1 1.1 0 .8 1.3 1.2 2 .2.4 1.2.6 1.2 1.4 0 .7-.6 1-1 1-.2 0-.4-.1-.5-.1-.8.22-.8 5.8-4 5.8-2.3 0-4.5-2-5.5-4.4-.2-.8-.8-1.2-1.4-1.2-.6 0-.9.1-1.7.9-2.1 2.2-5.6 4.2-9.8 4.2-1.3 0-2.4-.1-2.6-.1h-.2c0 .25 1.3 1.3 4.1 1.3 6.7 0 8.4-3.8 9.5-3.8.1 0 .6 0 .9.6 1.5 3.7 5 4.5 7.1 4.5zM159 76.7c-.8 0-5.25 5.95-8.12 5.95-.7 0-1.26-1.3-1.26-2.3 0-.54.34-.92 1.57-1.2 6.6-1.48 5.1-6.43 10.7-6.43 3.1 0 6.5 2.1 6.5 6.86 0 5.06-7.2 11.35-8.3 11.35-.9 0-1.9-1.27-1.9-2.1 0-.28.1-.63.8-.93 3.6-1.46 5.8-4.83 5.8-6.56 0-.38-.2-.76-.7-.76-.7 0-3.5 6.36-6.6 6.36-2.2 0-4.4-1.95-4.4-2.87 0-1.54 6.2-4.37 6.2-6.52 0-.8-.4-.84-.7-.84zm4.14-2.37c-.54 0-1.12.43-1.12 1.46 0 1.1.9 1.8 1.38 2.1.27.1.7.3 1.1.3 1.13 0 2-.3 2-1.3 0-1.2-1.72-2.7-3.36-2.7zM91.52 29.96c0 .84.7 1.53 1.53 1.53.84 0 1.53-.7 1.53-1.6 0-.9-.7-1.6-1.53-1.6-.84 0-1.53.7-1.53 1.5zm-2-3.45c0 .9.7 1.6 1.54 1.6.84 0 1.53-.7 1.53-1.5s-.7-1.5-1.6-1.5c-.9 0-1.6.7-1.6 1.6zM88.15 37c-.9.24-2.72 1.3-2.72 3.23 0 1.38 1.07 2.26 2.4 2.26.7 0 1.2-.2 1.5-.4-1.07-1.1-1.45-2.2-1.45-3.4 0-.8.1-1.3.27-1.8zm-9.4.55c-.03.2-.03.38-.03.57 0 1.8.96 2.8 2.22 2.8.96 0 2.07-.58 3.07-1.84-.4.07-.9.1-1.3.1-1.4 0-2.9-.37-3.8-1.63zm-1.33 3.4c0 2.92.88 4.3 2.45 4.3 1.22 0 2.87-.88 4.83-2.57-1.5.35-2.65.58-3.68.58-1.38 0-2.45-.54-3.6-2.3zm9.92-15.32c.2-.62.35-1.38.35-2.22 0-1.8-.9-4.6-3.5-4.6-1.5 0-2.6 1.2-2.6 2.6 0 3.1 3 4.3 5.6 4.3zm-3.26 9.66c-1.26 0-2.64-1.6-2.64-3 0-.8.57-1.8 1-1.8.15 0 .22.1.26.4.23 1.8 1.46 2.9 2.6 3.4.13.1.2.1.2.2 0 .2-.73.6-1.42.6zm3.53-4.7c.3.3 1 .8 1 1 0 .5-.3 1.2-.9 1.2-1.3 0-2.4-2.1-2.4-3.2 0-.8.4-.8 1-.8.3 0 .4 0 .6.1.4.2.4.9.8 1.5zm-9 4.7c0 .1-.1.2-.1.4 0 .3.4.7.8.7.3 0 .5-.1.7-.1.9 0 2 .6 3.5.6.9 0 1.9-.3 3.2-1 2.8-1.4 3.9-4.8 3.9-5.4 0-.8-.6-.7-1.1-1.3-.5-.7-.3-1.3-.6-1.6-.2-.2-.7-.2-1.4-.3-.2-.1-.5-.1-.8-.1-1.3 0-2.8.1-4.4 1.2-3.3 2.1-2.8 5.6-3.4 6.5zm12.8-1.5c-.8 1-1.7 2.7-1.7 4.4 0 2 1.3 3.8 3.3 3.8 1.9 0 2.8-1.6 2.8-3.3 0-2.6-2.3-4.4-4.2-5zm-8.2-7.4s-1.1.8-2.5.8c-1.6 0-2.9-1.2-2.9-3 0-1.2.6-2.4 2.1-3v.6c0 2.1 1.2 3.8 3.5 4.4zm67.5 12.7c0 .8.8 1.6 1.6 1.6.9 0 1.6-.8 1.6-1.6 0-.9-.7-1.7-1.6-1.7-.8 0-1.6.7-1.6 1.6zm.1 4.8c0 1 .8 1.8 1.8 1.8s1.8-.8 1.8-1.8-.8-1.8-1.8-1.8-1.8.8-1.8 1.8zm-5.5 3.2c0 1.4 1.2 2.6 2.7 2.6s2.7-1.2 2.7-2.7c0-1.5-1.2-2.7-2.6-2.7-1.4 0-2.6 1.2-2.6 2.6zm1.4-5.4c0 .8.7 1.5 1.6 1.5.9 0 1.6-.6 1.6-1.5 0-.8-.7-1.5-1.5-1.5s-1.5.7-1.5 1.5zm-5 3c0 .8.7 1.5 1.6 1.5.9 0 1.6-.7 1.6-1.6 0-.8-.7-1.5-1.5-1.5s-1.5.7-1.5 1.6zm4-9c0 1.3 1.1 2.4 2.5 2.4s2.5-1.1 2.5-2.5-1.1-2.5-2.4-2.5-2.5 1.1-2.5 2.5zm2.9-4.7c0 .8.7 1.4 1.5 1.4s1.5-.7 1.5-1.5-.6-1.5-1.4-1.5c-.8 0-1.5.6-1.5 1.4zm-6.9 3.7c0 .8.7 1.4 1.5 1.4s1.5-.7 1.5-1.5-.6-1.5-1.4-1.5c-.8 0-1.4.6-1.4 1.4zm-.2 5c0 1.3 1.1 2.3 2.4 2.3 1.3 0 2.4-1.1 2.4-2.4 0-1.3-1-2.3-2.3-2.3-1.3 0-2.3 1-2.3 2.3zm-4.8 2.4c0 1.2 1 2.2 2.2 2.2 1.2 0 2.2-1 2.2-2.2 0-1.2-.9-2.2-2.1-2.2-1.2 0-2.2 1-2.2 2.1zm1.3-5.4c0 .8.7 1.5 1.6 1.5.9 0 1.6-.7 1.6-1.6 0-.8-.6-1.5-1.5-1.5s-1.5.7-1.5 1.5zm13.5 11.8c0-.8.7-1.4 1.5-1.4.9 0 1.5.6 1.5 1.4 0 .9-.6 1.5-1.5 1.5-.7 0-1.4-.6-1.4-1.5zm1 44c.2 0 .4.1.4.8 0 .9-.3 2-1.7 2.9-.9.6-2.2 1.2-4.2 1.2.4-.9.6-1.8.6-2.8V94h.5c3 0 4.3-1.2 4.6-1.2zm.3-3.8c.3-.2.4-.7.4-1.1V87c0-1.1-1.7-1.74-4-1.74-2.8 0-4.3 1.2-4.3 1.8v1.7c0 .73 1.7 1.46 3.8 1.46 1.7 0 3.2-.43 4.2-1.27zm2 .4c-1 .7-3.3 2.5-7.2 2.5-2 0-3-.7-3.3-.7-.4 0-.8.4-1.2.9-.9 1.1-2.1 3.1-2.1 5.3 0 1.5 1.2 3 3.4 3 7.2 0 12.6-4.5 12.6-8.1 0-2.1-1.2-2.9-2.1-2.9zm1.4-32.2c0 .9.3 2 1.3 2 .8 0 1.5-1.2 1.5-2.5 0-1.6-.3-2.7-.3-3.4 0-.3.1-.4.3-.4.5 0 1.1 1.6 1.7 1.6.7 0 1.7-1.3 2.1-1.3.1 0 .2.1.2.2 0 .5-.9 1.8-.9 2.3 0 .4 2.3.5 2.3.9 0 .6-2.3.6-3.4 1.1-1 .4-1.7 1-1.7 1.8 0 .7.8.9 1.8.9 2.6 0 4.4-1.4 5-1.4.1 0 .2.1.2.2 0 .4-1.3 1.6-1.3 2.2 0 .6 2.4 1.4 2.4 1.8 0 .1-.2.1-.5.1-.4 0-1-.1-1.5-.1-.3 0-.6 0-.7.1-.2.3.1 2.3-.4 2.3s-1.8-4.5-4.7-4.5c-.4 0-.7.3-.7.9 0 1.5 1.5 3.3 2.9 4.1.7.4 1.7.9 1.7 1.1 0 .4-2.4 0-2.4.8 0 .7.3 1.7.3 2.3 0 .2 0 .4-.2.4-.4 0-1.5-2.1-2.1-2.1-.4 0-1.4 1.3-1.9 1.3-.1 0-.1-.1-.1-.2 0-.9 1.4-2.9 1.4-4.8 0-1-.1-2.9-1.2-2.9-.9 0-1.9 1.4-2.4 2.9-.3.8-.1 4.1-.7 4.1-.5 0-.4-2.2-1.2-2.2-.5 0-1.8 1-2.2 1-.1 0-.1-.1-.1-.1 0-.5 1.1-2 1.1-2.3 0-.6-2.5-.6-2.5-1.1 0-.3 1-.4 1.9-.6 1.9-.3 4.8-1.8 4.8-3.8 0-2.2-2.1-3.2-3.5-4.1-.72-.5-1.6-.9-1.6-1.2 0-.3.9-.3 1.3-.3.6 0 1.1-.07 1.1-.5 0-.37-.1-1.06-.1-1.6 0-.4 0-.7.2-.7.6 0 1.4 1.9 1.8 1.9.6 0 1.4-1.56 2-1.56.13 0 .2.1.2.5 0 1.4-.7 3-.7 4.4zm-18.5-11c.4 3.2 4.8 1.6 4.8 5.5 0 .6-.1 1.4-.1 2.1 0 .9.1 1.6.8 1.6s.8-.5.8-1.1c0-.6-.1-1.4-.1-1.8 0-1.4 1-1.7 1.6-1.7 1.5 0 2.6 1.5 4.8 1.5-.5 2.5-5.6 1.8-5.6 4.5 0 1.4 1.4 1.7 2.3 1.7.8 0 1.1-.1 1.1-.8 0-.4-.1-.8-.1-1.1 0-.1.1-.3.3-.3.9 0 5 3.2 5 4.1 0 .9-4.3 1.8-5.6 1.8-.3 0-.4-.2-.4-.4s.7-1 .7-1.5c0-.3-.6-.6-2.1-.6-.7 0-1.3.1-1.3.7 0 1.1 1.7 2.3 1.7 3.3 0 .8-.5 1.2-1.7 1.2-1.1 0-2.6-.8-2.6-2.1 0-1 1.1-2.1 1.1-2.8 0-.2-.2-.5-.6-.5-1.4 0-1.8 3.8-6.8 4.2.8-.7 1.5-1.5 1.5-3.1 0-.8-.2-1.5-.2-2.4 0-1.2.5-1.8 1.3-1.8 1.4 0 2.1 2 3 2 .5 0 1-.5 1-1.2 0-2.9-5.6-2.5-5.6-6.6 0-1.1.4-2.5 1.4-4.4zm7.3 25c0 .5.4.9 1 .9s1-.6 1-1.2c0-.8-.7-1.9-1.4-1.9-.3 0-.2.5-.3 1-.1.4-.3.9-.3 1.2zm-2-5.1c4.1.7 6.3 3.8 6.3 6.6 0 1.9-1.2 3.7-3.4 3.7-2 0-3.4-1.3-3.4-3.5 0-1.6 1.3-3.3 1.3-5 0-.7-.2-1.3-.7-2zm-5 6.5c.4.4.5.7.5 1.1 0 .5-.2 1.1-.2 1.8 0 .9.7 1.7 1.6 1.7 1.1 0 1.8-.9 1.8-1.9 0-1.5-1.5-2.9-3.7-2.9zm12.7-2.5c.2.4.4.8.4 1.2 0 1.1-.8 2-.8 3.2 0 1.2.9 2.3 2.4 2.3s2.6-1.3 2.6-2.8c0-2.1-1.9-3.8-4.7-4zm-11.8-2.1c1.8.2 2.2.8 2.2 1.3 0 .9-.8 1.1-1.5 1.1-.5 0-1.1-.1-1.8-.1-.8 0-1.7.2-2.4 1 .5.1 1.2.4 1.2 1.2 0 2.2-6.2.4-6.2 6.1 0 3 3.1 6.3 7.9 6.3 2.4 0 4-.8 4-1.8 0-.8-1.3-.3-1.3-.9 0-.3.4-.8.4-1.2 0-.2-.1-.6-.4-.6-.7 0-2 1.1-4.7 1.1-2.1 0-4.1-1.2-4.1-2.8 0-.4.2-.6.4-.6s.5.1.8.1c.2 0 .3-.1.3-.6 0-.4 0-1.6.8-1.6s2.1 2.7 7.4 2.7c1.8 0 5.2-.3 6.4-1.5-.1 4.2-3.4 9.8-10.3 9.8-7.2 0-11-5.8-11-11 0-5.9 4.8-11.2 11.3-11.2 1.7 0 3.1.6 3.1 1.3 0 1-2.5.4-2.7 1.6zM114 24c2.53 0 3.68 2.18 3.68 4.6 0 1.1-.3 2.67-.8 2.67s-.42-.9-.5-1.7c-.08-1-.27-1.3-.6-1.3-.67 0-1.1 1.5-1.1 2.9 0 .9.17 1.8.85 1.8.4 0 .8-.2 1-.4-.1 1.7-1.4 3.3-3.3 3.3-3.3 0-4.6-4-5-6.3-2 2.1-3.9 3.7-7.3 3.7-3.1 0-4.5-2.3-4.5-4.5 0-.7.3-2.4 1.1-2.4 1 0 .1 3.1 2 3.1.5 0 1.3-.4 1.8-1.7.3-.8.5-1.6.5-2.3 0-1-.2-1.7-1-1.7-.63 0-1.43.5-1.7.7.97-2.78 3.2-4.2 5.6-4.2 3.07 0 4.68 2.7 4.68 5.7 0 .4 0 .83-.1 1.3 1.4-2.2 3.2-3.8 5.1-3.8zm-2.95 4.5c0-.63-.15-.8-.3-.8-.4 0-.8.47-1.42 1.5.1 1.4.3 2 .7 2 .4 0 1.1-1.34 1.1-2.7zm-5.25 1.6c.42 0 .96-.4 1.96-1.6.07-.5.07-.9.07-1.5 0-.7-.3-1.6-.7-1.6-1.1 0-1.7 3.1-1.7 3.9 0 .5.3.9.5.9zm6.25 3.4c.96 0 2.03-3.7 2.03-6 0-.5-.08-1-.3-1-.8 0-2.15 3.8-2.15 5.9 0 .8.2 1.2.5 1.2zm-9.4-2.1c1.3 0 2.8-7 2.8-8.2 0-.3-.1-.5-.38-.5-1.18 0-2.83 6.7-2.83 8.2 0 .3.1.6.5.6zm4.18 2.9c-1.6 0-1.7 2-1.7 6.1-1.2-2.6-3.2-5.5-5.6-5.5-1.6 0-2.2 1.1-2.2 3 0 .4.1 1 .1 1.3.2-.6.8-.9 1.6-.9 1.7 0 3.7 1.3 5 3-1.5-.2-2.9-.5-4.2-.5-.7 0-1.4.1-2 .4-1.1.5-2.6 2.1-2.6 4.6 0 .4.1.8.1 1.3 1.4-3 4.9-4.3 7.2-4.3.5 0 .8.1 1.1.1-1.2 1.1-1.4 2.9-1.5 4.2 0 .6-.2.7-.7.7 0 1.3 1 3.1 1 4.1 0 .3-.1.7-.3.7 0 1.7 1.7 2.9 1.7 4 0 .3-.03.5-.2.6.1.7 2 1.9 2.2 2.5.3.7.6.8.8.8.7 0 1.7-.8 1.7-1.5 0-.2-.2-.5-.3-.6-.72-.5-1.1-1.7-1.4-2.4-.3 0-.63-.1-.75-.55-.2-.8-.2-2.25-.5-3.13-.5-.1-.74-.3-.74-1.4 0-.5.3-2.5.3-3.2-.22 0-.52-.1-.52-.6 0-1.2 1.25-2.2 1.6-3.73 2.17 1.6 2.7 3.3 2.7 4.7 0 .8-.1 1.5-.27 2.2 1.6-.8 4-2 4-4.4 0-1.4-.67-3-5-3.6 1.34-.5 3.03-.8 4.45-.8 2.47 0 3.9.8 4.2 2.5.5-.8.9-1.7.9-2.5 0-1.9-1.6-3.1-3.56-3.1-2.33 0-4.4 1.2-6.6 2.7 1-2.1 1.7-3.3 2.9-3.3.2 0 .37.1.56.1-.45-1.7-2.2-3.3-3.1-3.3M171.6 62c1.9 0 3.44 2.5 3.44 5.4 0 3.1-1.5 6.5-4.1 8.8-.1-5.18-6.4-3.5-6.4-7.3 0-1.6 1.15-2.67 2.53-2.67 1.24 0 2.2.34 2.9 1.03-.66-.64-1-1.56-1-2.44 0-1.44.92-2.8 2.6-2.8M143 22.7c-.3-.5-1.45-.77-2-.77-1.68 0-2.83 1.18-3.06 2.26-.12-.4-.23-.8-.23-1.3 0-1.7 1.2-3.7 4-3.7 2.5 0 3.4 1.3 3.8 1.3.4 0 .8-.4 1.1-.4.4 0 .4.6.4 1.1 0 1.5-.7 4.1-2.4 5.1-.3-.7-.9-1.4-1.9-1.9-.3-.1-.4-.4-.4-.6 0-.5.4-1 .9-1.2zm-5.8 2.8c1 .95 1.9 1.37 2.97 1.37.44 0 .94-.1 1.2-.1.35 0 .58.1.58.4 0 .4-.35 1.1-.8 1.5.43.2.93.3 1.5.3 2.14 0 4.64-1.4 4.64-4.9.4.6.7 1.9.7 2.46 0 4.2-3.1 5.8-5.9 5.8-1.9 0-2.8-.63-3-.63-.7 0-.7 1.45-1.2 1.4-.9-.16-1.7-2.1-1.7-4.2 0-1.2.3-2.5 1-3.5zM104.4 1.2c0-.23-1.14-.46-2.7-.46-2.5 0-2.16 2.07-4.08 2.07-2 0-1.5-2.1-4.1-2.1-1.52 0-2.94.3-2.94.6 0 .5 1.8.3 1.8 1.6 0 1.4-3.87 1.8-3.87 2.6 0 .3.3.4.7.4.9 0 2.2-.3 3.2-.3.6 0 1.1.1 1.1.6 0 1-2 2.7-2 3.5 0 .3.2.3.4.3.8 0 2.1-1.9 3.3-1.9 2.1 0 .7 4.4 1.8 4.4 1.2 0 .7-4.3 2.3-4.3 1.4 0 2.4 3 3.3 3 .2 0 .4-.2.4-.4 0-.8-1.1-2.4-1.1-3.5 0-.7.5-1 1.1-1 .9 0 2.1.6 2.8.6.2 0 .5-.1.5-.3 0-.9-3.4-1.9-3.4-3.1 0-1.2 1.9-1.2 1.9-1.7zm9 3.9c0 .7 2.42 2.2 3.54 2.2.7 0 .9-.9.9-1.8 0-1.16-.5-1.2-1.5-1.2-1.27 0-2.88.35-2.88.8zm4 7.6c0-2.3-6.2-6.5-6.3-8.3 0-.15.1-.3.23-.46 1.07-1.12 5.5-1.94 5.5-2.9 0-.5-.93-.5-1.4-.5-3.55 0-8.76 1.3-8.76 2.57 0 1.3 4.67 4.5 4.67 6.1 0 .4-.3.6-.7.6-1.3 0-4.1-1.5-5.5-1.5-.6 0-.8.4-.8 1.1 0 1.9 2.2 5.4 2.2 6.4 0 .1-.02.3-.2.3-.7 0-3.92-3.8-5.1-3.8-.4 0-.43.6-.43 1.5V15c0 .9 0 1.4-.4 1.4-1 0-1.4-2.8-2.4-2.8s-1.2 5-2.1 5c-1.1 0-.1-5.5-1.2-5.5-1.2 0-2.5 3.6-3.3 3.6-.3 0-.4-.3-.4-.6 0-1.1.7-2.9.7-3.97 0-.53-.1-.84-.6-.84-1.2 0-3.8 1.9-4.8 1.9-.1 0-.3-.1-.3-.2 0-.9 4.2-3.9 4.2-5.2 0-1.3-5.7-.4-5.7-1.9 0-1.2 4.1-2.5 4.1-3.8-.3-1.4-5.1-1.9-7-1.9-2.3 0-3.5.2-3.5.9 0 1 5.1 1.3 5.1 2.2 0 .8-5.3 3.1-5.3 4.4 0 1.1 7.5 0 7.5 1.2 0 1.3-6.5 6.9-6.5 8.8 0 .4.3.6.7.6 2 0 7.2-3.8 8.6-3.8.5 0 .5.7.5 1.2 0 1-.3 2.6-.3 3.7 0 .9.3 1.5 1 1.5 1.5 0 2.8-2.4 3.7-2.4 1.2 0 .5 7.1 2.4 7.1 1.5 0 2.2-7.6 3.2-7.6s1.8 2.3 2.7 2.3c1.2 0 .6-3.9 1.9-3.9 1.4 0 5.2 4.6 6.9 4.6.6 0 .8-.4.8-.9 0-2-2.8-6.6-2.8-8.1 0-.4.1-.5.5-.5 1.5 0 5.8 2.1 7.9 2.1.7 0 1.1-.4 1.1-.9zm-35-2.23c0 .77-2.9 3.33-3.94 3.33-.36 0-.5-.5-.5-.9 0-.8.37-1.9.8-2.2.5-.5 1.64-.7 2.52-.7.54 0 1.16.1 1.16.4zm28.17 3.95c0 1.4 4.8 7.9 5.7 7.9.78 0 1.35-1.3 1.35-2.5 0-.3-.1-.6-.3-.8-.7-.93-5.55-4.8-6.63-4.8-.1 0-.2.1-.2.27zm61.54-11.6c0 .6.5 1 1 1s1-.4 1-.94-.4-.95-.9-.95-.9.44-.9.98zm-6.2 8.5c0-2.7-6.5-3.4-6.5-4 0-.5 3.6-1.32 5.5-1.36-2.8-3.7-6.9-3.3-6.9-3.94 0-.4 3.1-1.17 5.9-1.17 2.4 0 4.6.5 4.6 2.3 0 1-.8 2.06-.8 3.6 0 .83.4 1.56 1.6 1.56 1.2 0 1.5-1.2 1.5-2.6 0-1.1-.2-1.9-.2-2.5 0-1.6 1.1-2.6 2.7-2.6 1.3 0 1.6.6 3.5.6-1 .6-1.4 1.8-1.4 2.3 0 1.6 1.1 2.8 1.1 6 0 6.1-5.7 8.2-12.6 8.2-2 0-4-.1-6-.4-.3 0-.4-.1-.4-.3 0-.5 2.7-.8 2.7-3.2 0-.9-.3-1.8-.3-2.2 0-.2.2-.3.3-.3.6 0 1.8 2.2 3.9 2.2.6 0 2-.2 2-1.9zm6.5-3.84c0 3.4-2.5 6-7 6.75.5.06 1 .06 1.5.06 5.3 0 7.2-2.4 7.2-4.4 0-1.1-.6-2.1-1.6-2.4zm-2.6 49.4c.6-1.92 1.4-3.26 2.7-5.33-1.2-.65-4.6-2.03-4.6-4.3 0-2.63 3.3-4.7 4-4.7.3 0 .4.27.4.76 0 1.4-.6 3.6-.6 4.8 0 1.1.7 2.1 1.3 2.1.7 0 2.5-2.3 2.5-4.5 0-4-3.5-5.3-4.6-5.3-1 0-2.9 1.7-7.3 1.7-8.2 0-10.1-8.1-10.1-11.7 0-.1 0-.2.1-.2.2 0 1 1 3.6 1 1.4 0 2.6-.3 4.6-.3 4.6 0 6.7 3.2 9.5 7.3 1.7 1.1 5.9 2.8 5.9 7.7 0 4.3-4.6 6.7-5.7 11.3 1.8-.2 2.8-3.3 4.6-3.3.9 0 1.3.8 1.3 1.9 0 1.7-.9 4.2-2.8 5.8V61c0-1.06-.4-2.6-1.6-2.6-1.9 0-2.5 2.1-3.6 3.8-1.1-3.9-2.6-7.43-5.3-9.6-2.7-2.16-7.4-1-7.4-4.96 0-1.1.7-2.6.7-3.85 0-.5-.1-.9-.3-1.2 3.7 1.4 2.4 3.8 4.7 6.3 1.4 1.6 5.3 3.1 7.6 9.8.1-.2.1-.7.1-1.1 0-5.7-7.5-11.3-8.1-13.6 4.4.5 5.1 1.6 7.2 7.3.4 1.2 1.8 4.1 1.8 5.6zm-1-18.6c0-.8-2-.87-2.2-3.13 0-.34-.1-.95-.6-.95-.7 0-.1 2.1-.9 2.1-1.7 0-2.3-3.44-3-3.44-.1 0-.3.13-.3.6 0 .43.1.7.1 1.2s-.1.84-.6.84c-1 0-1.9-2.42-2.8-2.42-.2 0-.3.14-.3.3 0 .5.8 1.3.8 1.76 0 .94-2.5.44-2.5 1.2 0 .35.4.46.8.46.8 0 2.1-.32 2.8-.32.4 0 1 .1 1 .58 0 .54-1.4 1.23-1.4 1.73 0 .2.2.3.4.3 1 0 2.9-1.8 4.2-1.8.2 0 .8.1.8.5 0 .5-1.3 1.4-1.3 2.1 0 .2.1.4.4.4.7 0 1.6-1.8 2.9-1.8.5 0 1.3.2 1.6.2.4 0 .5-.2.5-.3z"/><path d="M140.1 15.32c.62 0 .74 1.5.85 2.38.08.46.16.5.35.5.46 0 1.2-1.77 1.68-1.77.72 0 2.68 2.03 5.94 2.03 4.64 0 9-3.26 9-9 0-5.56-3.9-8.82-9.3-8.82-2.57 0-4.45 1.27-5.45 1.27-.6.1-1.53-1.4-2-1.4-.18 0-.37.4-.37 1.1 0 .4 0 1.8-.46 1.8-.92 0-4.5-2.6-4.5-1.6 0 .9 2.4 3.6 2.4 4.3 0 .7-2.35 1.4-2.35 1.8 0 .9 2.4 1 2.4 2.1s-2.6 2-2.6 2.8c0 .7 2.6.2 2.6 1s-1.9 3.5-1.9 4.3c0 .2 0 .2.2.2.7 0 2.9-2.5 3.4-2.5zm1.12-6.28c0-.42-1.5-1.23-1.5-1.7 0-.06.08-.1.2-.1.42 0 1.15.15 1.72.15.5 0 .58-2.2.95-2.2.2 0 .7 2 1.1 2 .5 0 1.4-.6 1.8-.6 0 0 .1 0 .1.1 0 .2-1 1.3-1 1.6 0 .3 2.1.8 2.1 1.1 0 .3-2.2.3-2.2.7 0 .2.8 1.3.8 1.6 0 .1-.1.1-.1.1-.3 0-1.5-.6-1.9-.6-.4 0-1.1 1.5-1.5 1.5-.1 0-.2-.2-.2-.4l-.1-1.5c0-.2-.1-.3-.3-.3-.5 0-1.4-.1-1.6-.1-.2 0-.3-.1-.3-.1 0-.3 1.5-1.4 1.5-1.7zm7.47 7.28c-2.7 0-4.5-1.34-4.5-2.03 0-.4.2-.6.5-.6.8 0 2.7 1.3 3.3 1.3.1 0 .2-.1.2-.3 0-.7-.7-1.9-.7-2.4 0-.2.1-.3.3-.3 1 0 2.5.4 3.4.4.2 0 .3-.2.3-.3 0-.9-2.5-2.5-2.5-3s3.1-1.2 3.1-1.9c0-.8-4.2-.3-4.2-1 0-.6.8-1.5.8-1.9 0-.2-.2-.3-.5-.3s-2.2.7-2.9.7c-.4 0-.9-.1-.9-.7 0-.9 1.5-1.9 3.8-1.9 3.8 0 6 2.6 6 6.9 0 5.5-3.9 6.9-5.9 6.9zm-26 66.28c0 .36-.2.74-.5 1.12-.4-.76-1.6-1.15-2.2-1.15-4 0-2.5 5.7-6.7 5.7-1.8 0-1.9-.22-2.6-.22-.3 0-.5.12-.5.35 0 1 1.4 3.45 5.4 3.45 3.9 0 7.7-2.42 7.7-5.4 0-.5-.1-1.04-.4-1.58.1-.23.5-.38.8-.38.6 0 .9.6 1.5.6s1-.5 1-1.1c0-.5-.3-.9-.8-1.1.3-.3.5-.6.5-1.1 0-.7-.4-1.3-1.2-1.3-.3 0-.5.1-.8.3-.1-.7-.5-1.3-1.2-1.3-.6 0-1 .4-1 1s.4 1.1.4 1.7m-10 1.7c-1.2 0-2.9-1.3-2.9-1.9 0-.6.5-.9.9-.9.9 0 2.7 1.2 2.7 2.2 0 .2-.2.6-.8.6zm-10.7-8.6c3 .7 4.6 2.4 4.9 4.3.3 1.8.7 3.4 1.4 4.1 1 1 2.8 2 4.5 2 1.4 0 2.5-.5 2.5-1.7 0-1.4-1.9-4.5-4.7-4.5h-1c-.3 0-.8-.1-1.1-.3-.6-.5-.8-3.4-2-5.1-1.3-1.9-2.6-2.4-4.5-2.4-1.4 0-2.9.7-2.9 1.8 0 .7.3 1.1 2.8 1.8zm19.3-4.6c0-1.8-3.6-1.8-3.6-4.4 0-.7.4-1.8 1.3-3 .3 1.9 1.1 3 2.8 3.6 3.4 1.2 3.8 3.2 3.8 5.2 0 3.4-2.4 7.7-8.6 7.7-5 0-8.6-4.5-8.6-8.2 0-1.1.2-2.2.9-2.2.5 0 .7.4 1.2.9 1.7 1.7 3.6 2.2 6.3 2.2 2.4 0 4.2-1 4.2-2.1zm.1 2.7c-1.3.6-1.9.5-1.9 1.8 0 .5-.2 1.2-.2 1.5 0 .5.1.8.6.8 1.4 0 3.5-2.3 3.5-4.3 0-.5-.3-.7-.7-.7-.3 0-.6.6-1.5 1.1zm-12.2-19.3c0-2.5 5.8-3.8 5.8-6.8 0-.5-.2-1.4-.5-2.1 2 1.1 3.5 3 3.5 4.5 0 2.6-2.8 3.9-2.8 5.5 0 1.9 2.9 2.2 2.9 4.6 0 1.9-2.8 4.2-2.8 6.7 0 1.9 1.4 3.5 3.5 3.8-.7.1-1.3.3-2 .3-3.9 0-7.9-3.2-7.9-7 0-1.8.8-3.5 2-4.7 1.1 1 2.1 1.6 2.8 1.6.6 0 .83-.3.83-.7 0-1.4-5.65-2.7-5.65-5.7zm-22.1 19c.1 1.3 1.3 2.3 2.7 2.1.5-.1.9-.2 1.2-.4.4 1.2 1.4 2 2.8 1.8 1.4-.2 2.4-1.3 2.2-2.7 0-.4-.1-.7-.2-.9 0 0 .2 0 .4-.1 1.4-.3 2.3-1.4 2.2-2.7-.1-1.4-1.4-2.5-2.7-2.3-.5 0-.9.2-1.2.5-.3-1.2-1.4-2.2-2.9-1.9-1.3.2-2.2 1.3-2 2.7 0 .2.1.5.2.8H89c-1.1.1-2.3 1.3-2.1 2.7zm7.1-1.5c.1.8-.5 1.5-1.3 1.6-.8.1-1.5-.5-1.6-1.3-.1-.8.5-1.5 1.3-1.6.8-.1 1.6.4 1.7 1.2z"/></g></svg>