<svg xmlns="http://www.w3.org/2000/svg" xmlns:xlink="http://www.w3.org/1999/xlink" version="1.1" id="Layer_1" x="0" y="0" viewBox="0 0 150 55.02" xml:space="preserve" enable-background="new 0 0 150 55.017"><style>.s0{fill:#FFF;}</style><g id="XMLID_344_"><g id="XMLID_365_"><path id="XMLID_386_" d="M0 7.92h3.27V9.99H3.33c0.5-0.84 1.17-1.45 2.01-1.84C6.18 7.77 7.09 7.58 8.07 7.58c1.05 0 2 0.19 2.84 0.56 0.84 0.37 1.56 0.89 2.15 1.54 0.59 0.65 1.04 1.42 1.35 2.3 0.31 0.88 0.46 1.83 0.46 2.84 0 1.01-0.16 1.96-0.49 2.84 -0.33 0.88-0.78 1.65-1.36 2.3 -0.58 0.65-1.29 1.16-2.11 1.54 -0.82 0.37-1.72 0.56-2.7 0.56 -0.65 0-1.23-0.07-1.72-0.2 -0.5-0.13-0.94-0.31-1.32-0.52 -0.38-0.21-0.71-0.43-0.98-0.67 -0.27-0.24-0.49-0.47-0.66-0.7H3.45v8.3H0V7.92zM11.43 14.81c0-0.54-0.09-1.05-0.27-1.55 -0.18-0.5-0.45-0.94-0.8-1.32 -0.35-0.38-0.78-0.69-1.28-0.92 -0.5-0.23-1.06-0.34-1.69-0.34s-1.2 0.12-1.69 0.34c-0.5 0.23-0.92 0.54-1.28 0.92 -0.35 0.38-0.62 0.82-0.8 1.32 -0.18 0.5-0.27 1.01-0.27 1.55 0 0.54 0.09 1.05 0.27 1.55 0.18 0.5 0.45 0.94 0.8 1.32 0.35 0.38 0.78 0.69 1.28 0.92 0.5 0.23 1.06 0.34 1.69 0.34s1.2-0.11 1.69-0.34c0.5-0.23 0.92-0.54 1.28-0.92 0.35-0.38 0.62-0.82 0.8-1.32C11.33 15.87 11.43 15.35 11.43 14.81z" fill="#FFF"/><path id="XMLID_384_" d="M16.85 0h3.45v21.7H16.85V0z" fill="#FFF"/><path id="XMLID_381_" d="M31.95 19.81h-0.09c-0.5 0.79-1.13 1.35-1.89 1.71 -0.77 0.35-1.61 0.53-2.53 0.53 -0.63 0-1.25-0.09-1.85-0.26 -0.6-0.17-1.14-0.43-1.61-0.77 -0.47-0.34-0.85-0.77-1.13-1.29 -0.29-0.52-0.43-1.12-0.43-1.81 0-0.75 0.13-1.38 0.4-1.91 0.27-0.53 0.63-0.97 1.08-1.32 0.45-0.35 0.97-0.64 1.56-0.85 0.59-0.21 1.21-0.37 1.85-0.47 0.64-0.1 1.29-0.17 1.94-0.2 0.65-0.03 1.26-0.04 1.84-0.04h0.86v-0.37c0-0.86-0.3-1.51-0.89-1.94 -0.59-0.43-1.35-0.65-2.27-0.65 -0.73 0-1.41 0.13-2.04 0.39 -0.63 0.26-1.18 0.61-1.64 1.05l-1.81-1.81c0.77-0.78 1.66-1.35 2.68-1.69 1.02-0.34 2.08-0.52 3.17-0.52 0.98 0 1.8 0.11 2.47 0.33 0.67 0.22 1.23 0.5 1.67 0.85 0.44 0.34 0.78 0.74 1.02 1.19 0.24 0.45 0.41 0.9 0.52 1.36 0.11 0.46 0.17 0.9 0.19 1.34 0.02 0.43 0.03 0.81 0.03 1.13v7.92h-3.1V19.81zM31.75 15.53h-0.72c-0.48 0-1.01 0.02-1.61 0.06 -0.59 0.04-1.15 0.13-1.68 0.27 -0.53 0.14-0.97 0.35-1.33 0.63 -0.36 0.28-0.55 0.67-0.55 1.16 0 0.33 0.07 0.6 0.22 0.82 0.14 0.22 0.33 0.41 0.56 0.56 0.23 0.15 0.49 0.26 0.78 0.33 0.29 0.07 0.57 0.1 0.86 0.1 1.19 0 2.06-0.28 2.63-0.85 0.56-0.56 0.85-1.33 0.85-2.31V15.53z" fill="#FFF"/><path id="XMLID_379_" d="M35.6 7.92h3.79l3.85 9.56h0.06l3.45-9.56h3.59l-6.52 16.74c-0.25 0.65-0.52 1.22-0.82 1.71 -0.3 0.49-0.65 0.9-1.05 1.23 -0.4 0.34-0.88 0.58-1.42 0.75 -0.55 0.16-1.2 0.24-1.97 0.24 -0.9 0-1.78-0.11-2.64-0.34l0.43-3.1c0.27 0.1 0.55 0.18 0.85 0.24 0.3 0.07 0.6 0.1 0.9 0.1 0.42 0 0.78-0.04 1.06-0.11 0.29-0.08 0.53-0.2 0.73-0.36 0.2-0.16 0.37-0.37 0.5-0.63 0.13-0.26 0.28-0.57 0.43-0.93l0.66-1.64L35.6 7.92z" fill="#FFF"/><path id="XMLID_376_" d="M65.11 7.92v12.55c0 1.24-0.15 2.37-0.46 3.37 -0.31 1-0.78 1.86-1.42 2.56 -0.64 0.7-1.45 1.24-2.43 1.62 -0.98 0.38-2.13 0.57-3.47 0.57 -1.28 0-2.5-0.16-3.65-0.49 -1.15-0.33-2.21-0.92-3.19-1.78l2.07-2.81c0.69 0.63 1.41 1.12 2.15 1.46 0.75 0.34 1.61 0.52 2.58 0.52 0.82 0 1.52-0.11 2.08-0.34 0.56-0.23 1.01-0.55 1.35-0.95 0.34-0.4 0.57-0.88 0.72-1.45 0.14-0.56 0.22-1.19 0.22-1.88v-1h-0.06c-0.5 0.67-1.16 1.17-1.98 1.51 -0.82 0.34-1.66 0.5-2.53 0.5 -1.03 0-1.97-0.19-2.81-0.56 -0.84-0.37-1.56-0.88-2.17-1.51 -0.6-0.63-1.07-1.38-1.39-2.24 -0.33-0.86-0.49-1.78-0.49-2.76 0-1.01 0.15-1.96 0.46-2.84 0.31-0.88 0.76-1.65 1.35-2.3 0.59-0.65 1.31-1.16 2.14-1.54 0.83-0.37 1.78-0.56 2.86-0.56 0.98 0 1.89 0.19 2.73 0.57 0.84 0.38 1.51 1 2.01 1.84h0.06V7.92H65.11zM57.76 10.68c-0.61 0-1.17 0.1-1.66 0.3 -0.5 0.2-0.92 0.48-1.28 0.83 -0.35 0.35-0.63 0.79-0.83 1.29 -0.2 0.51-0.3 1.07-0.3 1.68 0 0.56 0.1 1.07 0.3 1.55 0.2 0.48 0.48 0.9 0.85 1.26 0.36 0.36 0.79 0.65 1.29 0.86 0.5 0.21 1.03 0.32 1.61 0.32 0.63 0 1.2-0.1 1.71-0.32 0.51-0.21 0.94-0.49 1.29-0.85 0.35-0.35 0.63-0.78 0.82-1.28 0.19-0.5 0.29-1.03 0.29-1.61 0-1.21-0.36-2.18-1.09-2.93C60.01 11.05 59.02 10.68 57.76 10.68z" fill="#FFF"/><path id="XMLID_374_" d="M67.57 7.92h3.45v2.18h0.06c0.38-0.8 0.93-1.42 1.64-1.87 0.71-0.44 1.52-0.66 2.44-0.66 0.21 0 0.42 0.02 0.62 0.06 0.2 0.04 0.41 0.09 0.62 0.14v3.33c-0.29-0.08-0.57-0.14-0.85-0.19 -0.28-0.05-0.55-0.07-0.82-0.07 -0.8 0-1.45 0.15-1.94 0.45 -0.49 0.3-0.86 0.64-1.12 1.02 -0.26 0.38-0.43 0.77-0.52 1.15 -0.09 0.38-0.13 0.67-0.13 0.86v7.38h-3.44V7.92z" fill="#FFF"/><path id="XMLID_371_" d="M77.05 14.81c0-1.09 0.2-2.08 0.59-2.97 0.39-0.89 0.92-1.65 1.59-2.28 0.67-0.63 1.46-1.12 2.38-1.46 0.92-0.34 1.9-0.52 2.93-0.52 1.03 0 2.01 0.17 2.93 0.52 0.92 0.34 1.71 0.83 2.38 1.46 0.67 0.63 1.2 1.39 1.59 2.28 0.39 0.89 0.59 1.88 0.59 2.97 0 1.09-0.2 2.08-0.59 2.97 -0.39 0.89-0.92 1.65-1.59 2.28 -0.67 0.63-1.46 1.12-2.38 1.46 -0.92 0.35-1.89 0.52-2.93 0.52 -1.03 0-2.01-0.17-2.93-0.52 -0.92-0.34-1.71-0.83-2.38-1.46 -0.67-0.63-1.2-1.39-1.59-2.28C77.24 16.89 77.05 15.9 77.05 14.81zM80.49 14.81c0 0.54 0.09 1.05 0.27 1.55 0.18 0.5 0.45 0.94 0.8 1.32 0.35 0.38 0.78 0.69 1.28 0.92 0.5 0.23 1.06 0.34 1.69 0.34s1.2-0.11 1.69-0.34c0.5-0.23 0.92-0.54 1.28-0.92 0.35-0.38 0.62-0.82 0.8-1.32 0.18-0.5 0.27-1.01 0.27-1.55 0-0.54-0.09-1.05-0.27-1.55 -0.18-0.5-0.45-0.94-0.8-1.32 -0.35-0.38-0.78-0.69-1.28-0.92 -0.5-0.23-1.06-0.34-1.69-0.34s-1.2 0.12-1.69 0.34c-0.5 0.23-0.92 0.54-1.28 0.92 -0.35 0.38-0.62 0.82-0.8 1.32C80.58 13.76 80.49 14.28 80.49 14.81z" fill="#FFF"/><path id="XMLID_369_" d="M106.38 21.7h-3.27v-2.21h-0.06c-0.33 0.69-0.82 1.29-1.49 1.79 -0.67 0.51-1.58 0.76-2.73 0.76 -0.92 0-1.7-0.15-2.34-0.44 -0.64-0.3-1.16-0.7-1.56-1.21 -0.4-0.51-0.69-1.09-0.86-1.74 -0.17-0.65-0.26-1.33-0.26-2.04V7.92h3.45v6.98c0 0.38 0.02 0.81 0.06 1.28 0.04 0.47 0.14 0.91 0.3 1.32 0.16 0.41 0.41 0.76 0.75 1.03 0.34 0.28 0.81 0.42 1.42 0.42 0.57 0 1.06-0.09 1.45-0.29 0.39-0.19 0.72-0.45 0.98-0.77 0.26-0.32 0.45-0.7 0.56-1.12 0.12-0.42 0.17-0.86 0.17-1.32V7.92h3.45V21.7z" fill="#FFF"/><path id="XMLID_366_" d="M109 7.92h3.27V9.99h0.06c0.5-0.84 1.17-1.45 2.01-1.84 0.84-0.38 1.75-0.57 2.73-0.57 1.05 0 2 0.19 2.84 0.56 0.84 0.37 1.56 0.89 2.15 1.54 0.59 0.65 1.04 1.42 1.35 2.3 0.31 0.88 0.46 1.83 0.46 2.84 0 1.01-0.16 1.96-0.49 2.84 -0.33 0.88-0.78 1.65-1.36 2.3 -0.58 0.65-1.29 1.16-2.11 1.54 -0.82 0.37-1.72 0.56-2.7 0.56 -0.65 0-1.23-0.07-1.72-0.2 -0.5-0.13-0.94-0.31-1.32-0.52 -0.38-0.21-0.71-0.43-0.98-0.67 -0.27-0.24-0.49-0.47-0.66-0.7h-0.09v8.3h-3.44V7.92zM120.42 14.81c0-0.54-0.09-1.05-0.27-1.55 -0.18-0.5-0.45-0.94-0.8-1.32 -0.35-0.38-0.78-0.69-1.28-0.92 -0.5-0.23-1.06-0.34-1.69-0.34s-1.2 0.12-1.69 0.34c-0.5 0.23-0.92 0.54-1.28 0.92 -0.35 0.38-0.62 0.82-0.8 1.32 -0.18 0.5-0.27 1.01-0.27 1.55 0 0.54 0.09 1.05 0.27 1.55 0.18 0.5 0.45 0.94 0.8 1.32 0.35 0.38 0.78 0.69 1.28 0.92 0.5 0.23 1.06 0.34 1.69 0.34s1.2-0.11 1.69-0.34c0.5-0.23 0.92-0.54 1.28-0.92 0.35-0.38 0.62-0.82 0.8-1.32C120.33 15.87 120.42 15.35 120.42 14.81z" fill="#FFF"/></g><g id="XMLID_345_"><path id="XMLID_362_" d="M85.9 46.06h-0.06c-0.5 0.84-1.17 1.46-2.01 1.84 -0.84 0.38-1.75 0.57-2.73 0.57 -1.07 0-2.02-0.19-2.86-0.56 -0.83-0.37-1.55-0.88-2.14-1.54 -0.59-0.65-1.04-1.42-1.35-2.3 -0.31-0.88-0.46-1.83-0.46-2.84 0-1.01 0.16-1.96 0.49-2.84 0.33-0.88 0.78-1.64 1.36-2.3 0.58-0.65 1.29-1.16 2.11-1.54 0.82-0.37 1.72-0.56 2.7-0.56 0.65 0 1.22 0.07 1.72 0.2 0.5 0.13 0.94 0.31 1.32 0.52 0.38 0.21 0.71 0.44 0.98 0.67 0.27 0.24 0.49 0.47 0.66 0.7h0.09v-9.67h3.45v21.7h-3.27V46.06zM77.75 41.24c0 0.54 0.09 1.05 0.27 1.55 0.18 0.5 0.45 0.94 0.8 1.32 0.35 0.38 0.78 0.69 1.28 0.92 0.5 0.23 1.06 0.35 1.69 0.35s1.2-0.11 1.69-0.34c0.5-0.23 0.92-0.54 1.28-0.92 0.35-0.38 0.62-0.82 0.8-1.32 0.18-0.5 0.27-1.01 0.27-1.55 0-0.54-0.09-1.05-0.27-1.55 -0.18-0.5-0.45-0.94-0.8-1.32 -0.35-0.38-0.78-0.69-1.28-0.92 -0.5-0.23-1.06-0.34-1.69-0.34s-1.2 0.12-1.69 0.34c-0.5 0.23-0.92 0.54-1.28 0.92 -0.35 0.38-0.62 0.82-0.8 1.32C77.84 40.19 77.75 40.7 77.75 41.24z" fill="#FFF"/><path id="XMLID_359_" d="M91.5 29.67c0-0.56 0.21-1.04 0.62-1.45 0.41-0.41 0.93-0.62 1.56-0.62s1.16 0.2 1.59 0.59c0.43 0.39 0.65 0.89 0.65 1.48 0 0.59-0.21 1.09-0.65 1.48 -0.43 0.39-0.96 0.59-1.59 0.59s-1.15-0.2-1.56-0.62C91.71 30.71 91.5 30.23 91.5 29.67zM91.99 34.35h3.45v13.78h-3.44V34.35z" fill="#FFF"/><path id="XMLID_356_" d="M112.43 34.35v12.55c0 1.24-0.15 2.37-0.46 3.37 -0.31 1-0.78 1.86-1.42 2.56 -0.64 0.7-1.45 1.24-2.43 1.62 -0.98 0.38-2.13 0.57-3.47 0.57 -1.28 0-2.5-0.16-3.65-0.49 -1.15-0.33-2.21-0.92-3.19-1.78l2.07-2.81c0.69 0.63 1.41 1.12 2.15 1.46 0.75 0.35 1.61 0.52 2.58 0.52 0.82 0 1.52-0.11 2.08-0.34 0.56-0.23 1.01-0.55 1.35-0.95 0.34-0.4 0.57-0.88 0.72-1.45 0.14-0.56 0.22-1.19 0.22-1.88V46.29h-0.06c-0.5 0.67-1.16 1.17-1.98 1.51 -0.82 0.34-1.66 0.5-2.53 0.5 -1.03 0-1.97-0.19-2.81-0.56 -0.84-0.37-1.56-0.88-2.17-1.51 -0.6-0.63-1.07-1.38-1.39-2.24 -0.33-0.86-0.49-1.78-0.49-2.76 0-1.01 0.15-1.96 0.46-2.84 0.31-0.88 0.76-1.64 1.35-2.3 0.59-0.65 1.31-1.16 2.14-1.54 0.83-0.37 1.78-0.56 2.86-0.56 0.98 0 1.89 0.19 2.73 0.57 0.84 0.38 1.51 1 2.01 1.84h0.06v-2.07H112.43zM105.08 37.1c-0.61 0-1.17 0.1-1.66 0.3 -0.5 0.2-0.92 0.48-1.28 0.83 -0.35 0.35-0.63 0.79-0.83 1.29 -0.2 0.51-0.3 1.07-0.3 1.68 0 0.56 0.1 1.07 0.3 1.55 0.2 0.48 0.48 0.9 0.85 1.26 0.36 0.36 0.79 0.65 1.29 0.86 0.5 0.21 1.03 0.32 1.61 0.32 0.63 0 1.2-0.1 1.71-0.32 0.51-0.21 0.94-0.49 1.29-0.85 0.35-0.35 0.63-0.78 0.82-1.28 0.19-0.5 0.29-1.03 0.29-1.61 0-1.21-0.36-2.18-1.09-2.93C107.34 37.48 106.34 37.1 105.08 37.1z" fill="#FFF"/><path id="XMLID_353_" d="M114.61 29.67c0-0.56 0.21-1.04 0.62-1.45 0.41-0.41 0.93-0.62 1.56-0.62 0.63 0 1.16 0.2 1.59 0.59 0.43 0.39 0.65 0.89 0.65 1.48 0 0.59-0.21 1.09-0.65 1.48 -0.43 0.39-0.96 0.59-1.59 0.59 -0.63 0-1.15-0.2-1.56-0.62C114.82 30.71 114.61 30.23 114.61 29.67zM115.1 34.35h3.45v13.78h-3.44V34.35z" fill="#FFF"/><path id="XMLID_351_" d="M120.18 37.28v-2.93h2.84v-3.99h3.45v3.99h3.79v2.93h-3.79v6.03c0 0.69 0.13 1.24 0.39 1.64 0.26 0.4 0.77 0.6 1.54 0.6 0.31 0 0.64-0.03 1-0.1 0.36-0.07 0.65-0.18 0.86-0.33v2.9c-0.36 0.17-0.81 0.29-1.33 0.36 -0.53 0.07-0.99 0.1-1.39 0.1 -0.92 0-1.67-0.1-2.25-0.3 -0.58-0.2-1.04-0.51-1.38-0.92 -0.33-0.41-0.56-0.92-0.69-1.54 -0.12-0.61-0.19-1.32-0.19-2.12v-6.31H120.18z" fill="#FFF"/><path id="XMLID_348_" d="M140.99 46.23h-0.09c-0.5 0.79-1.13 1.35-1.89 1.71 -0.77 0.35-1.61 0.53-2.53 0.53 -0.63 0-1.25-0.09-1.85-0.26 -0.6-0.17-1.14-0.43-1.61-0.77 -0.47-0.34-0.85-0.77-1.13-1.29 -0.29-0.52-0.43-1.12-0.43-1.81 0-0.75 0.13-1.38 0.4-1.91 0.27-0.53 0.63-0.97 1.08-1.32 0.45-0.35 0.97-0.64 1.56-0.85 0.59-0.21 1.21-0.37 1.85-0.47 0.64-0.1 1.29-0.17 1.94-0.2 0.65-0.03 1.26-0.04 1.84-0.04h0.86v-0.37c0-0.86-0.3-1.51-0.89-1.94 -0.59-0.43-1.35-0.65-2.27-0.65 -0.73 0-1.41 0.13-2.04 0.39 -0.63 0.26-1.18 0.61-1.64 1.05l-1.81-1.81c0.77-0.78 1.66-1.35 2.68-1.69 1.02-0.34 2.08-0.52 3.17-0.52 0.98 0 1.8 0.11 2.47 0.33 0.67 0.22 1.23 0.5 1.67 0.85 0.44 0.35 0.78 0.74 1.02 1.19 0.24 0.45 0.41 0.9 0.52 1.36 0.11 0.46 0.17 0.9 0.19 1.34 0.02 0.43 0.03 0.81 0.03 1.13v7.92h-3.1V46.23zM140.79 41.96h-0.72c-0.48 0-1.01 0.02-1.61 0.06 -0.59 0.04-1.15 0.13-1.68 0.27 -0.53 0.14-0.97 0.35-1.33 0.63 -0.36 0.28-0.55 0.67-0.55 1.16 0 0.33 0.07 0.6 0.22 0.82 0.14 0.22 0.33 0.41 0.56 0.56 0.23 0.15 0.49 0.26 0.78 0.33 0.29 0.07 0.57 0.1 0.86 0.1 1.19 0 2.06-0.28 2.63-0.85 0.56-0.56 0.85-1.33 0.85-2.31V41.96z" fill="#FFF"/><path id="XMLID_346_" d="M146.56 26.43H150v21.7h-3.44V26.43z" fill="#FFF"/></g></g><g id="XMLID_40_"/><g id="XMLID_41_"/><g id="XMLID_42_"/><g id="XMLID_43_"/><g id="XMLID_44_"/><g id="XMLID_45_"/><g id="XMLID_46_"/><g id="XMLID_47_"/><g id="XMLID_48_"/><g id="XMLID_49_"/><g id="XMLID_50_"/><g id="XMLID_51_"/><g id="XMLID_52_"/><g id="XMLID_53_"/><g id="XMLID_54_"/></svg>
