<svg xmlns="http://www.w3.org/2000/svg" xmlns:xlink="http://www.w3.org/1999/xlink" version="1.1" x="0" y="0" viewBox="-404 253.98 150 55.02" xml:space="preserve" enable-background="new -404 253.983 150 55.017"><style>.s0{fill:#00E;}</style><path d="M-404 261.91h3.27v2.07h0.06c0.5-0.84 1.17-1.45 2.01-1.84 0.84-0.35 1.76-0.55 2.76-0.57 1.05 0 2 0.2 2.8 0.56 0.84 0.4 1.6 0.9 2.2 1.5 0.59 0.7 1 1.4 1.3 2.3 0.31 0.9 0.5 1.8 0.5 2.84 0 1.01-0.16 1.96-0.49 2.8 -0.33 0.88-0.78 1.65-1.36 2.3 -0.58 0.65-1.29 1.16-2.11 1.54 -0.82 0.37-1.72 0.56-2.7 0.6 -0.65 0-1.23-0.07-1.72-0.2 -0.5-0.13-0.94-0.31-1.32-0.52 -0.38-0.21-0.71-0.43-0.98-0.67 -0.27-0.24-0.49-0.47-0.66-0.7h-0.12v8.3H-404V261.91zM-392.57 268.8c0-0.54-0.09-1.05-0.27-1.55 -0.18-0.5-0.45-0.94-0.8-1.32 -0.35-0.38-0.78-0.69-1.28-0.92 -0.5-0.23-1.06-0.34-1.69-0.34 -0.63 0-1.2 0.12-1.69 0.34 -0.5 0.23-0.92 0.54-1.28 0.92 -0.35 0.38-0.62 0.82-0.8 1.3 -0.18 0.5-0.27 1.01-0.27 1.55 0 0.5 0.1 1.1 0.3 1.55 0.18 0.5 0.5 0.9 0.8 1.3 0.35 0.4 0.8 0.7 1.3 0.92 0.5 0.2 1.1 0.3 1.7 0.34 0.6 0.04 1.2-0.11 1.69-0.34 0.5-0.23 0.92-0.54 1.28-0.92s0.62-0.82 0.8-1.32c0.13-0.42 0.2-1.02 0.2-1.51H-392.57zM-387.15 253.98h3.45v21.7h-3.44V253.98zM-372.05 273.79h-0.09c-0.5 0.79-1.13 1.35-1.89 1.7 -0.77 0.35-1.61 0.53-2.53 0.53 -0.63 0-1.25-0.09-1.85-0.26s-1.14-0.43-1.61-0.77 -0.85-0.77-1.13-1.29c-0.29-0.52-0.43-1.12-0.43-1.81 0-0.75 0.13-1.38 0.4-1.91 0.27-0.53 0.63-0.97 1.08-1.32 0.45-0.35 0.97-0.64 1.56-0.85 0.59-0.21 1.21-0.37 1.85-0.47 0.64-0.1 1.29-0.17 1.94-0.2 0.65-0.03 1.26-0.04 1.84-0.04h0.86v-0.37c0-0.86-0.3-1.51-0.89-1.94 -0.59-0.43-1.35-0.65-2.27-0.65 -0.73 0-1.41 0.13-2.04 0.39 -0.63 0.26-1.18 0.61-1.64 1.05l-1.81-1.81c0.77-0.78 1.66-1.35 2.68-1.69 1.02-0.34 2.08-0.52 3.17-0.52 0.98 0 1.8 0.1 2.5 0.3 0.67 0.2 1.2 0.5 1.7 0.85 0.44 0.3 0.8 0.7 1 1.19 0.24 0.5 0.4 0.9 0.5 1.4 0.11 0.5 0.2 0.9 0.2 1.34 0.02 0.4 0 0.8 0 1.13v7.92h-3.1v-1.89H-372.05zM-372.25 269.51h-0.72c-0.48 0-1.01 0.02-1.61 0.06 -0.59 0.04-1.15 0.13-1.68 0.27 -0.53 0.14-0.97 0.35-1.33 0.6 -0.36 0.28-0.55 0.67-0.55 1.16 0 0.3 0.1 0.6 0.2 0.82 0.14 0.2 0.3 0.4 0.6 0.6 0.23 0.2 0.5 0.3 0.8 0.33 0.29 0.1 0.6 0.1 0.9 0.1 1.19 0 2.06-0.28 2.63-0.85 0.56-0.56 0.85-1.33 0.85-2.31v-0.78H-372.25zM-368.4 261.91h3.79l3.85 9.56h0.06l3.45-9.56h3.59l-6.52 16.7c-0.25 0.65-0.52 1.22-0.82 1.71 -0.3 0.49-0.65 0.9-1.05 1.23s-0.88 0.58-1.42 0.7c-0.55 0.16-1.2 0.24-1.97 0.24 -0.9 0-1.78-0.11-2.64-0.34l0.43-3.1c0.27 0.1 0.6 0.2 0.8 0.2 0.3 0.1 0.6 0.1 0.9 0.1 0.42 0 0.78-0.04 1.06-0.11 0.29-0.08 0.53-0.2 0.73-0.36 0.2-0.16 0.37-0.37 0.5-0.63 0.13-0.26 0.28-0.57 0.43-0.93l0.66-1.64L-368.4 261.91zM-338.89 261.91v12.55c0 1.24-0.15 2.37-0.46 3.4 -0.31 1-0.78 1.86-1.42 2.56 -0.64 0.7-1.45 1.24-2.43 1.62 -0.98 0.38-2.13 0.57-3.47 0.6 -1.28 0-2.5-0.16-3.65-0.49 -1.15-0.33-2.21-0.92-3.19-1.78l2.07-2.81c0.69 0.6 1.4 1.1 2.2 1.5 0.75 0.3 1.6 0.5 2.6 0.52 0.82 0 1.52-0.11 2.08-0.34 0.56-0.23 1.01-0.55 1.35-0.95 0.34-0.4 0.57-0.88 0.72-1.45 0.14-0.56 0.22-1.19 0.22-1.88v-1h-0.06c-0.5 0.67-1.16 1.17-1.98 1.5 -0.82 0.34-1.66 0.5-2.53 0.5 -1.03 0-1.97-0.19-2.81-0.56 -0.84-0.37-1.56-0.88-2.17-1.51 -0.6-0.63-1.07-1.38-1.39-2.24 -0.33-0.86-0.49-1.78-0.49-2.76 0-1.01 0.15-1.96 0.46-2.84s0.76-1.65 1.35-2.3c0.59-0.65 1.31-1.16 2.14-1.54 0.83-0.37 1.78-0.56 2.86-0.56 0.98 0 1.9 0.2 2.7 0.57 0.84 0.4 1.5 1 2 1.84h0.06v-2.15H-338.89zM-346.24 264.68c-0.61 0-1.17 0.1-1.66 0.3 -0.5 0.2-0.92 0.48-1.28 0.83 -0.35 0.35-0.63 0.79-0.83 1.3 -0.2 0.51-0.3 1.07-0.3 1.68 0 0.6 0.1 1.1 0.3 1.55 0.2 0.5 0.5 0.9 0.8 1.3 0.36 0.4 0.8 0.7 1.3 0.86 0.5 0.2 1 0.3 1.6 0.32 0.63 0 1.2-0.1 1.71-0.32 0.51-0.21 0.94-0.49 1.29-0.85 0.35-0.35 0.63-0.78 0.82-1.28 0.19-0.5 0.29-1.03 0.29-1.61 0-1.21-0.36-2.18-1.09-2.93 -0.68-0.76-1.69-1.16-2.89-1.18L-346.24 264.68zM-336.43 261.91h3.45v2.18h0.06c0.38-0.8 0.93-1.42 1.64-1.87 0.71-0.44 1.52-0.66 2.44-0.66 0.21 0 0.4 0 0.6 0.06 0.2 0 0.4 0.1 0.6 0.14v3.33c-0.29-0.08-0.57-0.14-0.85-0.19 -0.28-0.05-0.55-0.07-0.82-0.07 -0.8 0-1.45 0.15-1.94 0.4 -0.49 0.3-0.86 0.64-1.12 1.02 -0.26 0.38-0.43 0.77-0.52 1.15 -0.09 0.38-0.13 0.67-0.13 0.86v7.38h-3.44v-13.73H-336.43zM-326.95 268.8c0-1.09 0.2-2.08 0.59-2.97 0.39-0.89 0.92-1.65 1.59-2.28 0.67-0.63 1.46-1.12 2.38-1.46 0.92-0.34 1.9-0.52 2.93-0.52 1.03 0 2 0.2 2.9 0.52 0.92 0.3 1.7 0.8 2.4 1.46 0.67 0.6 1.2 1.4 1.6 2.3 0.39 0.9 0.6 1.9 0.6 2.97 0 1.09-0.2 2.08-0.59 2.97 -0.39 0.89-0.92 1.65-1.59 2.3 -0.67 0.63-1.46 1.12-2.38 1.46s-1.89 0.52-2.93 0.52c-1.03 0-2.01-0.17-2.93-0.52 -0.92-0.34-1.71-0.83-2.38-1.46 -0.67-0.63-1.2-1.39-1.59-2.28 -0.4-0.92-0.64-1.92-0.64-3.01H-326.95zM-323.51 268.8c0 0.5 0.1 1.1 0.3 1.55 0.18 0.5 0.4 0.9 0.8 1.32 0.35 0.4 0.8 0.7 1.3 0.9 0.5 0.2 1.1 0.3 1.7 0.34s1.2-0.11 1.69-0.34c0.5-0.23 0.92-0.54 1.28-0.92 0.35-0.38 0.62-0.82 0.8-1.32 0.18-0.5 0.27-1.01 0.27-1.55s-0.09-1.05-0.27-1.55c-0.18-0.5-0.45-0.94-0.8-1.32 -0.35-0.38-0.78-0.69-1.28-0.92s-1.06-0.34-1.69-0.34 -1.2 0.12-1.69 0.34c-0.5 0.23-0.92 0.54-1.28 0.92 -0.35 0.38-0.62 0.82-0.8 1.3 -0.23 0.58-0.32 1.08-0.32 1.59H-323.51zM-297.62 275.69h-3.27v-2.21h-0.06c-0.33 0.69-0.82 1.29-1.49 1.8 -0.67 0.51-1.58 0.76-2.73 0.76 -0.92 0-1.7-0.15-2.34-0.44 -0.64-0.3-1.16-0.7-1.56-1.21 -0.4-0.51-0.69-1.09-0.86-1.74 -0.17-0.65-0.26-1.33-0.26-2.04v-8.7h3.45v6.98c0 0.4 0 0.8 0.1 1.3 0.04 0.5 0.1 0.9 0.3 1.32 0.16 0.4 0.4 0.8 0.7 1.03 0.34 0.3 0.8 0.4 1.4 0.4 0.57 0 1.06-0.09 1.45-0.29 0.39-0.19 0.72-0.45 0.98-0.77 0.26-0.32 0.45-0.7 0.56-1.12 0.12-0.42 0.17-0.86 0.17-1.32v-7.53h3.45v13.78H-297.62zM-295 261.91h3.27v2.07h0.06c0.5-0.84 1.17-1.45 2.01-1.84 0.84-0.38 1.75-0.57 2.73-0.57 1.05 0 2 0.2 2.8 0.56 0.84 0.4 1.6 0.9 2.2 1.5 0.59 0.7 1 1.4 1.3 2.3 0.31 0.9 0.5 1.8 0.5 2.84 0 1.01-0.16 1.96-0.49 2.8 -0.33 0.88-0.78 1.65-1.36 2.3 -0.58 0.65-1.29 1.16-2.11 1.54 -0.82 0.37-1.72 0.56-2.7 0.6 -0.65 0-1.23-0.07-1.72-0.2 -0.5-0.13-0.94-0.31-1.32-0.52 -0.38-0.21-0.71-0.43-0.98-0.67 -0.27-0.24-0.49-0.47-0.66-0.7h-0.09v8.3h-3.44v-20.29H-295zM-283.58 268.8c0-0.54-0.09-1.05-0.27-1.55 -0.18-0.5-0.45-0.94-0.8-1.32 -0.35-0.38-0.78-0.69-1.28-0.92 -0.5-0.23-1.06-0.34-1.69-0.34 -0.63 0-1.2 0.12-1.69 0.34 -0.5 0.23-0.92 0.54-1.28 0.92 -0.35 0.38-0.62 0.82-0.8 1.3 -0.18 0.5-0.27 1.01-0.27 1.55 0 0.5 0.1 1.1 0.3 1.55 0.18 0.5 0.5 0.9 0.8 1.3 0.35 0.4 0.8 0.7 1.3 0.92 0.5 0.2 1.1 0.3 1.7 0.34 0.6 0.04 1.2-0.11 1.69-0.34 0.5-0.23 0.92-0.54 1.28-0.92s0.62-0.82 0.8-1.32c0.13-0.42 0.2-1.02 0.2-1.51H-283.58z" fill="#00E"/><path d="M-318.1 300.04h-0.06c-0.5 0.84-1.17 1.46-2.01 1.8 -0.84 0.38-1.75 0.57-2.73 0.57 -1.07 0-2.02-0.19-2.86-0.56 -0.83-0.37-1.55-0.88-2.14-1.54 -0.59-0.65-1.04-1.42-1.35-2.3 -0.31-0.88-0.46-1.83-0.46-2.84 0-1.01 0.16-1.96 0.49-2.84 0.33-0.88 0.78-1.64 1.36-2.3 0.58-0.65 1.29-1.16 2.11-1.54s1.72-0.56 2.7-0.56c0.65 0 1.2 0.1 1.7 0.2 0.5 0.1 0.9 0.3 1.3 0.52 0.38 0.2 0.7 0.4 1 0.7 0.27 0.2 0.5 0.5 0.7 0.7h0.09v-9.67h3.45v21.7h-3.27v-2.05H-318.1zM-326.25 295.22c0 0.5 0.1 1.1 0.3 1.6 0.18 0.5 0.4 0.9 0.8 1.32 0.35 0.4 0.8 0.7 1.3 0.92 0.5 0.2 1.1 0.3 1.7 0.3 0.6 0 1.2-0.11 1.69-0.34 0.5-0.23 0.92-0.54 1.28-0.92 0.35-0.38 0.62-0.82 0.8-1.32 0.18-0.5 0.27-1.01 0.27-1.55 0-0.54-0.09-1.05-0.27-1.55 -0.18-0.5-0.45-0.94-0.8-1.32 -0.35-0.38-0.78-0.69-1.28-0.92 -0.5-0.23-1.06-0.34-1.69-0.34 -0.63 0-1.2 0.12-1.69 0.3 -0.5 0.23-0.92 0.54-1.28 0.92 -0.35 0.38-0.62 0.82-0.8 1.32 -0.23 0.55-0.28 1.05-0.28 1.59H-326.25zM-312.5 283.65c0-0.56 0.21-1.04 0.62-1.45 0.41-0.41 0.93-0.62 1.56-0.62 0.63 0 1.16 0.2 1.6 0.59 0.43 0.4 0.6 0.9 0.6 1.5 0 0.59-0.21 1.09-0.65 1.48 -0.43 0.39-0.96 0.59-1.59 0.59 -0.63 0-1.15-0.2-1.56-0.62 -0.37-0.44-0.58-0.94-0.58-1.47H-312.5zM-312.01 288.33h3.45v13.78h-3.44V288.33zM-291.57 288.33v12.55c0 1.24-0.15 2.37-0.46 3.4 -0.31 1-0.78 1.86-1.42 2.56 -0.64 0.7-1.45 1.24-2.43 1.62 -0.98 0.38-2.13 0.57-3.47 0.6 -1.28 0-2.5-0.16-3.65-0.49 -1.15-0.33-2.21-0.92-3.19-1.78l2.07-2.81c0.69 0.6 1.4 1.1 2.2 1.5 0.75 0.3 1.6 0.5 2.6 0.52 0.82 0 1.52-0.11 2.08-0.34 0.56-0.23 1.01-0.55 1.35-0.95 0.34-0.4 0.57-0.88 0.72-1.45 0.14-0.56 0.22-1.19 0.22-1.88v-1.09h-0.06c-0.5 0.67-1.16 1.17-1.98 1.5 -0.82 0.34-1.66 0.5-2.53 0.5 -1.03 0-1.97-0.19-2.81-0.56 -0.84-0.37-1.56-0.88-2.17-1.51 -0.6-0.63-1.07-1.38-1.39-2.24 -0.33-0.86-0.49-1.78-0.49-2.76 0-1.01 0.15-1.96 0.46-2.84 0.31-0.88 0.76-1.64 1.35-2.3 0.59-0.65 1.31-1.16 2.14-1.54s1.78-0.56 2.86-0.56c0.98 0 1.9 0.2 2.7 0.57 0.84 0.4 1.5 1 2 1.84h0.06v-2.07h3.25V288.33zM-298.92 291.08c-0.61 0-1.17 0.1-1.66 0.3 -0.5 0.2-0.92 0.48-1.28 0.83 -0.35 0.35-0.63 0.79-0.83 1.3 -0.2 0.51-0.3 1.07-0.3 1.68 0 0.6 0.1 1.1 0.3 1.55 0.2 0.5 0.5 0.9 0.8 1.3 0.36 0.4 0.8 0.7 1.3 0.86 0.5 0.2 1 0.3 1.6 0.32 0.63 0 1.2-0.1 1.71-0.32 0.51-0.21 0.94-0.49 1.29-0.85 0.35-0.35 0.63-0.78 0.82-1.28 0.19-0.5 0.29-1.03 0.29-1.61 0-1.21-0.36-2.18-1.09-2.93 -0.68-0.76-1.72-1.16-2.92-1.16L-298.92 291.08zM-289.39 283.65c0-0.56 0.21-1.04 0.62-1.45 0.41-0.41 0.93-0.62 1.56-0.62 0.63 0 1.2 0.2 1.6 0.59 0.43 0.4 0.6 0.9 0.6 1.5 0 0.59-0.21 1.09-0.65 1.48 -0.43 0.39-0.96 0.59-1.59 0.59 -0.63 0-1.15-0.2-1.56-0.62 -0.37-0.44-0.59-0.94-0.59-1.47H-289.39zM-288.9 288.33h3.45v13.78h-3.44V288.33zM-283.82 291.26v-2.93h2.84v-3.99h3.45v3.99h3.79v2.93h-3.79v6.03c0 0.7 0.1 1.2 0.4 1.64 0.26 0.4 0.8 0.6 1.5 0.6 0.31 0 0.64-0.03 1-0.1 0.36-0.07 0.65-0.18 0.86-0.33v2.9c-0.36 0.17-0.81 0.29-1.33 0.36 -0.53 0.07-0.99 0.1-1.39 0.1 -0.92 0-1.67-0.1-2.25-0.3 -0.58-0.2-1.04-0.51-1.38-0.92 -0.33-0.41-0.56-0.92-0.69-1.54 -0.12-0.61-0.19-1.32-0.19-2.12v-6.31h-2.82V291.26zM-263.01 300.22h-0.09c-0.5 0.79-1.13 1.35-1.89 1.7 -0.77 0.35-1.61 0.53-2.53 0.53 -0.63 0-1.25-0.09-1.85-0.26 -0.6-0.17-1.14-0.43-1.61-0.77 -0.47-0.34-0.85-0.77-1.13-1.29 -0.29-0.52-0.43-1.12-0.43-1.81 0-0.75 0.13-1.38 0.4-1.91 0.27-0.53 0.63-0.97 1.08-1.32 0.45-0.35 0.97-0.64 1.56-0.85 0.59-0.21 1.21-0.37 1.85-0.47 0.64-0.1 1.29-0.17 1.94-0.2 0.65-0.03 1.26-0.04 1.84-0.04h0.86v-0.37c0-0.86-0.3-1.51-0.89-1.94s-1.35-0.65-2.27-0.65c-0.73 0-1.41 0.13-2.04 0.39 -0.63 0.26-1.18 0.61-1.64 1.05l-1.81-1.81c0.77-0.78 1.66-1.35 2.68-1.69 1.02-0.34 2.08-0.52 3.17-0.52 0.98 0 1.8 0.1 2.5 0.3 0.67 0.2 1.2 0.5 1.7 0.85 0.44 0.3 0.8 0.7 1 1.19 0.24 0.5 0.4 0.9 0.5 1.4 0.11 0.5 0.2 0.9 0.2 1.34 0.02 0.4 0 0.8 0 1.13v7.92h-3.1v-1.89H-263.01zM-263.21 295.94h-0.72c-0.48 0-1.01 0.02-1.61 0.06 -0.59 0.04-1.15 0.13-1.68 0.27 -0.53 0.14-0.97 0.35-1.33 0.6 -0.36 0.28-0.55 0.67-0.55 1.16 0 0.3 0.1 0.6 0.2 0.82 0.14 0.2 0.3 0.4 0.6 0.6 0.23 0.2 0.5 0.3 0.8 0.33 0.29 0.1 0.6 0.1 0.9 0.1 1.19 0 2.06-0.28 2.63-0.85 0.56-0.56 0.85-1.33 0.85-2.31v-0.78H-263.21zM-257.44 280.41H-254v21.7h-3.44V280.41z" fill="#00E"/></svg>
