<?xml version="1.0" encoding="UTF-8" standalone="no"?>
<svg width="29px" height="23px" viewBox="0 0 29 23" version="1.1" xmlns="http://www.w3.org/2000/svg" xmlns:xlink="http://www.w3.org/1999/xlink" xmlns:sketch="http://www.bohemiancoding.com/sketch/ns">
    <!-- Generator: Sketch 3.3.2 (12043) - http://www.bohemiancoding.com/sketch -->
    <defs></defs>
    <g id="_Home" stroke="none" stroke-width="1" fill="none" fill-rule="evenodd" sketch:type="MSPage">
        <g id="Desktop-Copy-17" sketch:type="MSArtboardGroup" transform="translate(-321.000000, -3118.000000)" fill="#42484D">
            <path d="M349.632959,3120.68739 C348.602841,3121.13535 347.495584,3121.43771 346.333487,3121.57395 C347.519704,3120.87714 348.430586,3119.77429 348.85929,3118.45962 C347.749302,3119.10469 346.520078,3119.57317 345.211439,3119.82558 C344.1638,3118.73143 342.670846,3118.048 341.018379,3118.048 C337.846108,3118.048 335.273885,3120.56832 335.273885,3123.67707 C335.273885,3124.11812 335.324629,3124.5478 335.422703,3124.95986 C330.648481,3124.72507 326.4156,3122.48414 323.582378,3119.07838 C323.087912,3119.90964 322.804385,3120.87669 322.804385,3121.90819 C322.804385,3123.86125 323.818574,3125.58398 325.359997,3126.5934 C324.418396,3126.56419 323.532544,3126.31111 322.757965,3125.88945 C322.757282,3125.91287 322.757282,3125.9365 322.757282,3125.96014 C322.757282,3128.6876 324.737648,3130.96264 327.365393,3131.47995 C326.88367,3131.60861 326.376006,3131.67729 325.852187,3131.67729 C325.481963,3131.67729 325.122207,3131.64205 324.771325,3131.5765 C325.502443,3133.81274 327.623889,3135.44003 330.137859,3135.48552 C328.171602,3136.9953 325.69495,3137.89524 323.003264,3137.89524 C322.539517,3137.89524 322.08237,3137.86871 321.632959,3137.81653 C324.175145,3139.41372 327.19473,3140.34576 330.43868,3140.34576 C341.004954,3140.34576 346.783353,3131.76848 346.783353,3124.3295 C346.783353,3124.08557 346.777437,3123.84274 346.766742,3123.60126 C347.88879,3122.80768 348.86293,3121.81632 349.632731,3120.68739 L349.632959,3120.68739" id="twitter-logo-copy-2" sketch:type="MSShapeGroup"></path>
        </g>
    </g>
</svg>
